<svg version="1.1" xmlns="http://www.w3.org/2000/svg" xmlns:xlink="http://www.w3.org/1999/xlink" width="678.67868" height="566.06607" viewBox="0,0,678.67868,566.06607"><g transform="translate(99.33934,103.03304)"><g data-paper-data="{&quot;isPaintingLayer&quot;:true}" fill-rule="nonzero" stroke-linecap="butt" stroke-linejoin="miter" stroke-miterlimit="10" stroke-dasharray="" stroke-dashoffset="0" style="mix-blend-mode: normal"><path d="M-99.33934,463.03303v-566.06607h678.67868v566.06607z" fill="#485c7c" stroke="none" stroke-width="0"/><path d="M195.72816,203.21705l50.74334,-148.32671l21.46834,58.55001c0,0 -12.12538,10.91365 -12.22164,10.87613c-0.26712,-0.10411 -8.37904,-18.84721 -8.42032,-18.7959c-0.72128,0.89676 -15.65124,45.05124 -16.06991,45.71645c-0.0153,0.0243 44.03609,-38.97592 45.94425,-40.0363c0.06749,-0.0375 55.09053,0.18905 55.24775,0.18363c0.79853,-0.02756 3.72142,-2.98697 4.70583,-3.48112c2.49416,-1.25202 3.12147,-0.78088 3.19183,-0.6564c0.17503,0.30964 -13.02911,19.06317 -13.40626,19.26c-0.05106,0.02664 -45.08047,0.0531 -45.19057,0.20174c-1.74004,2.34918 -32.59072,29.63331 -56.84719,50.95743c-0.43224,0.37998 9.82872,7.15249 24.23668,6.70743c12.19484,-0.37669 21.52315,-7.82785 21.14319,-7.494c-0.0109,0.00958 -18.48221,-15.73287 -18.52808,-16.24294c-0.04166,-0.4633 9.12934,-8.48113 9.41518,-8.46587c1.52148,0.08128 7.40427,5.33489 7.39397,5.19112c-0.13419,-1.86951 -2.05227,-10.10062 -1.75735,-9.85093c0.24779,0.20981 9.87663,-9.00761 10.09241,-8.57598c1.27864,2.55767 22.03158,62.50665 22.42389,63.80966c0.12878,0.42775 -17.66833,-15.76594 -17.72274,-15.73421c-12.33667,7.19346 -18.46165,9.69679 -32.70165,10.47447c-21.62761,1.18111 -34.49131,-10.60133 -34.733,-10.38929c-10.7487,9.42976 -18.40784,16.12164 -18.40784,16.12164z" fill="#000000" stroke="#000000" stroke-width="1.5"/><path d="M168.96677,126.18726c0,0 -12.69287,-16.75165 -13.45989,-18.24909c-1.47223,-2.87434 5.26289,2.24542 5.26289,2.24542h58.15968l-5.07435,16.00369z" fill="#000000" stroke="#000000" stroke-width="1.5"/><path d="M190.43511,106.28023c0,0 3.58657,-12.96934 18.91282,-24.6407c12.53641,-9.54685 26.36588,-10.4893 26.36588,-10.4893c0,0 -4.95677,15.02472 -5.49002,15.64804c-0.1856,0.21694 -8.58209,2.995 -13.2969,6.82397c-7.79367,6.32933 -11.26875,12.65802 -11.26875,12.65802z" fill="#000000" stroke="#000000" stroke-width="1.5"/><path d="M289.18948,106.28023c0,0 -3.47506,-6.32869 -11.26875,-12.65802c-4.71481,-3.82895 -13.11127,-6.60703 -13.2969,-6.82397c-0.53325,-0.6233 -5.49002,-15.64802 -5.49002,-15.64802c0,0 13.82947,0.94248 26.36588,10.4893c15.32623,11.67134 18.91282,24.6407 18.91282,24.6407z" data-paper-data="{&quot;index&quot;:null}" fill="#000000" stroke="#000000" stroke-width="1.5"/><path d="M288.40881,146.4846l-5.07435,-14.83268h39.42367l-11.71001,14.83268c0,0 -4.97019,23.42 -15.223,28.88467c-0.08652,0.04611 -6.1005,-15.86021 -5.91506,-15.98909c3.91977,-2.7246 6.81196,-12.89556 5.91506,-12.89556c-2.91181,0 -7.41633,0 -7.41633,0z" fill="#000000" stroke="#000000" stroke-width="1.5"/><path d="M200.19348,146.4846c-0.89688,0 1.99531,10.17097 5.91506,12.89556c0.18542,0.12892 -5.82856,16.0352 -5.91506,15.98909c-10.25283,-5.46467 -15.223,-28.88467 -15.223,-28.88467l-11.71001,-14.83268h39.42367l-5.07435,14.83268c0,0 -4.50451,0 -7.41633,0z" data-paper-data="{&quot;index&quot;:null}" fill="#000000" stroke="#000000" stroke-width="1.5"/><path d="M83.76286,234.83876l4.5539,-14.31221h81.97003l-3.90334,14.31221z" fill="#000000" stroke="#000000" stroke-width="1.5"/><path d="M94.78163,238.12708l6.34292,-21.95627h14.14959l-6.34292,21.95627z" fill="#000000" stroke="#000000" stroke-width="1.5"/><path d="M142.35353,238.12708l6.34292,-21.95627h14.14959l-6.34292,21.95627z" fill="#000000" stroke="#000000" stroke-width="1.5"/><path d="M115.6401,248.66308l4.46098,-12.26765h13.66167l-3.62453,12.26765z" fill="#000000" stroke="#000000" stroke-width="1.5"/><path d="M81.62532,252.28762l10.31599,-11.15239h73.60572l-3.62453,11.15239z" fill="#000000" stroke="#000000" stroke-width="1.5"/><path d="M83.96647,266.99261c-0.34841,-0.73604 -0.38252,-2.0512 -0.32651,-2.68604c0.06258,-0.70901 3.8404,-14.52825 3.8404,-14.52825c0,0 8.44042,-2.7881 13.38284,-2.7881c0.84043,0 -2.49758,10.59476 -1.67285,10.59476c12.86063,0 61.89575,0 61.89575,0l-3.34574,11.15239c0,0 -65.59317,0 -70.83057,0c-0.65339,0 -2.15004,-0.0689 -2.94332,-1.74478z" fill="#000000" stroke="#000000" stroke-width="1.5"/><path d="M62.97369,303.8136c0,0 9.48235,-10.27135 9.60444,-10.41205c0.62122,-0.71597 12.33322,0.14589 13.1447,-0.78937c0.05736,-0.06613 1.8326,-0.38659 2.28634,-1.99827c0.21004,-0.74595 3.7516,-19.97862 3.7516,-19.97862h11.95396c0,0 -3.96273,23.3383 -4.12655,23.80287c-3.26117,9.24763 -11.48678,9.37546 -11.48678,9.37546z" fill="#000000" stroke="#000000" stroke-width="1.5"/><path d="M107.86207,288.6882l3.65938,-18.05293h12.44189l-3.17146,18.05293z" fill="#000000" stroke="#000000" stroke-width="1.5"/><path d="M132.98976,288.44422c0,0 -3.17146,-0.73732 -2.68356,-4.87916c0.03745,-0.3179 2.68356,-13.17376 2.68356,-13.17376c0,0 11.29766,-0.01363 11.62556,0.0736c0.37495,0.09973 -2.31819,6.74933 -1.75384,7.02482c0.17014,0.08305 11.59665,0.22037 11.59665,0.22037l-1.70771,10.73416z" fill="#000000" stroke="#000000" stroke-width="1.5"/><path d="M77.24526,214.35702l1.46376,-4.39124h180.04129l-1.46376,4.39124z" fill="#000000" stroke="#000000" stroke-width="1.5"/><path d="M172.87696,233.87372v-11.22209h38.05752v11.22209z" fill="#000000" stroke="#000000" stroke-width="1.5"/><path d="M160.02847,272.66316l12.68582,-49.44225h11.71001l-13.0111,49.44225z" fill="#000000" stroke="#000000" stroke-width="1.5"/><path d="M185.94229,273.18981c0,0 6.25392,-6.0197 7.30174,-10.10352c2.21827,-8.6456 10.3717,-40.42299 10.3717,-40.42299h11.71001c0,0 -8.3895,31.88006 -10.6604,40.50951c-0.41573,1.57973 -1.02767,5.4628 -6.56505,8.39715c-5.79111,3.06876 -12.15794,1.61984 -12.15794,1.61984z" fill="#000000" stroke="#000000" stroke-width="1.5"/><path d="M173.9612,253.8716v-11.49314h29.49187v11.49314z" fill="#000000" stroke="#000000" stroke-width="1.5"/><path d="M159.69236,273.38828l3.12267,-11.49314h33.91565l-6.07186,11.49314z" fill="#000000" stroke="#000000" stroke-width="1.5"/><path d="M170.67711,297.84373l15.223,-60.50167l8.58732,-1.17101l-13.66167,61.67268z" fill="#000000" stroke="#000000" stroke-width="1.5"/><path d="M156.6251,288.86607l2.342,-11.31967h42.54634l-2.73232,11.31967z" fill="#000000" stroke="#000000" stroke-width="1.5"/><path d="M105.10108,304.08905l1.95166,-10.92932h103.43837v10.92932z" fill="#000000" stroke="#000000" stroke-width="1.5"/><path d="M207.36845,259.9814l2.73232,-11.71001h35.91067l-2.342,11.71001c0,0 -2.05665,15.223 -17.95535,24.59101c-0.08842,0.0521 5.20103,-24.59101 5.07435,-24.59101c-6.64851,0 -23.42,0 -23.42,0z" fill="#000000" stroke="#000000" stroke-width="1.5"/><path d="M180.32391,304.08905c0,0 13.90611,-8.07486 22.63678,-10.00186c3.46946,-0.76576 4.09325,-2.35968 4.44221,-3.56167c2.59075,-8.92369 10.11421,-34.83782 10.11421,-34.83782l10.81781,1.17101c0,0 -8.64664,32.54989 -10.73148,40.39806c-0.85737,3.22756 -4.72627,6.8323 -7.27961,6.8323c-5.98257,0 -29.99992,0 -29.99992,0z" fill="#000000" stroke="#000000" stroke-width="1.5"/><path d="M214.34916,232.79344l2.43958,-10.0023h35.13001c0,0 -1.01703,8.8346 -1.271,9.23821c-0.30473,0.48422 -16.53796,19.06096 -16.53796,19.06096c0,0 -13.45139,0.15494 -19.03984,-1.20258c-0.00227,-0.00055 -3.87644,-11.4678 -3.87332,-11.47515c0.02009,-0.04721 9.59638,0.16303 9.88732,-0.0359c0.10975,-0.07502 2.33057,4.90694 2.29168,4.90694c-0.2156,0 8.46217,-10.49023 8.05062,-10.49023c-5.95163,0 -17.0771,0 -17.0771,0z" fill="#000000" stroke="#000000" stroke-width="1.5"/><path d="M235.52125,305.10966l1.46376,-4.39124h180.04129l-1.46376,4.39124z" fill="#000000" stroke="#000000" stroke-width="1.5"/><path d="M244.17131,294.66667c0,0 8.63032,-35.76415 8.77649,-36.20057c0.00349,-0.01037 -5.95903,-0.04205 -5.93954,-0.08383c0.1519,-0.32554 2.18091,-11.09527 2.39653,-11.4867c0.01152,-0.02094 5.0522,0.09422 5.206,-0.04095c0.06895,-0.06059 1.46882,0.20025 2.39464,-1.00513c2.81859,-3.66962 7.51895,-11.96333 7.51895,-11.96333h14.77692c0,0 -11.10745,18.45878 -11.22054,18.75948c-0.21893,0.58199 -11.64187,42.02103 -11.64187,42.02103z" fill="#000000" stroke="#000000" stroke-width="1.5"/><path d="M253.82542,235.63161c0,0 2.38619,-11.88827 2.51781,-12.08154c0.03514,-0.05161 1.77473,0.08661 3.32308,-0.16542c1.05015,-0.17091 2.01237,-0.68353 2.29522,-0.93093c0.335,-0.29304 8.52809,-11.293 8.52809,-11.293h13.51155c0,0 -13.92673,21.03423 -15.28637,22.1368c-0.44772,0.36306 -1.76085,1.84896 -4.47806,2.24449c-0.33994,0.04948 -10.41137,0.08959 -10.41137,0.08959z" fill="#000000" stroke="#000000" stroke-width="1.5"/><path d="M289.08673,220.53673l1.46376,-9.27043c0,0 72.04313,0 82.15204,0c2.28823,0 2.08014,-2.30652 2.08014,-2.30652l11.60863,-0.00636c0,0 -1.04927,4.89842 -4.31122,8.25821c-3.47904,3.58342 -7.17807,3.32507 -7.98351,3.32507c-8.72545,0 -85.00984,0 -85.00984,0z" fill="#000000" stroke="#000000" stroke-width="1.5"/><path d="M283.32083,238.5388l1.95166,-10.08359h41.31029l-13.98695,56.27305c0,0 -1.19934,3.84066 -3.73618,6.3454c-1.93314,1.90867 -5.18853,2.63241 -6.07358,2.69589c-0.6259,0.04486 -34.99907,0.25589 -35.42118,0.20203c-0.03919,-0.00502 9.52149,-10.52851 9.47432,-10.57707c-0.54533,-0.56153 23.6843,0.34646 23.27106,-0.56099c-0.06849,-0.15045 11.3635,-44.29469 10.85912,-44.29469c-7.90844,0 -27.64862,0 -27.64862,0z" fill="#000000" stroke="#000000" stroke-width="1.5"/><path d="M340.06532,222.95241h25.07787v10.0673c-0.09224,0.01384 -24.95103,-0.06895 -25.07785,-0.08832z" fill="#000000" stroke="#000000" stroke-width="1.5"/><path d="M340.06532,244.0305v-7.8019c0.01201,0.00162 24.8667,0.05113 25.18143,0.00685l-0.10357,7.79505z" fill="#000000" stroke="#000000" stroke-width="1.5"/><path d="M335.09984,293.60282l17.17468,-75.33435h11.31967l-16.00369,75.33435z" fill="#000000" stroke="#000000" stroke-width="1.5"/><path d="M333.53848,258.47283v-9.75833h36.30102v9.75833z" fill="#000000" stroke="#000000" stroke-width="1.5"/><path d="M327.29315,269.79252v-8.197h38.25268v8.197z" fill="#000000" stroke="#000000" stroke-width="1.5"/><path d="M359.88603,265.43144l5.70224,-29.17732c1.82959,0.03867 11.19655,-0.03717 14.02767,0.04687l-5.48277,28.56239c0,0 -2.91908,5.33001 -10.09915,4.67216c-2.21278,-0.20275 -4.14803,-4.10408 -4.14803,-4.10408z" fill="#000000" stroke="#000000" stroke-width="1.5"/><path d="M367.88783,222.95241h14.05199l-2.16564,10.26563c-2.88397,-0.0768 -5.77681,-0.20865 -8.68578,-0.2087c-1.7829,0 -3.55995,-0.01694 -5.33441,-0.05036z" fill="#000000" stroke="#000000" stroke-width="1.5"/><path d="M321.8285,269.69494c0,0 6.02456,-24.92967 8.07363,-33.50944c0.00183,-0.00766 13.54719,0.01086 13.5467,0.01303c-1.978,8.5834 -7.76346,33.49641 -7.76346,33.49641z" fill="#000000" stroke="#000000" stroke-width="1.5"/><path d="M330.65324,232.74456c1.11854,-4.68345 2.29978,-9.62946 2.29978,-9.62946h13.46651c0,0 -1.14018,4.9477 -2.22345,9.64842c-0.0166,0.07203 -13.56159,0.05955 -13.54284,-0.01896z" fill="#000000" stroke="#000000" stroke-width="1.5"/><path d="M318.4915,282.5627l2.68356,-9.27043h48.30377l-2.19563,9.27043z" fill="#000000" stroke="#000000" stroke-width="1.5"/><path d="M315.07607,294.27272l2.68356,-9.51438h56.59835v9.51438z" fill="#000000" stroke="#000000" stroke-width="1.5"/><path d="M384.36026,225.7204l2.43958,-10.0023h26.59148v10.0023z" fill="#000000" stroke="#000000" stroke-width="1.5"/><path d="M388.26362,284.75834l16.10127,-69.04024h11.71001l-16.58918,71.72377c0,0 -3.76771,9.30658 -17.21762,7.93203c-0.13205,-0.01349 1.44112,-8.80683 2.03336,-9.89369c0.02229,-0.04092 0.67175,0.07758 1.43864,-0.05747c1.13354,-0.19967 2.52356,-0.66438 2.52356,-0.66438z" fill="#000000" stroke="#000000" stroke-width="1.5"/><path d="M366.03525,292.91647c0,0 -3.49712,-0.91907 -1.267,-5.42238c0.55042,-1.11148 7.69032,-3.45867 8.09203,-4.66378c4.79189,-14.37575 21.81946,-74.04571 21.81946,-74.04571l9.56317,-0.39034l-21.85869,79.23768c0,0 -2.24414,6.49029 -8.25442,6.62263c-1.87188,0.04122 -8.09455,-1.33814 -8.09455,-1.33814z" fill="#000000" stroke="#000000" stroke-width="1.5"/><path d="M83.83255,234.76907l4.5539,-14.31221h81.97003l-3.90334,14.31221z" fill="#ffffff" stroke="none" stroke-width="0"/><path d="M94.85132,238.0574l6.34292,-21.95627h14.14959l-6.34292,21.95627z" fill="#ffffff" stroke="none" stroke-width="0"/><path d="M142.42322,238.0574l6.34292,-21.95627h14.14959l-6.34292,21.95627z" fill="#ffffff" stroke="none" stroke-width="0"/><path d="M115.70979,248.59338l4.46098,-12.26765h13.66167l-3.62453,12.26765z" fill="#ffffff" stroke="none" stroke-width="0"/><path d="M81.69503,252.21791l10.31599,-11.15239h73.60572l-3.62453,11.15239z" fill="#ffffff" stroke="none" stroke-width="0"/><path d="M84.03616,266.9229c-0.34841,-0.73604 -0.38252,-2.0512 -0.32651,-2.68604c0.06258,-0.70901 3.8404,-14.52825 3.8404,-14.52825c0,0 8.44042,-2.7881 13.38284,-2.7881c0.84043,0 -2.49758,10.59476 -1.67285,10.59476c12.86063,0 61.89575,0 61.89575,0l-3.34574,11.15239c0,0 -65.59317,0 -70.83057,0c-0.65339,0 -2.15004,-0.0689 -2.94332,-1.74478z" fill="#ffffff" stroke="none" stroke-width="0"/><path d="M63.04342,303.7439c0,0 9.48235,-10.27135 9.60444,-10.41205c0.62122,-0.71597 12.33322,0.14589 13.1447,-0.78937c0.05736,-0.06613 1.8326,-0.38659 2.28634,-1.99827c0.21004,-0.74595 3.7516,-19.97862 3.7516,-19.97862h11.95396c0,0 -3.96273,23.3383 -4.12655,23.80287c-3.26117,9.24763 -11.48678,9.37546 -11.48678,9.37546z" fill="#ffffff" stroke="none" stroke-width="0"/><path d="M107.93176,288.61846l3.65938,-18.05293h12.44189l-3.17146,18.05293z" fill="#ffffff" stroke="none" stroke-width="0"/><path d="M133.05947,288.37451c0,0 -3.17146,-0.73732 -2.68356,-4.87916c0.03745,-0.3179 2.68356,-13.17376 2.68356,-13.17376c0,0 11.29766,-0.01363 11.62556,0.0736c0.37495,0.09973 -2.31819,6.74933 -1.75384,7.02482c0.17014,0.08305 11.59665,0.22037 11.59665,0.22037l-1.70771,10.73416z" fill="#ffffff" stroke="none" stroke-width="0"/><path d="M77.31497,214.28735l1.46376,-4.39124h180.04129l-1.46376,4.39124z" fill="#ffffff" stroke="none" stroke-width="0"/><path d="M172.94665,233.80403v-11.22209h38.05752v11.22209z" fill="#ffffff" stroke="none" stroke-width="0"/><path d="M160.09819,272.59347l12.68582,-49.44225h11.71001l-13.0111,49.44225z" fill="#ffffff" stroke="none" stroke-width="0"/><path d="M186.01198,273.12008c0,0 6.25392,-6.0197 7.30174,-10.10352c2.21827,-8.6456 10.3717,-40.42299 10.3717,-40.42299h11.71001c0,0 -8.3895,31.88006 -10.6604,40.50951c-0.41573,1.57973 -1.02767,5.4628 -6.56505,8.39715c-5.79111,3.06876 -12.15794,1.61984 -12.15794,1.61984z" fill="#ffffff" stroke="none" stroke-width="0"/><path d="M174.03089,253.80188v-11.49314h29.49187v11.49314z" fill="#ffffff" stroke="none" stroke-width="0"/><path d="M159.76205,273.31855l3.12267,-11.49314h33.91565l-6.07186,11.49314z" fill="#ffffff" stroke="none" stroke-width="0"/><path d="M170.74678,297.77404l15.223,-60.50167l8.58732,-1.17101l-13.66167,61.67268z" fill="#ffffff" stroke="none" stroke-width="0"/><path d="M156.69479,288.79633l2.342,-11.31967h42.54634l-2.73232,11.31967z" fill="#ffffff" stroke="none" stroke-width="0"/><path d="M105.17079,304.01936l1.95166,-10.92932h103.43837v10.92932z" fill="#ffffff" stroke="none" stroke-width="0"/><path d="M207.43814,259.91166l2.73232,-11.71001h35.91067l-2.342,11.71001c0,0 -2.05665,15.223 -17.95535,24.59101c-0.08842,0.0521 5.20103,-24.59101 5.07435,-24.59101c-6.64851,0 -23.42,0 -23.42,0z" fill="#ffffff" stroke="none" stroke-width="0"/><path d="M180.39362,304.01936c0,0 13.90611,-8.07486 22.63678,-10.00186c3.46946,-0.76576 4.09325,-2.35968 4.44221,-3.56167c2.59075,-8.92369 10.11421,-34.83782 10.11421,-34.83782l10.81781,1.17101c0,0 -8.64664,32.54989 -10.73148,40.39806c-0.85737,3.22756 -4.72627,6.8323 -7.27961,6.8323c-5.98257,0 -29.99992,0 -29.99992,0z" fill="#ffffff" stroke="none" stroke-width="0"/><path d="M214.41884,232.72377l2.43958,-10.0023h35.13001c0,0 -1.01703,8.8346 -1.271,9.23821c-0.30473,0.48422 -16.53796,19.06096 -16.53796,19.06096c0,0 -13.45139,0.15494 -19.03984,-1.20258c-0.00227,-0.00055 -3.87644,-11.4678 -3.87332,-11.47515c0.02009,-0.04721 9.59638,0.16303 9.88732,-0.0359c0.10975,-0.07502 2.33057,4.90694 2.29168,4.90694c-0.2156,0 8.46217,-10.49023 8.05062,-10.49023c-5.95163,0 -17.0771,0 -17.0771,0z" fill="#ffffff" stroke="none" stroke-width="0"/><path d="M235.41487,305.03992l1.46376,-4.39124h180.04129l-1.46376,4.39124z" fill="#ffffff" stroke="none" stroke-width="0"/><path d="M244.24103,294.59696c0,0 8.63032,-35.76415 8.77649,-36.20057c0.00349,-0.01037 -5.95903,-0.04205 -5.93954,-0.08383c0.1519,-0.32554 2.18091,-11.09527 2.39653,-11.4867c0.01152,-0.02094 5.0522,0.09422 5.206,-0.04095c0.06895,-0.06059 1.46882,0.20025 2.39464,-1.00513c2.81859,-3.66962 7.51895,-11.96333 7.51895,-11.96333h14.77692c0,0 -11.10745,18.45878 -11.22054,18.75948c-0.21893,0.58199 -11.64187,42.02103 -11.64187,42.02103z" fill="#ffffff" stroke="none" stroke-width="0"/><path d="M253.89511,235.56192c0,0 2.38619,-11.88827 2.51781,-12.08154c0.03514,-0.05161 1.77473,0.08661 3.32308,-0.16542c1.05015,-0.17091 2.01237,-0.68353 2.29522,-0.93093c0.335,-0.29304 8.52809,-11.293 8.52809,-11.293h13.51155c0,0 -13.92673,21.03423 -15.28637,22.1368c-0.44772,0.36306 -1.76085,1.84896 -4.47806,2.24449c-0.33994,0.04948 -10.41137,0.08959 -10.41137,0.08959z" fill="#ffffff" stroke="none" stroke-width="0"/><path d="M289.15642,220.46693l1.46376,-9.27043c0,0 72.04313,0 82.15204,0c2.28823,0 2.08014,-2.30652 2.08014,-2.30652l11.60863,-0.00636c0,0 -1.04927,4.89842 -4.31122,8.25821c-3.47904,3.58342 -7.17807,3.32507 -7.98351,3.32507c-8.72545,0 -85.00984,0 -85.00984,0z" fill="#ffffff" stroke="none" stroke-width="0"/><path d="M283.39052,238.46912l1.95166,-10.08359h41.31029l-13.98695,56.27305c0,0 -1.19934,3.84066 -3.73618,6.3454c-1.93314,1.90867 -5.18853,2.63241 -6.07358,2.69589c-0.6259,0.04486 -34.99907,0.25589 -35.42118,0.20203c-0.03919,-0.00502 9.52149,-10.52851 9.47432,-10.57707c-0.54533,-0.56153 23.6843,0.34646 23.27106,-0.56099c-0.06849,-0.15045 11.3635,-44.29469 10.85912,-44.29469c-7.90844,0 -27.64862,0 -27.64862,0z" fill="#ffffff" stroke="none" stroke-width="0"/><path d="M333.21787,243.96076c0,0 0,-6.21504 0,-7.68896c0,-0.06981 15.94439,-0.07958 15.94439,-0.09781c0,-0.62351 1.47296,-2.51041 0.97884,-3.27526c-0.00822,-0.01273 -11.34131,-0.00602 -11.37079,-0.03428c-4.43848,-4.25593 -5.55242,-9.98168 -5.55242,-9.98168h42.93668c0,0 2.16591,5.91177 -3.10478,10.34191c-0.02535,0.0213 -15.2599,0.12177 -15.26725,0.12964c-0.75121,0.80559 -1.97418,2.33673 -1.97418,2.98475c0,0.001 20.34619,-0.00695 20.34619,0c0,2.8992 0,7.6217 0,7.6217z" fill="#ffffff" stroke="none" stroke-width="0"/><path d="M335.16953,293.53313l17.17468,-75.33435h11.31967l-16.00369,75.33435z" fill="#ffffff" stroke="none" stroke-width="0"/><path d="M333.6082,258.4031v-9.75833h36.30102v9.75833z" fill="#ffffff" stroke="none" stroke-width="0"/><path d="M327.36284,269.72278v-8.197h38.25268v8.197z" fill="#ffffff" stroke="none" stroke-width="0"/><path d="M359.95571,265.23396c0,0 4.02108,-21.02148 5.49795,-28.83806c0.00051,-0.00271 14.03778,-0.04134 14.03192,-0.00997c-1.4394,7.70076 -5.28271,28.26252 -5.28271,28.26252c0,0 -2.91908,5.49372 -10.09915,4.81566c-2.21278,-0.20898 -4.14803,-4.23013 -4.14803,-4.23013z" fill="#ffffff" stroke="none" stroke-width="0"/><path d="M366.03093,233.27525c0.91405,-4.83778 1.92661,-10.39254 1.92661,-10.39254h14.05199c0,0 -1.00298,5.49631 -1.91284,10.36416c-0.00424,0.02264 -14.07624,0.08388 -14.06574,0.02838z" fill="#ffffff" stroke="none" stroke-width="0"/><path d="M321.89821,269.62523c0,0 5.47215,-22.64856 8.0638,-33.5001c0.00053,-0.00222 13.50902,0.01752 13.50571,0.0319c-1.97936,8.58928 -7.71263,33.46822 -7.71263,33.46822z" fill="#ffffff" stroke="none" stroke-width="0"/><path d="M330.76466,232.94036c1.00048,-4.18913 2.25805,-9.89493 2.25805,-9.89493h13.46651c0,0 -2.28344,9.82068 -2.30231,9.9026c-0.05511,-0.00202 -13.42547,0.00583 -13.42225,-0.00768z" fill="#ffffff" stroke="none" stroke-width="0"/><path d="M318.56119,282.49301l2.68356,-9.27043h48.30377l-2.19563,9.27043z" fill="#ffffff" stroke="none" stroke-width="0"/><path d="M315.14576,294.20298l2.68356,-9.51438h56.59835v9.51438z" fill="#ffffff" stroke="none" stroke-width="0"/><path d="M384.42997,225.65069l2.43958,-10.0023h26.59148v10.0023z" fill="#ffffff" stroke="none" stroke-width="0"/><path d="M388.33331,284.68858l16.10127,-69.04024h11.71001l-16.58918,71.72377c0,0 -3.76771,9.30658 -17.21762,7.93203c-0.13205,-0.01349 1.44112,-8.80683 2.03336,-9.89369c0.02229,-0.04092 0.67175,0.07758 1.43864,-0.05747c1.13354,-0.19967 2.52356,-0.66438 2.52356,-0.66438z" fill="#ffffff" stroke="none" stroke-width="0"/><path d="M366.10494,292.84676c0,0 -3.49712,-0.91907 -1.267,-5.42238c0.55042,-1.11148 7.69032,-3.45867 8.09203,-4.66378c4.79189,-14.37575 21.81946,-74.04571 21.81946,-74.04571l9.56317,-0.39034l-21.85869,79.23768c0,0 -2.24414,6.49029 -8.25442,6.62263c-1.87188,0.04122 -8.09455,-1.33814 -8.09455,-1.33814z" fill="#ffffff" stroke="none" stroke-width="0"/><path d="M195.72816,203.21705l50.74334,-148.32671l21.46834,58.55001c0,0 -12.12538,10.91365 -12.22164,10.87613c-0.26712,-0.10411 -8.37904,-18.84721 -8.42032,-18.7959c-0.72128,0.89676 -15.65124,45.05124 -16.06991,45.71645c-0.0153,0.0243 44.03609,-38.97592 45.94425,-40.0363c0.06749,-0.0375 55.09053,0.18905 55.24775,0.18363c0.79853,-0.02756 3.72142,-2.98697 4.70583,-3.48112c2.49416,-1.25202 3.12147,-0.78088 3.19183,-0.6564c0.17503,0.30964 -13.02911,19.06317 -13.40626,19.26c-0.05106,0.02664 -45.08047,0.0531 -45.19057,0.20174c-1.74004,2.34918 -32.59072,29.63331 -56.84719,50.95743c-0.43224,0.37998 9.82872,7.15249 24.23668,6.70743c12.19484,-0.37669 21.52315,-7.82785 21.14319,-7.494c-0.0109,0.00958 -18.48221,-15.73287 -18.52808,-16.24294c-0.04166,-0.4633 9.12934,-8.48113 9.41518,-8.46587c1.52148,0.08128 7.40427,5.33489 7.39397,5.19112c-0.13419,-1.86951 -2.05227,-10.10062 -1.75735,-9.85093c0.24779,0.20981 9.87663,-9.00761 10.09241,-8.57598c1.27864,2.55767 22.03158,62.50665 22.42389,63.80966c0.12878,0.42775 -17.66833,-15.76594 -17.72274,-15.73421c-12.33667,7.19346 -18.46165,9.69679 -32.70165,10.47447c-21.62761,1.18111 -34.49131,-10.60133 -34.733,-10.38929c-10.7487,9.42976 -18.40784,16.12164 -18.40784,16.12164z" fill="#ffef66" stroke="none" stroke-width="0"/><path d="M168.96677,126.18726c0,0 -12.69287,-16.75165 -13.45989,-18.24909c-1.47223,-2.87434 5.26289,2.24542 5.26289,2.24542h58.15968l-5.07435,16.00369z" fill="#ffef66" stroke="none" stroke-width="0"/><path d="M190.43511,106.28023c0,0 3.58657,-12.96934 18.91282,-24.6407c12.53641,-9.54685 26.36588,-10.4893 26.36588,-10.4893c0,0 -4.95677,15.02472 -5.49002,15.64804c-0.1856,0.21694 -8.58209,2.995 -13.2969,6.82397c-7.79367,6.32933 -11.26875,12.65802 -11.26875,12.65802z" fill="#ffffff" stroke="none" stroke-width="0"/><path d="M289.18948,106.28023c0,0 -3.47506,-6.32869 -11.26875,-12.65802c-4.71481,-3.82895 -13.11127,-6.60703 -13.2969,-6.82397c-0.53325,-0.6233 -5.49002,-15.64802 -5.49002,-15.64802c0,0 13.82947,0.94248 26.36588,10.4893c15.32623,11.67134 18.91282,24.6407 18.91282,24.6407z" data-paper-data="{&quot;index&quot;:null}" fill="#ffffff" stroke="none" stroke-width="0"/><path d="M288.40881,146.4846l-5.07435,-14.83268h39.42367l-11.71001,14.83268c0,0 -4.97019,23.42 -15.223,28.88467c-0.08652,0.04611 -6.1005,-15.86021 -5.91506,-15.98909c3.91977,-2.7246 6.81196,-12.89556 5.91506,-12.89556c-2.91181,0 -7.41633,0 -7.41633,0z" fill="#ffffff" stroke="none" stroke-width="0"/><path d="M200.19348,146.4846c-0.89688,0 1.99531,10.17097 5.91506,12.89556c0.18542,0.12892 -5.82856,16.0352 -5.91506,15.98909c-10.25283,-5.46467 -15.223,-28.88467 -15.223,-28.88467l-11.71001,-14.83268h39.42367l-5.07435,14.83268c0,0 -4.50451,0 -7.41633,0z" data-paper-data="{&quot;index&quot;:null}" fill="#ffffff" stroke="none" stroke-width="0"/></g></g></svg>