<svg version="1.1" xmlns="http://www.w3.org/2000/svg" xmlns:xlink="http://www.w3.org/1999/xlink" width="94.40525" height="117.41958" viewBox="0,0,94.40525,117.41958"><defs><linearGradient x1="225.16982" y1="168.71937" x2="264.43429" y2="143.46751" gradientUnits="userSpaceOnUse" id="color-1"><stop offset="0" stop-color="#4f4b42"/><stop offset="1" stop-color="#ffd5ea"/></linearGradient></defs><g transform="translate(-192.85738,-121.3502)"><g data-paper-data="{&quot;isPaintingLayer&quot;:true}" stroke-miterlimit="10" stroke-dasharray="" stroke-dashoffset="0" style="mix-blend-mode: normal"><g fill-rule="evenodd"><path d="M238.14599,206.09592c0.88923,-0.0963 2.80588,-0.25889 2.62641,3.89897c-0.17947,4.15786 -5.60426,8.47893 -6.27712,8.91166c-2.55325,1.76095 -5.74934,3.81643 -10.03914,4.91076c-12.4248,3.23486 -19.5949,-7.72915 -17.45063,-11.60498c2.06017,-3.82174 7.87142,2.07143 15.14783,3.21767c3.2086,0.55217 6.08045,-0.34362 8.3695,-1.22128c3.18421,-1.33447 6.59573,-8.04651 7.62316,-8.1128z" fill="#ff6666" stroke="#001026" stroke-width="1.2" stroke-linecap="round" stroke-linejoin="round"/><path d="M212.90586,212.69791c2.8062,1.40544 7.46901,2.9247 7.46901,2.9247c0,0 -3.59881,1.24442 -4.44551,3.81017c-0.72664,2.01296 0.7998,3.64696 1.34666,4.12753c-1.79659,-0.39021 -4.11596,-1.03868 -6.85024,-3.44154c-2.73428,-2.40285 -4.16505,-6.47629 -2.80745,-8.06277c1.46579,-1.41826 2.6977,-0.4271 5.28753,0.64191z" fill="#ffffff" stroke="none" stroke-width="1" stroke-linecap="butt" stroke-linejoin="miter"/></g><path d="M247.97689,212.13855c-0.86484,1.98294 -3.69949,9.03736 -8.99171,15.41328l-0.28234,0.30047c-0.28234,0.30047 -0.1801,0.8292 0.20448,1.05744c2.72803,1.09903 7.93176,3.45936 4.2254,7.86423c-3.53815,4.29668 -19.49172,-2.20744 -17.96059,-7.59127c0.84076,-2.20525 2.64924,-2.53605 3.62257,-2.68644c0.52872,-0.10224 0.94926,-0.3727 1.31571,-0.72727c0.79293,-0.98553 2.21056,-2.84841 3.15357,-4.52493c2.42662,-4.17631 2.78087,-5.47419 3.65165,-7.81764c0.87078,-2.34345 2.73835,-7.94364 7.58126,-7.25358c4.15192,0.53998 4.26073,4.03686 3.47999,5.96571z" fill="#ff6666" fill-rule="evenodd" stroke="#001026" stroke-width="1.2" stroke-linecap="round" stroke-linejoin="round"/><path d="M250.09897,186.04359c0.6369,0.06597 9.66207,2.82214 10.37057,0.22637c0.88266,-3.06446 1.44046,-8.2979 6.25336,-7.46964c4.8129,0.82826 2.1227,9.21651 0.49495,12.04678c-4.12659,6.33966 -12.02802,4.40643 -13.90278,3.70981c-1.87476,-0.69662 -5.10149,-1.83161 -6.50787,-4.01841c-1.43046,-2.40911 1.05056,-4.83697 3.29177,-4.49491z" fill="#ff6666" fill-rule="evenodd" stroke="#001026" stroke-width="1.2" stroke-linecap="round" stroke-linejoin="round"/><g fill-rule="evenodd"><path d="M262.78641,205.58659c2.794,0.46212 8.77253,1.25411 8.77253,1.25411c0,0 10.67511,-9.83779 14.5697,-3.78203c2.32594,3.61663 -3.1889,8.3523 -11.83417,12.84221c-0.55874,0.24044 -1.17157,0.39678 -1.80847,0.3308c-2.87811,-0.40803 -11.20602,-1.71029 -16.6799,-2.82683c-8.09966,-1.68684 -14.27642,-2.23245 -14.27642,-2.23245c-11.63875,-2.38316 -7.72853,-9.05924 -8.05401,-14.55688c-0.11506,-4.8007 1.24286,-4.72285 6.93842,-6.95905c3.13012,-1.41857 4.97455,-2.24808 6.77083,-3.5222c2.72146,-1.86913 4.81321,2.49259 5.40853,5.08211c0,0 0.82388,3.86927 0.75822,6.1705c-0.10162,2.79994 -0.29954,4.71066 -0.822,6.11672z" fill="#ff6666" stroke="#001026" stroke-width="1.2" stroke-linecap="round" stroke-linejoin="round"/><path d="M251.71859,203.90631c0,0 -1.91071,-0.19792 -4.06781,-0.59407c-2.6558,-0.43211 -5.14933,-0.61189 -5.14401,-4.30106c0.21574,-2.99223 -0.08536,-6.60324 5.26814,-6.59823c5.0771,-0.05503 4.83135,3.0754 4.83135,3.0754c0.58375,4.97486 -0.88766,8.41796 -0.88766,8.41796z" fill="#ffffff" stroke="none" stroke-width="1" stroke-linecap="butt" stroke-linejoin="miter"/></g><path d="M234.58282,205.17731c3.36493,1.165 8.1178,2.26966 6.06982,7.03472c-3.17733,5.96696 -12.70776,0.20667 -15.44205,-2.19618c-2.43381,-2.12051 -1.32884,-5.20905 -0.39803,-7.82889c1.93979,-4.93328 3.45311,-9.23559 7.62879,-10.13763c5.17903,-1.19064 4.31482,4.12096 3.18577,6.98719c-0.66661,1.73656 -1.27912,3.55722 -1.82567,4.74098c0.01813,0.58281 0.25858,1.14155 0.78136,1.39981z" fill="#ff6666" fill-rule="evenodd" stroke="#001026" stroke-width="1.2" stroke-linecap="round" stroke-linejoin="round"/><g fill-rule="evenodd"><path d="M224.61903,131.44988c0.14414,-0.33049 0.61877,-0.51684 0.91924,-0.2345l7.9746,7.59314c0,0 7.9252,0.4912 11.30826,2.23902c5.66648,2.89499 8.18471,6.62575 8.18471,6.62575c0,0 7.10757,-2.07424 11.20008,2.0708c4.09251,4.14504 6.23366,15.6087 -7.5772,28.8899c-13.81086,13.2812 -29.26979,17.15953 -41.40787,11.41176c-12.13808,-5.74778 -10.07448,-23.24468 -10.14639,-22.24726l-11.44865,-13.91935c-0.30047,-0.28234 -0.04221,-0.80512 0.4024,-0.85327l14.45026,0.09943c0,0 2.86529,-3.86395 6.71017,-6.57447c2.24683,-1.68278 4.3736,-2.81276 6.52444,-3.72044z" fill="#ff6666" stroke="#001026" stroke-width="1.2" stroke-linecap="butt" stroke-linejoin="miter"/><path d="M252.96989,148.17199c0,0 6.77708,-2.21838 10.86959,1.92666c4.09251,4.14504 5.62677,15.40453 -8.06996,28.49343c-17.64948,17.29554 -35.11105,11.40456 -35.20954,-1.13498c-0.15258,-12.62366 14.44213,-11.19039 21.18263,-16.23872c5.7853,-4.31513 3.05039,-10.04665 11.22728,-13.04638z" fill="#ffffff" stroke="none" stroke-width="1" stroke-linecap="butt" stroke-linejoin="miter"/><path d="M232.26376,174.21036c-0.21637,-0.33643 -0.04221,-0.80512 0.34831,-0.93738c1.97669,-0.43899 7.38397,-2.01421 12.64679,-4.92327c4.70409,-2.66862 7.23326,-4.65187 8.3326,-5.71557c0.36645,-0.35457 0.97334,-0.15039 1.07558,0.37833c0.7035,2.75773 1.56428,11.12129 -7.59158,16.29626c-8.19472,4.08126 -12.41354,-0.81481 -14.81171,-5.09836z" fill="#ffffff" stroke="#001026" stroke-width="1.2" stroke-linecap="round" stroke-linejoin="round"/><path d="M269.04071,139.14433c-1.89758,5.7384 -7.89924,9.7171 -7.89924,9.7171" fill="none" stroke="#001026" stroke-width="1.2" stroke-linecap="round" stroke-linejoin="round"/><path d="M274.00556,149.26758c-5.02833,3.82831 -9.33627,4.33983 -9.33627,4.33983" fill="none" stroke="#001026" stroke-width="1.2" stroke-linecap="round" stroke-linejoin="round"/><path d="M239.99979,159.24794c1.76626,-1.13592 3.72481,-2.15772 4.18756,-1.62306c0.84139,1.12342 1.09434,4.2898 -0.19729,5.23938c-1.40576,1.14186 -6.29057,1.31102 -7.15603,-0.03471c-0.73321,-0.9552 1.48361,-2.49978 3.16576,-3.58161z" fill="#001026" stroke="#001026" stroke-width="1.2" stroke-linecap="round" stroke-linejoin="round"/><path d="M201.33996,182.32753c0,0 8.74782,-2.29686 13.36843,-1.58273" fill="none" stroke="#001026" stroke-width="1.2" stroke-linecap="round" stroke-linejoin="round"/><path d="M216.85392,183.5263c-2.69707,3.75577 -9.51605,6.83336 -9.51605,6.83336" fill="none" stroke="#001026" stroke-width="1.2" stroke-linecap="round" stroke-linejoin="round"/><g><path d="M243.59579,143.02454c4.87324,2.21619 7.71602,6.45159 6.33465,9.48009c-1.38137,3.0285 -6.38624,3.75045 -11.34359,1.58835c-4.87324,-2.21619 -7.71602,-6.45159 -6.33465,-9.48009c1.32728,-3.11261 6.47035,-3.80454 11.34359,-1.58835z" fill="#ffffff" stroke="#001026" stroke-width="1.2" stroke-linecap="round" stroke-linejoin="round"/><path d="M246.34258,148.03504c0.59501,0.92518 0.40897,2.11489 -0.43211,2.6558c-0.84108,0.54092 -2.00076,0.21668 -2.59577,-0.70851c-0.59501,-0.92518 -0.40897,-2.11489 0.43211,-2.6558c0.84108,-0.54092 2.00076,-0.21668 2.59577,0.70851" fill="#001026" stroke="none" stroke-width="1" stroke-linecap="butt" stroke-linejoin="miter"/></g><g><path d="M224.25165,158.79426c4.90326,2.07799 7.65599,6.72799 6.41282,9.78651c-1.74781,3.38307 -6.20583,4.58559 -11.10909,2.5076c-4.98737,-2.0239 -8.2388,-6.70985 -6.82148,-10.23706c1.36323,-3.61132 6.61449,-4.13503 11.51775,-2.05704z" fill="#ffffff" stroke="#001026" stroke-width="1.2" stroke-linecap="round" stroke-linejoin="round"/><path d="M226.88431,163.99706c0.59501,0.92518 0.40897,2.11489 -0.43211,2.6558c-0.84108,0.54092 -2.00076,0.21668 -2.59577,-0.70851c-0.59501,-0.92518 -0.40897,-2.11489 0.43211,-2.6558c0.89517,-0.45681 2.00076,-0.21668 2.59577,0.70851" fill="#001026" stroke="none" stroke-width="1" stroke-linecap="butt" stroke-linejoin="miter"/></g></g><path d="M253.70958,138.73341c6.69964,0.05714 13.64023,4.68184 11.96071,10.85544c-1.67951,6.1736 -10.71895,13.17126 -21.98336,16.62053c-6.29392,1.93345 -12.96396,2.30574 -19.4339,1.08445z" fill="url(#color-1)" fill-rule="nonzero" stroke="#149948" stroke-width="0.96" stroke-linecap="butt" stroke-linejoin="miter"/><path d="M230.2477,126.10068c7.57551,3.06071 13.75403,7.87589 21.4057,17.22235c-1.48682,2.70979 -3.2857,5.23625 -5.36002,7.52763c-4.04375,-5.14147 -8.48897,-9.95401 -13.2938,-14.39247c-8.25624,-7.4025 -21.67577,-11.74118 -25.34959,-9.37846c2.47704,-1.61766 5.15345,-2.9072 7.96212,-3.83655c5.00898,0.08104 9.96399,1.04856 14.6356,2.8575z" fill="#ff7bd0" fill-rule="nonzero" stroke="none" stroke-width="1" stroke-linecap="butt" stroke-linejoin="miter"/><path d="M253.7074,138.66348c-0.57667,1.57635 -1.26368,3.11 -2.05618,4.58962c-7.67764,-9.38683 -13.83019,-14.16165 -21.4057,-17.22235c-4.67525,-1.78484 -9.62935,-2.72857 -14.63342,-2.78756c21.77317,-7.09739 38.26032,14.90042 38.0953,15.4203z" fill="#ffa1e2" fill-rule="nonzero" stroke="none" stroke-width="1" stroke-linecap="butt" stroke-linejoin="miter"/><path d="M232.93467,136.35726c4.80483,4.43846 9.25006,9.251 13.2938,14.39247c-4.51866,4.83857 -9.66754,9.04736 -15.3083,12.51312c-3.28382,2.13758 -6.69861,4.06691 -10.22428,5.77649c-3.44679,-5.5789 -6.44267,-11.42411 -8.95895,-17.47993c-4.03803,-9.67303 -5.99452,-23.25289 -4.08696,-24.47969c3.69401,-2.3757 17.09336,1.97596 25.28468,9.27753z" fill="#ffff4f" fill-rule="nonzero" stroke="none" stroke-width="1" stroke-linecap="butt" stroke-linejoin="miter"/><path d="M211.79536,151.65025c2.52416,6.0335 5.52474,11.85644 8.97336,17.41359c-7.27362,3.4651 -14.39037,5.28843 -21.62365,4.68991c-0.67848,-0.03448 -17.10082,-30.20639 8.50492,-46.67403c-1.90756,1.2268 0.04893,14.80665 4.14538,24.57053z" fill="#149948" fill-rule="nonzero" stroke="none" stroke-width="1" stroke-linecap="butt" stroke-linejoin="miter"/><path d="M253.71749,138.65699c-1.66469,4.48087 -4.18333,8.59616 -7.4162,12.11725c-4.51866,4.83857 -9.66754,9.04736 -15.3083,12.51312c-3.28382,2.13758 -6.69861,4.06691 -10.22428,5.77649c-7.27362,3.4651 -14.39037,5.28843 -21.62365,4.68991c-0.67848,-0.03448 -17.10082,-30.20639 8.50492,-46.67403c25.59565,-16.46114 46.23684,10.99753 46.06751,11.57726z" fill="#726663" fill-rule="evenodd" stroke="#149948" stroke-width="0.96" stroke-linecap="butt" stroke-linejoin="miter"/><path d="M262.44506,144.92886c1.05004,1.32214 1.44265,3.35243 0.09842,5.74355" fill="none" fill-rule="evenodd" stroke="#ffffff" stroke-width="1.272" stroke-linecap="round" stroke-linejoin="round"/><path d="M259.09912,142.54366c0.55014,0.18027 1.0733,0.43413 1.55536,0.75461" fill="none" fill-rule="evenodd" stroke="#ffffff" stroke-width="1.272" stroke-linecap="round" stroke-linejoin="round"/><path d="M201.56121,170.14537c-0.7047,-1.47289 -1.03293,-2.36039 -1.03293,-2.36039" fill="none" fill-rule="evenodd" stroke="#726663" stroke-width="1.92" stroke-linecap="round" stroke-linejoin="round"/><path d="M199.36831,164.65024c-1.14044,-3.23433 -1.80669,-6.61668 -1.97818,-10.04186" fill="none" fill-rule="evenodd" stroke="#726663" stroke-width="1.92" stroke-linecap="round" stroke-linejoin="round"/></g></g></svg>