<svg version="1.1" xmlns="http://www.w3.org/2000/svg" xmlns:xlink="http://www.w3.org/1999/xlink" width="30.21816" height="7.85166" viewBox="0,0,30.21816,7.85166"><g transform="translate(-224.89092,-176.07417)"><g data-paper-data="{&quot;isPaintingLayer&quot;:true}" fill-rule="nonzero" stroke="none" stroke-width="0" stroke-linejoin="miter" stroke-miterlimit="10" stroke-dasharray="" stroke-dashoffset="0" style="mix-blend-mode: normal"><path d="M254.81767,183.92582c0,0 -0.58084,-0.00686 -1.29055,-0.01524c-0.22824,-0.00269 -0.51996,-1.00637 -0.93779,-1.0113c-0.35772,-0.00422 -0.81827,0.99057 -1.29451,0.98495c-7.11509,-0.08402 -26.40391,-0.31178 -26.40391,-0.31178l0.29139,-7.49828c0,0 17.61345,0.20798 25.28778,0.2986c0.75645,0.00894 1.38343,0.86269 1.92037,0.86903c0.47387,0.0056 0.88485,-0.8359 1.14903,-0.83278c0.8471,0.01 1.56959,0.01853 1.56959,0.01853l-0.29139,7.49828z" fill="#ffeb00" stroke-linecap="butt"/><path d="M252.52476,177.37803l-0.07866,5.61575" fill="none" stroke-linecap="round"/></g></g></svg>