<svg version="1.1" xmlns="http://www.w3.org/2000/svg" xmlns:xlink="http://www.w3.org/1999/xlink" width="313.77407" height="168.13165" viewBox="0,0,313.77407,168.13165"><g transform="translate(-72.99991,-104)"><g data-paper-data="{&quot;isPaintingLayer&quot;:true}" fill-rule="evenodd" stroke="none" stroke-width="1" stroke-linecap="butt" stroke-linejoin="miter" stroke-miterlimit="10" stroke-dasharray="" stroke-dashoffset="0" style="mix-blend-mode: normal"><path d="M234,107c2.787,-0.9767 5.787,-1.31 9,-1c18.7,-0.3882 37.367,0.1118 56,1.5c-0.916,0.2784 -1.582,0.7784 -2,1.5c-2.615,0.7906 -5.282,1.4573 -8,2c-2.583,-0.7239 -5.249,-1.5572 -8,-2.5c-15.646,-1.1552 -31.313,-1.6552 -47,-1.5z" fill="#63657d"/><path d="M285,104c0.333,0 0.667,0 1,0c9.682,1.2136 19.348,2.5469 29,4c-6.009,0.201 -12.009,0.5343 -18,1c0.418,-0.7216 1.084,-1.2216 2,-1.5c-18.633,-1.3882 -37.3,-1.8882 -56,-1.5c13.816,-1.2647 27.816,-1.9314 42,-2z" fill="#474b60"/><path d="M231,108c0.709,-0.904 1.709,-1.2373 3,-1c15.687,-0.1552 31.354,0.3448 47,1.5c2.751,0.9428 5.417,1.7761 8,2.5c-2.079,0.4707 -4.079,1.1373 -6,2c-0.077,-1.2498 -0.744,-2.0831 -2,-2.5c-3.986,-0.4988 -7.986,-0.6655 -12,-0.5c-1.452,-0.8019 -3.118,-1.3019 -5,-1.5c-10.995,-0.4998 -21.995,-0.6665 -33,-0.5z" fill="#898a9b"/><path d="M227,108c1.333,0 2.667,0 4,0c11.005,-0.1665 22.005,0.0002 33,0.5c1.882,0.1981 3.548,0.6981 5,1.5c-6.037,-0.3293 -12.037,0.0041 -18,1c1,0.8333 2,1.6667 3,2.5c8.66,0.4998 17.327,0.6664 26,0.5c-0.473,1.4063 -1.473,2.073 -3,2c-10.009,-0.1117 -20.009,-0.445 -30,-1c-1.333,0 -2.667,0 -4,0c-1.098,-0.897 -1.098,-1.7303 0,-2.5c-7.333,-0.3333 -14.667,-0.6667 -22,-1c-0.667,-0.3333 -1.333,-0.6667 -2,-1c2.751,-0.9428 5.417,-1.7761 8,-2.5z" fill="#afadbd"/><path d="M315,108c5.241,1.4454 10.574,2.6121 16,3.5c4.423,4.2288 9.423,7.3955 15,9.5c0.333,0.6667 0.667,1.3333 1,2c-0.438,-0.0654 -0.772,0.1012 -1,0.5c1.082,1.3297 1.749,2.8297 2,4.5c-2.601,-3.1043 -5.434,-6.1043 -8.5,-9c-0.399,0.2284 -0.565,0.5618 -0.5,1c-2,-0.6667 -4,-1.3333 -6,-2c-0.667,0 -1,0.3333 -1,1c-1.454,-1.0203 -1.787,-2.187 -1,-3.5c-1.634,-0.4935 -3.301,-0.6602 -5,-0.5c0,-0.3333 0,-0.6667 0,-1c1.052,0.1495 2.052,-0.0172 3,-0.5c-6.017,-1.8784 -12.184,-3.0451 -18.5,-3.5c-9.312,0.7713 -18.312,2.7713 -27,6c-0.833,-0.1667 -1.667,-0.3333 -2.5,-0.5c0.333,-0.3333 0.667,-0.6667 1,-1c2.781,-0.5218 5.115,-1.6885 7,-3.5c2.718,-0.5427 5.385,-1.2094 8,-2c5.991,-0.4657 11.991,-0.799 18,-1z" fill="#2c3e5e"/><path d="M227,108c-2.583,0.7239 -5.249,1.5572 -8,2.5c0.667,0.3333 1.333,0.6667 2,1c7.333,0.3333 14.667,0.6667 22,1c-1.098,0.7697 -1.098,1.603 0,2.5c-7.975,-0.7763 -15.975,-1.1097 -24,-1c-2.667,0 -5.333,0 -8,0c0,-1 0,-2 0,-3c5.016,-2.269 10.349,-3.269 16,-3z" fill="#88899c"/><path d="M269,110c4.014,-0.1655 8.014,0.0012 12,0.5c1.256,0.4169 1.923,1.2502 2,2.5c-1.109,0.0569 -2.109,0.3902 -3,1c-8.673,0.1664 -17.34,-0.0002 -26,-0.5c-1,-0.8333 -2,-1.6667 -3,-2.5c5.963,-0.9959 11.963,-1.3293 18,-1z" fill="#c1bfc9"/><path d="M326,114c-7.232,-1.64 -14.232,-1.3067 -21,1c-3.548,-1.3427 -7.215,-1.8427 -11,-1.5c2.153,0.0995 3.819,0.9328 5,2.5c-3.878,-0.4763 -7.212,0.5237 -10,3c-3.352,0.5084 -6.352,1.8418 -9,4c-1.164,3.6605 -2.83,6.9939 -5,10c-0.61,0.891 -0.943,1.891 -1,3c-3.538,1.7161 -5.871,4.5495 -7,8.5c0.207,1.9497 1.207,3.1164 3,3.5c0,0.3333 0,0.6667 0,1c-0.333,0 -0.667,0 -1,0c-2.148,-0.1106 -2.481,0.556 -1,2c-0.308,0.8081 -0.808,1.4747 -1.5,2c-2.808,-1.3596 -3.641,-0.6929 -2.5,2c-2.386,-1.8439 -2.386,-4.0106 0,-6.5c-1.882,-0.1981 -3.548,-0.6981 -5,-1.5c0,-1.3333 0,-2.6667 0,-4c1.333,0 2.667,0 4,0c3.133,-5.174 5.633,-10.8407 7.5,-17c1.684,-2.2007 3.684,-2.8673 6,-2c0.833,-0.8333 1.667,-1.6667 2.5,-2.5c-1.746,-0.4709 -3.413,-1.1376 -5,-2c0.556,-0.3826 0.889,-0.8826 1,-1.5c1,-0.3333 1.667,-1 2,-2c1.527,0.073 2.527,-0.5937 3,-2c0.891,-0.6098 1.891,-0.9431 3,-1c1.921,-0.8627 3.921,-1.5293 6,-2c-1.885,1.8115 -4.219,2.9782 -7,3.5c-0.333,0.3333 -0.667,0.6667 -1,1c0.833,0.1667 1.667,0.3333 2.5,0.5c8.688,-3.2287 17.688,-5.2287 27,-6c6.316,0.4549 12.483,1.6216 18.5,3.5c-0.948,0.4828 -1.948,0.6495 -3,0.5z" fill="#4b5d7e"/><path d="M219,115c0,-0.3333 0,-0.6667 0,-1c8.025,-0.1097 16.025,0.2237 24,1c1.333,0 2.667,0 4,0c2,0.6667 4,1.3333 6,2c-2,0 -4,0 -6,0c-2,0 -4,0 -6,0c-6.084,-1.6772 -12.418,-2.3439 -19,-2c-1,0 -2,0 -3,0z" fill="#656878"/><path d="M326,114c0,0.3333 0,0.6667 0,1c-6.333,0 -12.667,0 -19,0c-0.667,0 -1.333,0 -2,0c6.768,-2.3067 13.768,-2.64 21,-1z" fill="#0d1822"/><path d="M219,115c1,0 2,0 3,0c2.805,0.8195 5.805,1.3195 9,1.5c-0.556,0.3826 -0.889,0.8826 -1,1.5c-2.667,0 -5.333,0 -8,0c-3.667,0 -7.333,0 -11,0c-2.528,-0.6657 -5.194,-1.3324 -8,-2c5.292,-0.9948 10.625,-1.3282 16,-1z" fill="#27262f"/><path d="M222,115c6.582,-0.3439 12.916,0.3228 19,2c-2.357,-0.1633 -4.69,0.0034 -7,0.5c2.208,0.1909 4.208,0.6909 6,1.5c-3.381,0.0405 -6.714,-0.2929 -10,-1c0.111,-0.6174 0.444,-1.1174 1,-1.5c-3.195,-0.1805 -6.195,-0.6805 -9,-1.5z" fill="#383942"/><path d="M247,115c9.991,0.555 19.991,0.8883 30,1c-0.333,1 -1,1.6667 -2,2c-7.34,-0.2228 -14.673,-0.5561 -22,-1c-2,-0.6667 -4,-1.3333 -6,-2z" fill="#7e8399"/><path d="M307,116c0,-0.3333 0,-0.6667 0,-1c6.333,0 12.667,0 19,0c1.699,-0.1602 3.366,0.0065 5,0.5c-0.787,1.313 -0.454,2.4797 1,3.5c0,0.6667 -0.333,1 -1,1c-8.266,-0.3703 -16.266,-1.7036 -24,-4z" fill="#1f1f18"/><path d="M241,117c2,0 4,0 6,0c4.381,1.7105 9.047,2.3772 14,2c0.333,0 0.667,0 1,0c2.469,0.8171 5.135,1.3171 8,1.5c-0.948,0.4828 -1.948,0.6495 -3,0.5c-9.009,-0.5648 -18.009,-1.2315 -27,-2c-1.792,-0.8091 -3.792,-1.3091 -6,-1.5c2.31,-0.4966 4.643,-0.6633 7,-0.5z" fill="#191b23"/><path d="M247,117c2,0 4,0 6,0c2.667,0.6667 5.333,1.3333 8,2c-4.953,0.3772 -9.619,-0.2895 -14,-2z" fill="#303544"/><path d="M262,119c3.667,0 7.333,0 11,0c0,1 0,2 0,3c-1.333,0 -2.667,0 -4,0c-0.992,0.1716 -1.658,-0.1618 -2,-1c1.052,0.1495 2.052,-0.0172 3,-0.5c-2.865,-0.1829 -5.531,-0.6829 -8,-1.5z" fill="#333e4d"/><path d="M307,116c7.734,2.2964 15.734,3.6297 24,4c1.348,2.1454 1.682,4.312 1,6.5c-5.543,0.0526 -10.877,0.886 -16,2.5c0,-0.6667 -0.333,-1 -1,-1c-4.608,-1.8474 -3.941,-3.6808 2,-5.5c-3.515,-2.1785 -6.848,-4.3452 -10,-6.5z" fill="#6b6564"/><path d="M211,118c3.667,0 7.333,0 11,0c0.304,0.6499 0.637,1.3165 1,2c-1.743,4.4838 -3.743,8.8171 -6,13c-1.295,3.2156 -1.962,6.5489 -2,10c-0.333,0 -0.667,0 -1,0c-1,0 -2,0 -3,0c-12.346,1.9753 -24.513,3.9753 -36.5,6c-0.333,-0.3333 -0.667,-0.6667 -1,-1c-1.456,2.4903 -3.623,4.157 -6.5,5c-1.628,-1.0353 -3.295,-1.0353 -5,0c12,-10.6667 24,-21.3333 36,-32c1.923,-0.295 3.59,-1.1283 5,-2.5c2.646,-0.4974 5.313,-0.6641 8,-0.5z" fill="#6c6666"/><path d="M230,118c3.286,0.7071 6.619,1.0405 10,1c8.991,0.7685 17.991,1.4352 27,2c0.342,0.8382 1.008,1.1716 2,1c0.206,3.4968 -1.128,6.1635 -4,8c-0.397,-1.025 -1.063,-1.1917 -2,-0.5c-0.804,1.7713 -1.971,3.2713 -3.5,4.5c-0.333,-0.3333 -0.667,-0.6667 -1,-1c-0.667,4 -1.333,8 -2,12c-0.278,-0.9158 -0.778,-1.5825 -1.5,-2c-6.814,-2.5446 -13.814,-3.2113 -21,-2c-3.1,4.5427 -4.1,9.5427 -3,15c2.603,1.0617 5.27,1.2284 8,0.5c2.588,-3.151 5.921,-4.151 10,-3c-0.916,0.2784 -1.582,0.7784 -2,1.5c-1,0 -2,0 -3,0c1.289,3.2888 3.622,5.6221 7,7c0,0.3333 0,0.6667 0,1c-4.187,2.0422 -6.52,0.7089 -7,-4c-0.793,0.4312 -1.627,0.7645 -2.5,1c-3.695,-2.5641 -7.362,-2.5641 -11,0c-0.873,-0.2355 -1.707,-0.5688 -2.5,-1c-1.024,1.3532 -2.357,2.0198 -4,2c-0.121,-4.3247 0.546,-8.4913 2,-12.5c-2.049,-0.4698 -3.383,0.3635 -4,2.5c-0.663,3.3058 -1.163,6.6392 -1.5,10c-0.981,-6.364 -1.481,-6.0306 -1.5,1c-2.333,0 -4.667,0 -7,0c0.711,-4.8438 2.044,-9.5105 4,-14c1.35,-1.4501 3.016,-2.1168 5,-2c0.129,-1.7161 0.462,-3.3828 1,-5c0.17,-1.3221 -0.163,-2.4887 -1,-3.5c4.236,-4.7521 6.569,-10.4187 7,-17c0.556,-1.0111 1.222,-1.8444 2,-2.5z" fill="#6c6666"/><path d="M299,116c-0.067,1.4587 0.266,2.7921 1,4c0.172,0.9916 -0.162,1.6583 -1,2c-3.838,0.4784 -7.171,-0.5216 -10,-3c2.788,-2.4763 6.122,-3.4763 10,-3z" fill="#201e1e"/><path d="M305,115c0.667,0 1.333,0 2,0c0,0.3333 0,0.6667 0,1c3.152,2.1548 6.485,4.3215 10,6.5c-5.941,1.8192 -6.608,3.6526 -2,5.5c-0.709,0.904 -1.709,1.2373 -3,1c-1.478,0.262 -2.811,-0.0713 -4,-1c-0.896,-4.3824 -1.896,-8.7157 -3,-13z" fill="#676870"/><path d="M305,115c1.104,4.2843 2.104,8.6176 3,13c1.189,0.9287 2.522,1.262 4,1c-0.578,2.7804 -1.245,5.4471 -2,8c-1.838,-2.6725 -3.005,-5.6725 -3.5,-9c-1.356,-0.8802 -2.856,-1.2135 -4.5,-1c-0.667,-2.3333 -1.333,-4.6667 -2,-7c-0.734,-1.2079 -1.067,-2.5413 -1,-4c-1.181,-1.5672 -2.847,-2.4005 -5,-2.5c3.785,-0.3427 7.452,0.1573 11,1.5z" fill="#818aa4"/><path d="M348,128c0,0.6667 0.333,1 1,1c0.131,0.7389 -0.036,1.4056 -0.5,2c-0.654,-1.1956 -1.154,-1.1956 -1.5,0c0.683,2.9614 1.516,3.2947 2.5,1c1.663,1.6579 2.496,3.6579 2.5,6c0,1 0,2 0,3c-2.286,0.095 -4.286,0.7616 -6,2c-1,0 -2,0 -3,0c4.956,-2.8273 5.289,-6.1606 1,-10c-0.667,-0.6667 -1.333,-1.3333 -2,-2c2.826,-4.0542 1.826,-7.0542 -3,-9c0,-0.6667 0,-1.3333 0,-2c-0.065,-0.4382 0.101,-0.7716 0.5,-1c3.066,2.8957 5.899,5.8957 8.5,9z" fill="#424961"/><path d="M289,119c2.829,2.4784 6.162,3.4784 10,3c0.079,1.4305 -0.254,2.7638 -1,4c-1.832,0.5568 -3.165,1.5568 -4,3c-4.222,-0.4219 -8.222,0.2448 -12,2c0.124,0.6067 0.457,0.94 1,1c-1.051,0.7223 -1.718,1.7223 -2,3c0,0.6667 -0.333,1 -1,1c0.131,-0.7389 -0.036,-1.4056 -0.5,-2c-2.018,0.7228 -3.852,1.7228 -5.5,3c0,-0.3333 0,-0.6667 0,-1c0.057,-1.109 0.39,-2.109 1,-3c1.25,-0.0774 2.083,-0.744 2.5,-2c0.333,0.3333 0.667,0.6667 1,1c1,-2.3333 2,-4.6667 3,-7c3.193,-1.2137 5.693,-3.2137 7.5,-6z" fill="#686463"/><path d="M333,118c2,0.6667 4,1.3333 6,2c0,0.6667 0,1.3333 0,2c-0.478,2.7776 0.522,4.7776 3,6c-1.595,0.9339 -3.261,0.9339 -5,0c-1.9,-3.0178 -3.233,-6.3512 -4,-10z" fill="#2a2a22"/><path d="M333,118c0.767,3.6488 2.1,6.9822 4,10c0,0.3333 0,0.6667 0,1c-0.768,0.7625 -1.268,1.7625 -1.5,3c-0.893,-1.2112 -1.726,-1.2112 -2.5,0c0.627,0.9168 0.961,1.9168 1,3c-1.792,-0.134 -3.458,0.1993 -5,1c0.507,-1.3589 1.507,-2.3589 3,-3c-0.355,-1.0223 -1.022,-1.689 -2,-2c0,-0.6667 -0.333,-1 -1,-1c-2.524,-1.3003 -5.191,-1.3003 -8,0c2.596,1.5998 3.93,3.9331 4,7c-0.996,0.0858 -1.829,-0.2476 -2.5,-1c-0.776,-3.3366 -2.943,-5.0033 -6.5,-5c0,-0.6667 0,-1.3333 0,-2c5.123,-1.614 10.457,-2.4474 16,-2.5c0.682,-2.188 0.348,-4.3546 -1,-6.5c0.667,0 1,-0.3333 1,-1c0,-0.6667 0.333,-1 1,-1z" fill="#5e5651"/><path d="M198,121c-12,10.6667 -24,21.3333 -36,32c-0.891,0.6098 -1.891,0.9431 -3,1c-0.667,0 -1,-0.3333 -1,-1c8.612,-6.2772 16.612,-13.2772 24,-21c5.333,-3.6667 10.667,-7.3333 16,-11z" fill="#3d3c3d"/><path d="M300,120c0.667,2.3333 1.333,4.6667 2,7c0.667,3 1.333,6 2,9c0,1 0,2 0,3c-0.667,0 -1,-0.3333 -1,-1c-0.791,-2.615 -1.457,-5.2816 -2,-8c-2.107,-0.9682 -4.441,-1.3016 -7,-1c0.835,-1.4432 2.168,-2.4432 4,-3c0.746,-1.2362 1.079,-2.5695 1,-4c0.838,-0.3417 1.172,-1.0084 1,-2z" fill="#57575f"/><path d="M222,118c2.667,0 5.333,0 8,0c-0.778,0.6556 -1.444,1.4889 -2,2.5c-0.431,6.5813 -2.764,12.2479 -7,17c0.837,1.0113 1.17,2.1779 1,3.5c-2.091,1.3654 -4.424,2.0321 -7,2c0.038,-3.4511 0.705,-6.7844 2,-10c2.257,-4.1829 4.257,-8.5162 6,-13c-0.363,-0.6835 -0.696,-1.3501 -1,-2z" fill="#5f5b58"/><path d="M289,119c-1.807,2.7863 -4.307,4.7863 -7.5,6c-1,2.3333 -2,4.6667 -3,7c-0.333,-0.3333 -0.667,-0.6667 -1,-1c-0.417,1.256 -1.25,1.9226 -2.5,2c2.17,-3.0061 3.836,-6.3395 5,-10c2.648,-2.1582 5.648,-3.4916 9,-4z" fill="#606677"/><path d="M294,129c2.559,-0.3016 4.893,0.0318 7,1c-4.679,-0.1658 -9.345,0.0008 -14,0.5c1.558,0.21 2.891,0.71 4,1.5c-2.667,0 -5.333,0 -8,0c-0.543,-0.06 -0.876,-0.3933 -1,-1c3.778,-1.7552 7.778,-2.4219 12,-2z" fill="#918987"/><path d="M339,122c4.826,1.9458 5.826,4.9458 3,9c-2.281,0.4227 -3.948,-0.244 -5,-2c0,-0.3333 0,-0.6667 0,-1c1.739,0.9339 3.405,0.9339 5,0c-2.478,-1.2224 -3.478,-3.2224 -3,-6z" fill="#414042"/><path d="M347,123c3.284,1.617 5.951,3.9503 8,7c0,0.6667 0,1.3333 0,2c-0.973,-1.2914 -1.973,-1.2914 -3,0c-0.788,-1.2701 -1.788,-2.2701 -3,-3c-0.667,0 -1,-0.3333 -1,-1c-0.251,-1.6703 -0.918,-3.1703 -2,-4.5c0.228,-0.3988 0.562,-0.5654 1,-0.5z" fill="#152343"/><path d="M301,130c0.543,2.7184 1.209,5.385 2,8c-1.333,0 -2.667,0 -4,0c0.003,-5.3155 -2.664,-7.3155 -8,-6c-1.109,-0.79 -2.442,-1.29 -4,-1.5c4.655,-0.4992 9.321,-0.6658 14,-0.5z" fill="#a8a0a4"/><path d="M283,132c2.667,0 5.333,0 8,0c-1.765,0.9614 -3.765,1.2947 -6,1c0,1 0,2 0,3c1.716,0.1287 3.383,0.462 5,1c-0.134,1.7915 0.199,3.4582 1,5c-0.667,0 -1.333,0 -2,0c-2.024,-2.8323 -4.691,-5.1656 -8,-7c0.282,-1.2777 0.949,-2.2777 2,-3z" fill="#5d4d41"/><path d="M329,130c0.667,0 1,0.3333 1,1c-1.975,2.6211 -3.975,2.4545 -6,-0.5c1.634,-0.4935 3.301,-0.6602 5,-0.5z" fill="#bdac9d"/><path d="M355,130c3.742,1.3373 7.409,2.6706 11,4c-0.667,0 -1.333,0 -2,0c-2.808,1.4288 -5.808,2.0955 -9,2c0,-1.3333 0,-2.6667 0,-4c0,-0.6667 0,-1.3333 0,-2z" fill="#1a2034"/><path d="M265,130c-0.667,4.3333 -1.333,8.6667 -2,13c-1.333,0 -2.667,0 -4,0c0,1.3333 0,2.6667 0,4c-1.478,0.9475 -2.478,2.2809 -3,4c-0.129,-1.7161 -0.462,-3.3828 -1,-5c0,-1 0,-2 0,-3c0.722,0.4175 1.222,1.0842 1.5,2c0.667,-4 1.333,-8 2,-12c0.333,0.3333 0.667,0.6667 1,1c1.529,-1.2287 2.696,-2.7287 3.5,-4.5c0.937,-0.6917 1.603,-0.525 2,0.5z" fill="#7d787a"/><path d="M253,117c7.327,0.4439 14.66,0.7772 22,1c-0.111,0.6174 -0.444,1.1174 -1,1.5c1.587,0.8624 3.254,1.5291 5,2c-0.833,0.8333 -1.667,1.6667 -2.5,2.5c-2.316,-0.8673 -4.316,-0.2007 -6,2c-1.867,6.1593 -4.367,11.826 -7.5,17c0.667,-4.3333 1.333,-8.6667 2,-13c2.872,-1.8365 4.206,-4.5032 4,-8c1.333,0 2.667,0 4,0c0,-1 0,-2 0,-3c-3.667,0 -7.333,0 -11,0c-0.333,0 -0.667,0 -1,0c-2.667,-0.6667 -5.333,-1.3333 -8,-2z" fill="#59647a"/><path d="M329,130c-1.699,-0.1602 -3.366,0.0065 -5,0.5c2.025,2.9545 4.025,3.1211 6,0.5c0.978,0.311 1.645,0.9777 2,2c-1.493,0.6411 -2.493,1.6411 -3,3c0,0.3333 0,0.6667 0,1c-1,0 -2,0 -3,0c-0.333,0 -0.667,0 -1,0c-0.07,-3.0669 -1.404,-5.4002 -4,-7c2.809,-1.3003 5.476,-1.3003 8,0z" fill="#907a68"/><path d="M349,129c1.212,0.7299 2.212,1.7299 3,3c1.027,-1.2914 2.027,-1.2914 3,0c0,1.3333 0,2.6667 0,4c3.192,0.0955 6.192,-0.5712 9,-2c2.008,1.5826 4.341,2.5826 7,3c-2,0 -4,0 -6,0c-3.542,-0.3128 -6.875,0.0206 -10,1c-1,0 -2,0 -3,0c-0.004,-2.3421 -0.837,-4.3421 -2.5,-6c-0.984,2.2947 -1.817,1.9614 -2.5,-1c0.346,-1.1956 0.846,-1.1956 1.5,0c0.464,-0.5944 0.631,-1.2611 0.5,-2z" fill="#2c3d64"/><path d="M249,130c0.617,0.1107 1.117,0.444 1.5,1c0.495,1.9727 0.662,3.9727 0.5,6c-7.802,3.0472 -13.135,0.7138 -16,-7c0.209,-0.586 0.543,-1.086 1,-1.5c1.833,-0.1667 3.667,-0.3333 5.5,-0.5c2.866,-0.2001 5.366,0.4666 7.5,2z" fill="#8c7f79"/><path d="M249,130c0,1.6667 0,3.3333 0,5c-2.07,-0.0514 -3.903,0.6153 -5.5,2c-1.381,-2.3684 -3.381,-4.0351 -6,-5c-0.483,-0.948 -0.649,-1.948 -0.5,-3c4.048,-0.1054 8.048,0.2279 12,1z" fill="#ad9f96"/><path d="M316,131c3.557,-0.0033 5.724,1.6634 6.5,5c0.671,0.7524 1.504,1.0858 2.5,1c0.333,0 0.667,0 1,0c-2.107,0.9682 -4.441,1.3016 -7,1c-1,0 -2,0 -3,0c0,-2 0,-4 0,-6c0,-0.3333 0,-0.6667 0,-1z" fill="#1c140f"/><path d="M364,134c0.667,0 1.333,0 2,0c2.667,0 5.333,0 8,0c2.403,0.6308 4.736,1.6308 7,3c1.282,1.4584 1.282,2.7918 0,4c-2.347,-3.4173 -5.68,-4.7506 -10,-4c-2.659,-0.4174 -4.992,-1.4174 -7,-3z" fill="#1e2d4b"/><path d="M344,133c4.289,3.8394 3.956,7.1727 -1,10c-0.667,0 -1.333,0 -2,0c-1.291,0.2373 -2.291,-0.096 -3,-1c0.665,-1.8691 1.331,-3.8691 2,-6c1.401,-1.0207 2.735,-2.0207 4,-3z" fill="#6f6771"/><path d="M281,135c3.309,1.8344 5.976,4.1677 8,7c0,0.3333 0,0.6667 0,1c-1.734,1.062 -3.401,1.062 -5,0c-1.322,0.17 -2.489,-0.1634 -3.5,-1c-0.495,-1.9727 -0.662,-3.9727 -0.5,-6c0.667,0 1,-0.3333 1,-1z" fill="#1e150d"/><path d="M316,132c0,2 0,4 0,6c1,0 2,0 3,0c-0.12,1.0862 -0.787,1.7528 -2,2c-1.635,-0.5463 -3.301,-0.8796 -5,-1c0.709,-0.904 1.709,-1.2373 3,-1c-0.295,-2.2354 0.039,-4.2354 1,-6z" fill="#807676"/><path d="M334,135c0,1 0,2 0,3c-2.327,0.1646 -4.493,0.8313 -6.5,2c-0.239,-1.288 0.261,-2.288 1.5,-3c0,-0.3333 0,-0.6667 0,-1c1.542,-0.8007 3.208,-1.134 5,-1z" fill="#422f28"/><path d="M337,129c1.052,1.756 2.719,2.4227 5,2c0.667,0.6667 1.333,1.3333 2,2c-1.265,0.9793 -2.599,1.9793 -4,3c-0.669,2.1309 -1.335,4.1309 -2,6c-0.304,-3.0219 -0.804,-6.0219 -1.5,-9c-0.497,2.3098 -0.663,4.6432 -0.5,7c-1.333,0 -2,-0.6667 -2,-2c0,-1 0,-2 0,-3c-0.039,-1.0832 -0.373,-2.0832 -1,-3c0.774,-1.2112 1.607,-1.2112 2.5,0c0.232,-1.2375 0.732,-2.2375 1.5,-3z" fill="#7d7b86"/><path d="M365,137c1.247,1.678 2.914,3.0113 5,4c0.586,-0.2093 1.086,-0.5426 1.5,-1c2.951,1.5761 6.117,2.2428 9.5,2c0.667,0 1,0.3333 1,1c-3.667,0 -7.333,0 -11,0c-5.262,-0.3047 -10.428,0.0286 -15.5,1c-0.495,-1.9727 -0.662,-3.9727 -0.5,-6c3.125,-0.9794 6.458,-1.3128 10,-1z" fill="#385787"/><path d="M365,137c2,0 4,0 6,0c4.32,-0.7506 7.653,0.5827 10,4c0,0.3333 0,0.6667 0,1c-3.383,0.2428 -6.549,-0.4239 -9.5,-2c-0.414,0.4574 -0.914,0.7907 -1.5,1c-2.086,-0.9887 -3.753,-2.322 -5,-4z" fill="#2a4473"/><path d="M299,142c-2.852,0.7583 -5.519,0.7583 -8,0c2.805,-1.8933 5.805,-2.2266 9,-1c-0.124,0.6067 -0.457,0.94 -1,1z" fill="#5d4835"/><path d="M302,127c1.644,-0.2135 3.144,0.1198 4.5,1c0.495,3.3275 1.662,6.3275 3.5,9c0.342,5.0484 1.008,10.0484 2,15c-0.996,0.0858 -1.829,-0.2476 -2.5,-1c-0.894,-4.3632 -1.894,-8.6965 -3,-13c-0.417,-1.256 -1.25,-1.9226 -2.5,-2c-0.667,-3 -1.333,-6 -2,-9z" fill="#9ba3b7"/><path d="M280,136c-0.162,2.0273 0.005,4.0273 0.5,6c1.011,0.8366 2.178,1.17 3.5,1c-0.597,0.6386 -1.43,0.972 -2.5,1c-3.036,-1.4828 -6.203,-2.4828 -9.5,-3c-0.271,-1.8797 0.396,-3.213 2,-4c1.648,-1.2772 3.482,-2.2772 5.5,-3c0.464,0.5944 0.631,1.2611 0.5,2z" fill="#7f7367"/><path d="M326,137c1,0 2,0 3,0c-1.239,0.712 -1.739,1.712 -1.5,3c2.007,-1.1687 4.173,-1.8354 6.5,-2c0,1.3333 0.667,2 2,2c-0.333,0.6667 -0.667,1.3333 -1,2c-0.311,0.9778 -0.978,1.6445 -2,2c-7.081,-1.5453 -14.081,-2.2119 -21,-2c0,-1 0,-2 0,-3c1.699,0.1204 3.365,0.4537 5,1c1.213,-0.2472 1.88,-0.9138 2,-2c2.559,0.3016 4.893,-0.0318 7,-1z" fill="#74665d"/><path d="M374,134c7.989,-1.6687 11.322,1.3313 10,9c-0.667,0 -1.333,0 -2,0c0,-0.6667 -0.333,-1 -1,-1c0,-0.3333 0,-0.6667 0,-1c1.282,-1.2082 1.282,-2.5416 0,-4c-2.264,-1.3692 -4.597,-2.3692 -7,-3z" fill="#4a4e5c"/><path d="M211,143c1,0 2,0 3,0c0,1 0,2 0,3c-1,0 -2,0 -3,0c-7.997,1.9973 -15.997,3.9973 -24,6c-0.426,1.6388 -0.426,2.9721 0,4c-0.057,1.109 -0.39,2.109 -1,3c-6.349,-0.3208 -12.682,-0.4875 -19,-0.5c4.822,0.3641 9.488,1.3641 14,3c4.655,0.4992 9.321,0.6658 14,0.5c5.551,0.027 10.884,0.6937 16,2c-12.338,0.1665 -24.671,-0.0001 -37,-0.5c-8.777,-2.7834 -17.777,-4.2834 -27,-4.5c2.671,-1.6181 5.671,-2.2847 9,-2c2.186,1.4645 4.519,1.7979 7,1c-2.772,-1.5854 -2.606,-2.5854 0.5,-3c15.847,-4.3254 31.68,-8.3254 47.5,-12z" fill="#6e6f7d"/><path d="M289,143c0,-0.3333 0,-0.6667 0,-1c0.667,0 1.333,0 2,0c2.481,0.7583 5.148,0.7583 8,0c0,0.6667 0,1.3333 0,2c-3.079,0.8719 -6.079,0.8719 -9,0c0,-0.6667 -0.333,-1 -1,-1z" fill="#39281c"/><path d="M291,132c5.336,-1.3155 8.003,0.6845 8,6c1.333,0 2.667,0 4,0c0,0.6667 0.333,1 1,1c-0.418,0.7216 -1.084,1.2216 -2,1.5c1.665,1.8261 2.665,3.9928 3,6.5c-0.997,-0.0299 -1.664,0.4701 -2,1.5c0.577,1.9001 1.244,3.7334 2,5.5c-0.891,0.6098 -1.891,0.9431 -3,1c0,-0.6667 -0.333,-1 -1,-1c0.111,-0.6174 0.444,-1.1174 1,-1.5c-2.971,-0.4709 -5.638,-1.6375 -8,-3.5c-3.706,1.8355 -3.706,3.8355 0,6c0,1.3333 0.667,2 2,2c-0.709,0.904 -1.709,1.2373 -3,1c-1.617,-0.538 -3.284,-0.8713 -5,-1c-3.982,-1.7483 -3.649,-2.915 1,-3.5c-1.845,-1.128 -3.845,-1.628 -6,-1.5c-0.333,0 -0.667,0 -1,0c0.039,-1.0832 0.373,-2.0832 1,-3c4.11,-1.1808 8.11,-1.6808 12,-1.5c-0.667,-0.3333 -1.333,-0.6667 -2,-1c2.551,-0.0023 4.551,-0.8356 6,-2.5c0,-0.6667 0,-1.3333 0,-2c0.543,-0.06 0.876,-0.3933 1,-1c-3.195,-1.2266 -6.195,-0.8933 -9,1c-0.801,-1.5418 -1.134,-3.2085 -1,-5c-1.617,-0.538 -3.284,-0.8713 -5,-1c0,-1 0,-2 0,-3c2.235,0.2947 4.235,-0.0386 6,-1z" fill="#907e73"/><path d="M290,137c-0.082,-1.7517 0.751,-2.7517 2.5,-3c3.432,1.8219 3.266,3.4886 -0.5,5c-0.682,-0.7427 -1.349,-1.4094 -2,-2z" fill="#bdac9e"/><path d="M304,136c1.25,0.0774 2.083,0.744 2.5,2c1.106,4.3035 2.106,8.6368 3,13c0.671,0.7524 1.504,1.0858 2.5,1c-1.528,0.8092 -3.194,1.4759 -5,2c-0.667,-2.3333 -1.333,-4.6667 -2,-7c-0.335,-2.5072 -1.335,-4.6739 -3,-6.5c0.916,-0.2784 1.582,-0.7784 2,-1.5c0,-1 0,-2 0,-3z" fill="#7d7e8c"/><path d="M274,136c0,0.3333 0,0.6667 0,1c-1.604,0.787 -2.271,2.1203 -2,4c-0.65,1.9352 -0.983,3.9352 -1,6c-0.667,0 -1,0.3333 -1,1c-1.793,-0.3836 -2.793,-1.5503 -3,-3.5c1.129,-3.9505 3.462,-6.7839 7,-8.5z" fill="#41485c"/><path d="M272,141c3.297,0.5172 6.464,1.5172 9.5,3c1.07,-0.028 1.903,-0.3614 2.5,-1c1.599,1.062 3.266,1.062 5,0c0.667,0 1,0.3333 1,1c-2.627,0.6049 -5.293,1.1049 -8,1.5c-1.21,1.0391 -2.21,2.2058 -3,3.5c-0.667,0 -1.333,0 -2,0c-1,0 -2,0 -3,0c-0.321,-1.5481 -1.321,-2.2148 -3,-2c0.017,-2.0648 0.35,-4.0648 1,-6z" fill="#524339"/><path d="M312,142c6.919,-0.2119 13.919,0.4547 21,2c1.022,-0.3555 1.689,-1.0222 2,-2c2.049,0.2058 2.383,1.0391 1,2.5c-2.596,1.1356 -5.263,1.969 -8,2.5c-4.513,-2.0505 -9.18,-2.3838 -14,-1c3.763,0.3962 7.097,1.3962 10,3c-2.361,0.1741 -4.694,0.5074 -7,1c-1.322,0.17 -2.489,-0.1634 -3.5,-1c-0.29,-2.4204 -0.79,-4.7537 -1.5,-7z" fill="#998981"/><path d="M338,142c0.709,0.904 1.709,1.2373 3,1c0.111,0.6174 0.444,1.1174 1,1.5c-4.21,2.1172 -8.543,3.6172 -13,4.5c-0.333,0 -0.667,0 -1,0c-1,0 -2,0 -3,0c1,-0.6667 2,-1.3333 3,-2c2.737,-0.531 5.404,-1.3644 8,-2.5c1.383,-1.4609 1.049,-2.2942 -1,-2.5c0.333,-0.6667 0.667,-1.3333 1,-2c-0.163,-2.3568 0.003,-4.6902 0.5,-7c0.696,2.9781 1.196,5.9781 1.5,9z" fill="#444e64"/><path d="M211,143c-15.82,3.6746 -31.653,7.6746 -47.5,12c-3.106,0.4146 -3.272,1.4146 -0.5,3c-2.481,0.7979 -4.814,0.4645 -7,-1c1.644,-0.3102 2.644,-1.3102 3,-3c1.109,-0.0569 2.109,-0.3902 3,-1c1.705,-1.0353 3.372,-1.0353 5,0c2.877,-0.843 5.044,-2.5097 6.5,-5c0.333,0.3333 0.667,0.6667 1,1c11.987,-2.0247 24.154,-4.0247 36.5,-6z" fill="#68666d"/><path d="M315,128c0.667,0 1,0.3333 1,1c0,0.6667 0,1.3333 0,2c0,0.3333 0,0.6667 0,1c-0.961,1.7646 -1.295,3.7646 -1,6c-1.291,-0.2373 -2.291,0.096 -3,1c0,1 0,2 0,3c0.71,2.2463 1.21,4.5796 1.5,7c1.011,0.8366 2.178,1.17 3.5,1c-1.528,0.8092 -3.194,1.4759 -5,2c-0.992,-4.9516 -1.658,-9.9516 -2,-15c0.755,-2.5529 1.422,-5.2196 2,-8c1.291,0.2373 2.291,-0.096 3,-1z" fill="#90909c"/><path d="M365,145c-2.015,1.4238 -4.348,2.0905 -7,2c-1,0 -2,0 -3,0c0,1 0,2 0,3c-1,0 -2,0 -3,0c0.237,1.291 -0.096,2.291 -1,3c0,-1 0,-2 0,-3c2.19,-0.8745 3.19,-2.5411 3,-5c3.667,0 7.333,0 11,0z" fill="#7e8baa"/><path d="M328,147c-1,0.6667 -2,1.3333 -3,2c-0.333,0 -0.667,0 -1,0c-2.903,-1.6038 -6.237,-2.6038 -10,-3c4.82,-1.3838 9.487,-1.0505 14,1z" fill="#716460"/><path d="M352,138c1,0 2,0 3,0c-0.162,2.0273 0.005,4.0273 0.5,6c5.072,-0.9714 10.238,-1.3047 15.5,-1c0,0.3333 0,0.6667 0,1c-2.235,-0.2947 -4.235,0.0386 -6,1c-3.667,0 -7.333,0 -11,0c0.19,2.4589 -0.81,4.1255 -3,5c-1.333,0 -2.667,0 -4,0c2.454,-1.7851 4.121,-4.1185 5,-7c-2,0 -4,0 -6,0c1.714,-1.2384 3.714,-1.905 6,-2c0,-1 0,-2 0,-3z" fill="#4b6088"/><path d="M255,146c0.538,1.6172 0.871,3.2839 1,5c-0.61,0.891 -0.943,1.891 -1,3c-2.428,-0.7122 -4.761,-1.7122 -7,-3c-3.408,1.3944 -6.741,1.2278 -10,-0.5c1.634,-0.4935 3.301,-0.6602 5,-0.5c0.02,-1.643 -0.647,-2.9763 -2,-4c0.525,-0.6924 1.192,-1.1924 2,-1.5c3.994,1.0871 7.994,1.5871 12,1.5z" fill="#b4a8a4"/><path d="M290,144c2.921,0.8719 5.921,0.8719 9,0c-1.449,1.6644 -3.449,2.4977 -6,2.5c0.667,0.3333 1.333,0.6667 2,1c-3.89,-0.1808 -7.89,0.3192 -12,1.5c-0.627,0.9168 -0.961,1.9168 -1,3c-0.667,0 -1.333,0 -2,0c0.237,-1.291 -0.096,-2.291 -1,-3c0.79,-1.2942 1.79,-2.4609 3,-3.5c2.707,-0.3951 5.373,-0.8951 8,-1.5z" fill="#6f5f54"/><path d="M341,143c0.667,0 1.333,0 2,0c1,0 2,0 3,0c2,0 4,0 6,0c-0.879,2.8815 -2.546,5.2149 -5,7c0,0.6667 0,1.3333 0,2c-1.105,-1.1005 -2.438,-1.7671 -4,-2c0.077,-1.2498 0.744,-2.0831 2,-2.5c-1.973,-0.4955 -3.973,-0.6621 -6,-0.5c0.149,1.052 -0.017,2.052 -0.5,3c-3.057,-0.9505 -6.223,-1.2839 -9.5,-1c4.457,-0.8828 8.79,-2.3828 13,-4.5c-0.556,-0.3826 -0.889,-0.8826 -1,-1.5z" fill="#394f7c"/><path d="M271,147c1.679,-0.2148 2.679,0.4519 3,2c-1.333,0 -2.667,0 -4,0c0,-0.3333 0,-0.6667 0,-1c0,-0.6667 0.333,-1 1,-1z" fill="#71696d"/><path d="M305,147c0.667,2.3333 1.333,4.6667 2,7c-0.667,0 -1.333,0 -2,0c-0.756,-1.7666 -1.423,-3.5999 -2,-5.5c0.336,-1.0299 1.003,-1.5299 2,-1.5z" fill="#706667"/><path d="M371,144c2.687,-0.1641 5.354,0.0026 8,0.5c-7.619,2.204 -14.786,5.3706 -21.5,9.5c-2.082,-2.5262 -1.916,-4.8595 0.5,-7c2.652,0.0905 4.985,-0.5762 7,-2c1.765,-0.9614 3.765,-1.2947 6,-1z" fill="#cecfde"/><path d="M182,132c-7.388,7.7228 -15.388,14.7228 -24,21c-0.996,-0.0858 -1.829,0.2476 -2.5,1c-0.617,-0.9491 -0.451,-1.7825 0.5,-2.5c6.483,-4.6528 12.483,-9.8194 18,-15.5c2.346,-2.011 5.013,-3.3443 8,-4z" fill="#737272"/><path d="M255,143c0,1 0,2 0,3c-4.006,0.0871 -8.006,-0.4129 -12,-1.5c-0.808,0.3076 -1.475,0.8076 -2,1.5c1.353,1.0237 2.02,2.357 2,4c-1.699,-0.1602 -3.366,0.0065 -5,0.5c3.259,1.7278 6.592,1.8944 10,0.5c2.239,1.2878 4.572,2.2878 7,3c-1.468,1.2791 -2.135,2.9458 -2,5c-0.333,0 -0.667,0 -1,0c0.116,-3.4103 -1.55,-4.7436 -5,-4c0.418,-0.7216 1.084,-1.2216 2,-1.5c-4.079,-1.151 -7.412,-0.151 -10,3c-2.73,0.7284 -5.397,0.5617 -8,-0.5c-1.1,-5.4573 -0.1,-10.4573 3,-15c7.186,-1.2113 14.186,-0.5446 21,2z" fill="#938681"/><path d="M347,150c1.333,0 2.667,0 4,0c0,1 0,2 0,3c-1.333,0 -2.667,0 -4,0c0,-0.3333 0,-0.6667 0,-1c0,-0.6667 0,-1.3333 0,-2z" fill="#28334e"/><path d="M383,146c-2.521,2.201 -5.021,4.5343 -7.5,7c-0.988,2.9245 -1.654,5.9245 -2,9c-2.328,-1.1635 -4.162,-2.8302 -5.5,-5c2,-0.6667 4,-1.3333 6,-2c0,-1.6667 0,-3.3333 0,-5c2.335,-2.6648 5.335,-3.9982 9,-4z" fill="#607492"/><path d="M383,146c0.333,0 0.667,0 1,0c-0.58,4.31 -0.914,8.6434 -1,13c0,1.6667 0,3.3333 0,5c-1.699,0.1204 -3.365,0.4537 -5,1c-2.068,2.0725 -4.401,3.7392 -7,5c-0.31,-1.6436 -1.31,-2.6436 -3,-3c-0.271,-1.9305 -1.271,-3.2638 -3,-4c0.992,0.1716 1.658,-0.1618 2,-1c-0.086,-0.9959 0.248,-1.8292 1,-2.5c-3.919,-2.21 -3.919,-3.0433 0,-2.5c1.338,2.1698 3.172,3.8365 5.5,5c0.346,-3.0755 1.012,-6.0755 2,-9c2.479,-2.4657 4.979,-4.799 7.5,-7z" fill="#495977"/><path d="M259,147c1.452,0.8019 3.118,1.3019 5,1.5c-2.386,2.4894 -2.386,4.6561 0,6.5c-2.633,4.9802 -5.3,9.9802 -8,15c-2.296,-0.3041 -2.629,-1.3041 -1,-3c2.196,-2.5559 3.529,-5.5559 4,-9c-0.333,-1.3333 -0.667,-2.6667 -1,-4c-1.461,1.9699 -3.127,3.6365 -5,5c-0.135,-2.0542 0.532,-3.7209 2,-5c0.057,-1.109 0.39,-2.109 1,-3c0.522,-1.7191 1.522,-3.0525 3,-4z" fill="#6e778c"/><path d="M280,152c0.667,0 1.333,0 2,0c0.333,0 0.667,0 1,0c-1.54,2.4221 -2.54,5.0888 -3,8c-1,0.6667 -2,1.3333 -3,2c-0.667,0 -1.333,0 -2,0c0,-1 0,-2 0,-3c3.567,-0.9565 5.234,-3.2898 5,-7z" fill="#49413f"/><path d="M301,154c-2.45,-0.202 -4.783,0.1314 -7,1c-3.706,-2.1645 -3.706,-4.1645 0,-6c2.362,1.8625 5.029,3.0291 8,3.5c-0.556,0.3826 -0.889,0.8826 -1,1.5z" fill="#b6a193"/><path d="M211,146c0,1.3333 0,2.6667 0,4c-6.365,-0.0814 -12.199,1.5852 -17.5,5c-2.326,-1.1041 -4.493,-0.7708 -6.5,1c-0.426,-1.0279 -0.426,-2.3612 0,-4c8.003,-2.0027 16.003,-4.0027 24,-6z" fill="#5f5f6d"/><path d="M324,149c0.333,0 0.667,0 1,0c1,0 2,0 3,0c-0.039,1.0832 -0.373,2.0832 -1,3c-5.252,1.3061 -10.586,2.1395 -16,2.5c-0.804,1.7713 -1.971,3.2713 -3.5,4.5c-0.519,-1.0156 -1.353,-1.6822 -2.5,-2c-2.806,1.5638 -5.806,2.2305 -9,2c-0.876,-0.1309 -1.543,0.2025 -2,1c1.141,0.9255 1.141,1.7588 0,2.5c-4.332,0.5833 -8.665,1.0833 -13,1.5c2.589,-1.3661 5.422,-2.3661 8.5,-3c1.03,-0.3361 1.53,-1.0028 1.5,-2c0.992,0.1716 1.658,-0.1618 2,-1c1.291,0.2373 2.291,-0.096 3,-1c2.358,0.2475 4.358,-0.4192 6,-2c1.109,-0.0569 2.109,-0.3902 3,-1c0.667,0 1.333,0 2,0c1.806,-0.5241 3.472,-1.1908 5,-2c1.806,-0.5241 3.472,-1.1908 5,-2c2.306,-0.4926 4.639,-0.8259 7,-1z" fill="#3d5275"/><path d="M224,161c-0.291,1.1491 -1.124,1.8158 -2.5,2c-1.07,-0.028 -1.903,-0.3614 -2.5,-1c0.019,-7.0306 0.519,-7.364 1.5,-1c0.337,-3.3608 0.837,-6.6942 1.5,-10c0.617,-2.1365 1.951,-2.9698 4,-2.5c-1.454,4.0087 -2.121,8.1753 -2,12.5z" fill="#8d8483"/><path d="M343,150c-6.012,3.5656 -12.345,6.5656 -19,9c-0.798,0.4569 -1.131,1.1236 -1,2c-1.333,0.6667 -2.667,1.3333 -4,2c-1.835,-0.6223 -3.002,-1.9556 -3.5,-4c-0.461,3.0772 -1.628,5.7438 -3.5,8c-0.086,-5.7118 -2.753,-7.3785 -8,-5c-2.452,-0.4861 -5.118,-0.4861 -8,0c0,-1 0,-2 0,-3c3.194,0.2305 6.194,-0.4362 9,-2c1.147,0.3178 1.981,0.9844 2.5,2c1.529,-1.2287 2.696,-2.7287 3.5,-4.5c5.414,-0.3605 10.748,-1.1939 16,-2.5c0.627,-0.9168 0.961,-1.9168 1,-3c0.333,0 0.667,0 1,0c3.277,-0.2839 6.443,0.0495 9.5,1c0.483,-0.948 0.649,-1.948 0.5,-3c2.027,-0.1621 4.027,0.0045 6,0.5c-1.256,0.4169 -1.923,1.2502 -2,2.5z" fill="#395588"/><path d="M374,150c0,1.6667 0,3.3333 0,5c-2,0.6667 -4,1.3333 -6,2c-3.919,-0.5433 -3.919,0.29 0,2.5c-0.752,0.6708 -1.086,1.5041 -1,2.5c-3.118,-1.9378 -4.952,-4.6044 -5.5,-8c0.561,0.5219 1.228,0.8552 2,1c3.393,-1.9606 6.893,-3.6273 10.5,-5z" fill="#74809d"/><path d="M222,141c-0.538,1.6172 -0.871,3.2839 -1,5c-1.984,-0.1168 -3.65,0.5499 -5,2c-1.956,4.4895 -3.289,9.1562 -4,14c2.333,0 4.667,0 7,0c0.597,0.6386 1.43,0.972 2.5,1c1.376,-0.1842 2.209,-0.8509 2.5,-2c1.643,0.0198 2.976,-0.6468 4,-2c0.793,0.4312 1.627,0.7645 2.5,1c3.638,-2.5641 7.305,-2.5641 11,0c0.873,-0.2355 1.707,-0.5688 2.5,-1c0.48,4.7089 2.813,6.0422 7,4c-0.057,1.109 -0.39,2.109 -1,3c-1.868,0.7632 -3.535,1.7632 -5,3c-1.333,0 -2.667,0 -4,0c0.111,-0.6174 0.444,-1.1174 1,-1.5c-3.721,-0.6781 -7.388,-0.5114 -11,0.5c-0.418,-0.7216 -1.084,-1.2216 -2,-1.5c-6.173,-0.645 -12.173,-1.4783 -18,-2.5c-5.116,-1.3063 -10.449,-1.973 -16,-2c0,-1 0,-2 0,-3c-3,0 -6,0 -9,0c0.61,-0.891 0.943,-1.891 1,-3c2.007,-1.7708 4.174,-2.1041 6.5,-1c5.301,-3.4148 11.135,-5.0814 17.5,-5c0,-1.3333 0,-2.6667 0,-4c1,0 2,0 3,0c0,-1 0,-2 0,-3c0.333,0 0.667,0 1,0c2.576,0.0321 4.909,-0.6346 7,-2z" fill="#5b595d"/><path d="M247,155c3.45,-0.7436 5.116,0.5897 5,4c-0.904,0.709 -1.237,1.709 -1,3c-3.378,-1.3779 -5.711,-3.7112 -7,-7c1,0 2,0 3,0z" fill="#bfbab7"/><path d="M301,154c0.667,0 1,0.3333 1,1c-1.642,1.5808 -3.642,2.2475 -6,2c-1.333,0 -2,-0.6667 -2,-2c2.217,-0.8686 4.55,-1.202 7,-1z" fill="#bcbbc5"/><path d="M269,149c1.093,2.0561 2.926,3.0561 5.5,3c1.5,-0.3333 3,-0.6667 4.5,-1c-0.743,-0.6818 -1.409,-1.3485 -2,-2c0.667,0 1.333,0 2,0c0.904,0.709 1.237,1.709 1,3c0.234,3.7102 -1.433,6.0435 -5,7c-0.667,0 -1.333,0 -2,0c-1.442,-1.3195 -2.108,-2.9862 -2,-5c-2.235,-0.2947 -4.235,0.0386 -6,1c-0.333,0 -0.667,0 -1,0c-1.141,-2.6929 -0.308,-3.3596 2.5,-2c0.692,-0.5253 1.192,-1.1919 1.5,-2c-1.481,-1.444 -1.148,-2.1106 1,-2z" fill="#5f6572"/><path d="M269,149c0.333,0 0.667,0 1,0c1.333,0 2.667,0 4,0c1,0 2,0 3,0c0.591,0.6515 1.257,1.3182 2,2c-1.5,0.3333 -3,0.6667 -4.5,1c-2.574,0.0561 -4.407,-0.9439 -5.5,-3z" fill="#9a9ba8"/><path d="M265,155c1.765,-0.9614 3.765,-1.2947 6,-1c-0.108,2.0138 0.558,3.6805 2,5c-3.352,-0.03 -6.018,-1.3633 -8,-4z" fill="#383c42"/><path d="M343,150c1.562,0.2329 2.895,0.8995 4,2c0,0.3333 0,0.6667 0,1c-5.824,0.7855 -11.157,2.7855 -16,6c-2.721,0.4628 -5.388,1.1295 -8,2c-0.131,-0.8764 0.202,-1.5431 1,-2c6.655,-2.4344 12.988,-5.4344 19,-9z" fill="#556b8f"/><path d="M283,152c2.155,-0.128 4.155,0.372 6,1.5c-4.649,0.585 -4.982,1.7517 -1,3.5c-2.216,1.7325 -4.882,2.7325 -8,3c0.46,-2.9112 1.46,-5.5779 3,-8z" fill="#69544a"/><path d="M186,159c3,0 6,0 9,0c0,1 0,2 0,3c-4.679,0.1658 -9.345,-0.0008 -14,-0.5c-4.512,-1.6359 -9.178,-2.6359 -14,-3c6.318,0.0125 12.651,0.1792 19,0.5z" fill="#5f5e6e"/><path d="M288,157c1.716,0.1287 3.383,0.462 5,1c-0.342,0.8382 -1.008,1.1716 -2,1c-4.542,1.606 -9.209,2.606 -14,3c1,-0.6667 2,-1.3333 3,-2c3.118,-0.2675 5.784,-1.2675 8,-3z" fill="#766f78"/><path d="M147,159c9.223,0.2166 18.223,1.7166 27,4.5c12.329,0.4999 24.662,0.6665 37,0.5c5.827,1.0217 11.827,1.855 18,2.5c0.916,0.2784 1.582,0.7784 2,1.5c-1.333,0.3333 -2.667,0.6667 -4,1c-5.179,-0.8925 -10.512,-1.7259 -16,-2.5c-14,-0.3333 -28,-0.6667 -42,-1c-8.223,-2.0778 -16.556,-3.5778 -25,-4.5c-0.798,0.4569 -1.131,1.1236 -1,2c-1.935,-0.6495 -3.935,-0.9828 -6,-1c3.119,-1.3699 6.452,-2.3699 10,-3z" fill="#8b8997"/><path d="M291,159c0.03,0.9972 -0.47,1.6639 -1.5,2c-3.078,0.6339 -5.911,1.6339 -8.5,3c-2,0 -4,0 -6,0c0,-0.6667 0,-1.3333 0,-2c0.667,0 1.333,0 2,0c4.791,-0.394 9.458,-1.394 14,-3z" fill="#3f4963"/><path d="M264,155c0.333,0 0.667,0 1,0c1.982,2.6367 4.648,3.97 8,4c0.667,0 1.333,0 2,0c0,1 0,2 0,3c0,0.6667 0,1.3333 0,2c-1.975,0.3222 -3.642,0.3222 -5,0c0,-1 0,-2 0,-3c-2.518,-0.7442 -4.852,-0.7442 -7,0c-1.574,1.6016 -2.241,3.6016 -2,6c-1.604,0.787 -2.271,2.1203 -2,4c0,0.3333 0,0.6667 0,1c-0.667,0.6667 -1.333,1.3333 -2,2c-1.175,0.219 -2.175,-0.1143 -3,-1c1.112,-0.7652 1.779,-1.7652 2,-3c2.7,-5.0198 5.367,-10.0198 8,-15z" fill="#16171d"/><path d="M263,161c2.148,-0.7442 4.482,-0.7442 7,0c-1,0 -2,0 -3,0c0,1 0,2 0,3c-1,0 -2,0 -3,0c0.237,-1.291 -0.096,-2.291 -1,-3z" fill="#3c342f"/><path d="M371,144c0,-0.3333 0,-0.6667 0,-1c3.667,0 7.333,0 11,0c0.667,0 1.333,0 2,0c0,1 0,2 0,3c-0.333,0 -0.667,0 -1,0c-3.665,0.0018 -6.665,1.3352 -9,4c-3.607,1.3727 -7.107,3.0394 -10.5,5c-0.772,-0.1448 -1.439,-0.4781 -2,-1c0.548,3.3956 2.382,6.0622 5.5,8c-0.342,0.8382 -1.008,1.1716 -2,1c-0.667,0 -1.333,0 -2,0c-4.533,-0.7025 -6.699,-3.3692 -6.5,-8c-0.816,1.3228 -1.983,1.9894 -3.5,2c-0.597,-0.6386 -1.43,-0.972 -2.5,-1c-4.596,1.1061 -9.096,2.4394 -13.5,4c-1.765,-0.9614 -3.765,-1.2947 -6,-1c4.843,-3.2145 10.176,-5.2145 16,-6c1.333,0 2.667,0 4,0c0.904,-0.709 1.237,-1.709 1,-3c1,0 2,0 3,0c0,-1 0,-2 0,-3c1,0 2,0 3,0c-2.416,2.1405 -2.582,4.4738 -0.5,7c6.714,-4.1294 13.881,-7.296 21.5,-9.5c-2.646,-0.4974 -5.313,-0.6641 -8,-0.5z" fill="#9ea4ba"/><path d="M312,167c-1.935,0.6495 -3.935,0.9828 -6,1c-0.787,-1.6042 -2.12,-2.2709 -4,-2c1.306,-0.9674 1.973,-2.3007 2,-4c5.247,-2.3785 7.914,-0.7118 8,5z" fill="#334365"/><path d="M255,167c-1.578,0.0737 -3.245,-0.2597 -5,-1c0.61,-0.891 0.943,-1.891 1,-3c0,-0.3333 0,-0.6667 0,-1c-0.237,-1.291 0.096,-2.291 1,-3c0.333,0 0.667,0 1,0c1.873,-1.3635 3.539,-3.0301 5,-5c0.333,1.3333 0.667,2.6667 1,4c-0.471,3.4441 -1.804,6.4441 -4,9z" fill="#616886"/><path d="M263,161c0.904,0.709 1.237,1.709 1,3c1,0 2,0 3,0c0,-1 0,-2 0,-3c1,0 2,0 3,0c0,1 0,2 0,3c-1.385,1.1138 -2.885,2.1138 -4.5,3c-1.414,-0.9132 -2.914,-0.9132 -4.5,0c-0.241,-2.3984 0.426,-4.3984 2,-6z" fill="#646164"/><path d="M227,169c-2.286,0.095 -4.286,0.7616 -6,2c-3.54,0.5027 -6.873,1.5027 -10,3c0.111,-0.6174 0.444,-1.1174 1,-1.5c-4.425,-1.5617 -8.759,-3.0617 -13,-4.5c-11.159,-0.8306 -22.493,-1.3306 -34,-1.5c-7.062,-2.7786 -14.396,-3.9453 -22,-3.5c-0.131,-0.8764 0.202,-1.5431 1,-2c8.444,0.9222 16.777,2.4222 25,4.5c14,0.3333 28,0.6667 42,1c5.488,0.7741 10.821,1.6075 16,2.5z" fill="#9b9aaa"/><path d="M335,165c-0.69,5.0122 -3.357,6.3455 -8,4c-3.597,1.3009 -7.263,2.3009 -11,3c0.149,-1.052 -0.017,-2.052 -0.5,-3c-2.153,2.6243 -4.987,3.6243 -8.5,3c0,1 0,2 0,3c-1.667,0 -3.333,0 -5,0c-0.131,-0.7389 0.036,-1.4056 0.5,-2c1.302,-0.5848 2.469,-1.2515 3.5,-2c5.09,-2.1049 10.424,-3.2715 16,-3.5c1.172,-0.4186 2.172,-1.0853 3,-2c3.436,0.3481 6.769,0.1814 10,-0.5z" fill="#5c7495"/><path d="M384,146c2.43,11.7443 3.264,23.7443 2.5,36c-0.383,0.556 -0.883,0.889 -1.5,1c0.333,-2.667 0.667,-5.3333 1,-8c-1.333,0 -2.667,0 -4,0c0.221,-2.7788 -0.112,-5.4455 -1,-8c1,0 2,0 3,0c0.306,-2.8854 -0.027,-5.5521 -1,-8c0.086,-4.3566 0.42,-8.69 1,-13z" fill="#4b505c"/><path d="M296,159c0,1 0,2 0,3c2.882,-0.4861 5.548,-0.4861 8,0c-0.027,1.6993 -0.694,3.0326 -2,4c-10.621,1.6342 -21.287,2.4676 -32,2.5c2.26,-0.5494 3.926,-1.716 5,-3.5c0,-0.3333 0,-0.6667 0,-1c2,0 4,0 6,0c4.335,-0.4167 8.668,-0.9167 13,-1.5c1.141,-0.7412 1.141,-1.5745 0,-2.5c0.457,-0.7975 1.124,-1.1309 2,-1z" fill="#446495"/><path d="M363,163c0.667,0 1.333,0 2,0c1.729,0.7362 2.729,2.0695 3,4c-3.228,-0.2006 -6.395,0.1328 -9.5,1c-1.749,0.2483 -2.582,1.2483 -2.5,3c-0.333,0 -0.667,0 -1,0c-0.149,-1.052 0.017,-2.052 0.5,-3c2.771,-1.4028 5.271,-3.0695 7.5,-5z" fill="#414d60"/><path d="M270,164c1.358,0.3222 3.025,0.3222 5,0c0,0.3333 0,0.6667 0,1c-5.392,2.0371 -10.725,4.0371 -16,6c-0.271,-1.8797 0.396,-3.213 2,-4c1.586,-0.9132 3.086,-0.9132 4.5,0c1.615,-0.8862 3.115,-1.8862 4.5,-3z" fill="#313f54"/><path d="M353,157c-2.099,0.9279 -3.766,2.4279 -5,4.5c-2.406,0.3057 -4.573,1.139 -6.5,2.5c-1.301,-0.4602 -2.634,-0.7935 -4,-1c-1.376,0.1842 -2.209,0.8509 -2.5,2c-3.231,0.6814 -6.564,0.8481 -10,0.5c-0.828,0.9147 -1.828,1.5814 -3,2c-5.576,0.2285 -10.91,1.3951 -16,3.5c-1.333,0 -2.667,0 -4,0c-2.827,-0.8683 -5.827,-0.8683 -9,0c4.064,-1.6384 8.397,-2.6384 13,-3c2.065,-0.0172 4.065,-0.3505 6,-1c1.872,-2.2562 3.039,-4.9228 3.5,-8c0.498,2.0444 1.665,3.3777 3.5,4c-1.689,0.8037 -3.355,1.8037 -5,3c0.667,0.3333 1.333,0.6667 2,1c6.863,-2.7978 13.863,-5.1312 21,-7c4.404,-1.5606 8.904,-2.8939 13.5,-4c1.07,0.028 1.903,0.3614 2.5,1z" fill="#7184a4"/><path d="M331,159c2.235,-0.2947 4.235,0.0386 6,1c-7.137,1.8688 -14.137,4.2022 -21,7c-0.667,-0.3333 -1.333,-0.6667 -2,-1c1.645,-1.1963 3.311,-2.1963 5,-3c1.333,-0.6667 2.667,-1.3333 4,-2c2.612,-0.8705 5.279,-1.5372 8,-2z" fill="#a2b0ce"/><path d="M363,163c-2.229,1.9305 -4.729,3.5972 -7.5,5c-0.483,0.948 -0.649,1.948 -0.5,3c-1.1,1.1049 -1.767,2.4382 -2,4c-0.333,0 -0.667,0 -1,0c0.268,-1.599 -0.066,-2.9324 -1,-4c-1.413,-1.4911 -2.913,-2.1577 -4.5,-2c-2.025,2.1931 -4.525,3.1931 -7.5,3c0,-2.3333 0,-4.6667 0,-7c-1.333,0 -2.667,0 -4,0c0.291,-1.1491 1.124,-1.8158 2.5,-2c1.366,0.2065 2.699,0.5398 4,1c1.927,-1.361 4.094,-2.1943 6.5,-2.5c1.234,-2.0721 2.901,-3.5721 5,-4.5c1.517,-0.0106 2.684,-0.6772 3.5,-2c-0.199,4.6308 1.967,7.2975 6.5,8z" fill="#5b7091"/><path d="M368,167c1.69,0.3564 2.69,1.3564 3,3c0,0.3333 0,0.6667 0,1c-1.936,-0.759 -3.769,-1.759 -5.5,-3c-2.512,2.6856 -5.679,3.6856 -9.5,3c-0.082,-1.7517 0.751,-2.7517 2.5,-3c3.105,-0.8672 6.272,-1.2006 9.5,-1z" fill="#354046"/><path d="M275,165c-1.074,1.784 -2.74,2.9506 -5,3.5c10.713,-0.0324 21.379,-0.8658 32,-2.5c1.88,-0.2709 3.213,0.3958 4,2c-4.603,0.3616 -8.936,1.3616 -13,3c-0.667,0 -1.333,0 -2,0c-10.943,0.2877 -21.61,1.2877 -32,3c0,-0.6667 0,-1.3333 0,-2c0,-0.3333 0,-0.6667 0,-1c5.275,-1.9629 10.608,-3.9629 16,-6z" fill="#5a739d"/><path d="M137,176c-4.384,0.3256 -8.717,-0.0078 -13,-1c-0.881,-1.4705 -2.214,-2.3038 -4,-2.5c0.828,-0.9147 1.828,-1.5814 3,-2c-2.435,-0.0748 -3.102,-0.9081 -2,-2.5c2.907,-2.3046 6.241,-3.6379 10,-4c5.002,-1.0716 9.835,-0.4049 14.5,2c3.348,-1.4306 6.515,-1.0973 9.5,1c-1.353,1.0237 -2.02,2.357 -2,4c-5.529,1.556 -10.863,3.2226 -16,5z" fill="#b3b0bd"/><path d="M378,168c1.844,0.7039 2.344,2.0372 1.5,4c-1.011,0.8366 -2.178,1.17 -3.5,1c0,-1.3333 0,-2.6667 0,-4c0.342,-0.8382 1.008,-1.1716 2,-1z" fill="#92a1b7"/><path d="M199,172c1.923,0.295 3.59,1.1283 5,2.5c-0.916,0.2784 -1.582,0.7784 -2,1.5c-2.246,0.9552 -4.579,1.6218 -7,2c-4.764,-0.1211 -9.097,1.2123 -13,4c-3.255,-1.141 -6.589,-1.974 -10,-2.5c-0.496,-1.9964 -1.496,-3.6631 -3,-5c9.804,-2.8874 19.804,-3.7207 30,-2.5z" fill="#d1cdd3"/><path d="M250,166c1.755,0.7403 3.422,1.0737 5,1c-1.629,1.6959 -1.296,2.6959 1,3c-0.221,1.2348 -0.888,2.2348 -2,3c0.825,0.8857 1.825,1.219 3,1c-1.55,1.2199 -3.216,1.2199 -5,0c-0.667,0 -1.333,0 -2,0c0,-1 0,-2 0,-3c-2.64,0.454 -4.973,1.6207 -7,3.5c-1.973,0.4955 -3.973,0.6621 -6,0.5c-0.667,0 -1.333,0 -2,0c3.202,-2.1827 6.536,-4.1827 10,-6c1.465,-1.2368 3.132,-2.2368 5,-3z" fill="#404a6a"/><path d="M371,171c0.968,2.1074 1.302,4.4407 1,7c0.16,1.699 -0.006,3.366 -0.5,5c-0.464,-0.594 -0.631,-1.261 -0.5,-2c0,-2.6667 0,-5.3333 0,-8c-3.646,-0.7834 -7.312,-0.9501 -11,-0.5c1.558,0.21 2.891,0.71 4,1.5c-5.044,0.0632 -8.377,2.3966 -10,7c-0.901,0.79 -1.568,1.79 -2,3c-0.639,-0.597 -0.972,-1.43 -1,-2.5c0.533,-2.2261 1.2,-4.3927 2,-6.5c0.233,-1.5618 0.9,-2.8951 2,-4c0.333,0 0.667,0 1,0c3.821,0.6856 6.988,-0.3144 9.5,-3c1.731,1.241 3.564,2.241 5.5,3z" fill="#27272e"/><path d="M291,171c-2.524,1.2399 -5.191,2.4066 -8,3.5c-7.659,0.4997 -15.326,0.6664 -23,0.5c-0.667,0 -1,-0.3333 -1,-1c10.39,-1.7123 21.057,-2.7123 32,-3z" fill="#7b8eb1"/><path d="M302,171c0,0.6667 -0.333,1 -1,1c-3.525,0.7097 -6.858,1.7097 -10,3c-3.296,0.9243 -6.629,1.9243 -10,3c-0.47,-1.1935 -1.47,-1.8601 -3,-2c-4.649,0.6499 -9.316,1.1499 -14,1.5c-1.473,0.7096 -2.14,1.8762 -2,3.5c-0.958,-1.8024 -1.625,-3.8024 -2,-6c7.674,0.1664 15.341,-0.0003 23,-0.5c2.809,-1.0934 5.476,-2.2601 8,-3.5c0.667,0 1.333,0 2,0c3.173,-0.8683 6.173,-0.8683 9,0z" fill="#99a5c4"/><path d="M199,168c4.241,1.4383 8.575,2.9383 13,4.5c-0.556,0.3826 -0.889,0.8826 -1,1.5c-3,0.6667 -6,1.3333 -9,2c0.418,-0.7216 1.084,-1.2216 2,-1.5c-1.41,-1.3717 -3.077,-2.205 -5,-2.5c-0.73,-1.545 -2.063,-2.3784 -4,-2.5c-10.75,-0.9022 -21.417,-0.4022 -32,1.5c0,1.3333 0,2.6667 0,4c-5.395,-0.9452 -7.061,1.0548 -5,6c8.845,2.487 17.845,3.154 27,2c-2.255,1.88 -4.922,2.88 -8,3c-4.142,0.731 -8.142,1.065 -12,1c-3.554,-0.555 -6.887,-1.721 -10,-3.5c-0.563,-2.65 -0.563,-5.8171 0,-9.5c1.052,0.1495 2.052,-0.0172 3,-0.5c2.521,-3.2607 5.855,-4.9274 10,-5c10.328,-0.4998 20.661,-0.6665 31,-0.5z" fill="#b7b6c2"/><path d="M378,168c0.709,-0.904 1.709,-1.2373 3,-1c0.888,2.5545 1.221,5.2212 1,8c-2.333,0 -4.667,0 -7,0c-0.295,-2.2354 0.039,-4.2354 1,-6c0,1.3333 0,2.6667 0,4c1.322,0.17 2.489,-0.1634 3.5,-1c0.844,-1.9628 0.344,-3.2961 -1.5,-4z" fill="#5f6d8c"/><path d="M199,172c-10.196,-1.2207 -20.196,-0.3874 -30,2.5c1.504,1.3369 2.504,3.0036 3,5c3.411,0.526 6.745,1.359 10,2.5c3.903,-2.7877 8.236,-4.1211 13,-4c-2.544,1.669 -5.21,3.335 -8,5c-0.667,0 -1.333,0 -2,0c-9.155,1.154 -18.155,0.487 -27,-2c-2.061,-4.9452 -0.395,-6.9452 5,-6c0,-1.3333 0,-2.6667 0,-4c10.583,-1.9022 21.25,-2.4022 32,-1.5c1.937,0.1216 3.27,0.955 4,2.5z" fill="#c4c3cb"/><path d="M371,181c-0.667,-1 -1.333,-2 -2,-3c-1.085,-2.0869 -2.751,-3.4202 -5,-4c-1.109,-0.79 -2.442,-1.29 -4,-1.5c3.688,-0.4501 7.354,-0.2834 11,0.5c0,2.6667 0,5.3333 0,8z" fill="#110d10"/><path d="M351,171c0.934,1.0676 1.268,2.401 1,4c-1.297,1.8713 -2.297,3.8713 -3,6c0.157,-1.373 -0.01,-2.7068 -0.5,-4c-1.798,2.3367 -3.965,3.003 -6.5,2c-1.333,0.667 -2.667,1.333 -4,2c-0.886,-0.825 -1.219,-1.825 -1,-3c-2.935,0.2167 -5.769,0.8834 -8.5,2c-1.812,0.007 -3.312,-0.66 -4.5,-2c-2.023,1.673 -4.356,2.34 -7,2c0,-1 0,-2 0,-3c0.617,0.1107 1.117,0.444 1.5,1c0.752,-3.3341 2.919,-5.0008 6.5,-5c3.863,2.5966 7.696,2.5966 11.5,0c1.396,0.8943 2.896,1.5609 4.5,2c3.064,-0.8506 5.898,-0.8506 8.5,0c0.791,-1.245 1.291,-2.5783 1.5,-4z" fill="#42516d"/><path d="M364,174c2.249,0.5798 3.915,1.9131 5,4c0.149,1.052 -0.017,2.052 -0.5,3c-1.117,-1.6243 -2.617,-2.6243 -4.5,-3c-2.605,1.2695 -4.938,2.936 -7,5c1.425,-4.2399 0.425,-4.9066 -3,-2c1.623,-4.6034 4.956,-6.9368 10,-7z" fill="#5c595d"/><path d="M383,159c0.973,2.4479 1.306,5.1146 1,8c-1,0 -2,0 -3,0c-1.291,-0.2373 -2.291,0.096 -3,1c-0.992,-0.1716 -1.658,0.1618 -2,1c-0.961,1.7646 -1.295,3.7646 -1,6c2.333,0 4.667,0 7,0c-1.779,1.8435 -4.112,2.5102 -7,2c0.377,4.953 -0.289,9.619 -2,14c-0.997,0.03 -1.664,-0.47 -2,-1.5c2.143,-3.812 2.477,-7.645 1,-11.5c0.302,-2.5593 -0.032,-4.8926 -1,-7c0,-0.3333 0,-0.6667 0,-1c2.599,-1.2608 4.932,-2.9275 7,-5c1.635,-0.5463 3.301,-0.8796 5,-1c0,-1.6667 0,-3.3333 0,-5z" fill="#3a4351"/><path d="M137,162c2.065,0.0172 4.065,0.3505 6,1c7.604,-0.4453 14.938,0.7214 22,3.5c11.507,0.1694 22.841,0.6694 34,1.5c-10.339,-0.1665 -20.672,0.0002 -31,0.5c-4.145,0.0726 -7.479,1.7393 -10,5c-0.948,0.4828 -1.948,0.6495 -3,0.5c-0.563,3.6829 -0.563,6.85 0,9.5c3.113,1.779 6.446,2.945 10,3.5c3.858,0.065 7.858,-0.269 12,-1c-0.333,1 -1,1.667 -2,2c-8.887,1.44 -17.22,-0.06 -25,-4.5c-1.634,-0.494 -3.301,-0.66 -5,-0.5c0.309,-5.3955 -2.358,-7.7288 -8,-7c5.137,-1.7774 10.471,-3.444 16,-5c-0.02,-1.643 0.647,-2.9763 2,-4c-2.985,-2.0973 -6.152,-2.4306 -9.5,-1c-4.665,-2.4049 -9.498,-3.0716 -14.5,-2c1.602,-1.5739 3.602,-2.2406 6,-2z" fill="#a8a7b5"/><path d="M237,176c1.175,-0.219 2.175,0.1143 3,1c-1,0.8333 -2,1.6667 -3,2.5c-8.739,1.869 -17.406,4.036 -26,6.5c0,-0.333 0,-0.667 0,-1c0.473,-1.406 1.473,-2.073 3,-2c0.06,0.543 0.393,0.876 1,1c7.593,-2.338 14.926,-5.0043 22,-8z" fill="#4d6287"/><path d="M115,171c0.131,0.7389 -0.036,1.4056 -0.5,2c-1.586,0.876 -3.086,1.876 -4.5,3c1.237,0.7807 2.237,1.7807 3,3c7.634,1.108 15.3,1.942 23,2.5c1.733,1.189 3.4,2.356 5,3.5c-10.35,-3.038 -21.016,-4.371 -32,-4c0,-1 0,-2 0,-3c-2.235,-0.2947 -4.235,0.0386 -6,1c-1.21,0.4321 -2.21,1.099 -3,2c-3.196,1.429 -6.196,3.095 -9,5c-1.363,3.098 -3.697,4.765 -7,5c-0.419,-2.825 0.581,-4.991 3,-6.5c9.436,-4.218 18.769,-8.7175 28,-13.5z" fill="#7b7c90"/><path d="M235,175c0.667,0 1.333,0 2,0c0,0.3333 0,0.6667 0,1c-7.074,2.9957 -14.407,5.662 -22,8c-0.607,-0.124 -0.94,-0.457 -1,-1c4.497,-2.413 9.163,-4.5801 14,-6.5c2.24,-0.977 4.573,-1.477 7,-1.5z" fill="#485772"/><path d="M250,174c-7.969,3.4848 -14.636,8.651 -20,15.5c-3.053,1.527 -6.053,3.027 -9,4.5c-1.776,-0.294 -3.776,-0.46 -6,-0.5c1.807,-1.602 3.807,-2.936 6,-4c-1.146,-0.645 -2.146,-1.478 -3,-2.5c-2.336,0.123 -4.669,0.456 -7,1c0,-0.667 0,-1.333 0,-2c8.594,-2.464 17.261,-4.631 26,-6.5c1,-0.8333 2,-1.6667 3,-2.5c-0.825,-0.8857 -1.825,-1.219 -3,-1c0,-0.3333 0,-0.6667 0,-1c2.027,0.1621 4.027,-0.0045 6,-0.5c2.027,-1.8793 4.36,-3.046 7,-3.5c0,1 0,2 0,3z" fill="#44608e"/><path d="M335,165c1.333,0 2.667,0 4,0c0,2.3333 0,4.6667 0,7c2.975,0.1931 5.475,-0.8069 7.5,-3c1.587,-0.1577 3.087,0.5089 4.5,2c-0.209,1.4217 -0.709,2.755 -1.5,4c-2.602,-0.8506 -5.436,-0.8506 -8.5,0c-1.604,-0.4391 -3.104,-1.1057 -4.5,-2c-3.804,2.5966 -7.637,2.5966 -11.5,0c-3.581,-0.0008 -5.748,1.6659 -6.5,5c-0.383,-0.556 -0.883,-0.8893 -1.5,-1c0.03,-0.9972 -0.47,-1.6639 -1.5,-2c-3.403,0.355 -6.236,1.6883 -8.5,4c-3.173,0.67 -6.173,1.836 -9,3.5c-2.624,2.658 -5.291,5.325 -8,8c-2.982,0.498 -5.982,0.665 -9,0.5c4.757,-2.882 9.757,-5.549 15,-8c2.507,-2.374 4.507,-5.0405 6,-8c1.667,0 3.333,0 5,0c0,-1 0,-2 0,-3c3.513,0.6243 6.347,-0.3757 8.5,-3c0.483,0.948 0.649,1.948 0.5,3c3.737,-0.6991 7.403,-1.6991 11,-3c4.643,2.3455 7.31,1.0122 8,-4z" fill="#556784"/><path d="M382,175c1.333,0 2.667,0 4,0c-0.333,2.6667 -0.667,5.333 -1,8c-1.567,1.181 -2.401,2.847 -2.5,5c-1.913,2.78 -4.413,4.447 -7.5,5c-1.333,0 -2,-0.667 -2,-2c1.711,-4.381 2.377,-9.047 2,-14c2.888,0.5102 5.221,-0.1565 7,-2z" fill="#292b38"/><path d="M121,168c-1.102,1.5919 -0.435,2.4252 2,2.5c-1.172,0.4186 -2.172,1.0853 -3,2c1.786,0.1962 3.119,1.0295 4,2.5c4.283,0.9922 8.616,1.3256 13,1c5.642,-0.7288 8.309,1.6045 8,7c1.699,-0.16 3.366,0.006 5,0.5c7.78,4.44 16.113,5.94 25,4.5c-2.071,1.445 -4.404,2.445 -7,3c-4.346,0.166 -8.679,-0.001 -13,-0.5c-4.503,-2.503 -9.169,-4.336 -14,-5.5c-1.6,-1.144 -3.267,-2.311 -5,-3.5c-7.7,-0.558 -15.366,-1.392 -23,-2.5c-0.763,-1.2193 -1.763,-2.2193 -3,-3c1.414,-1.124 2.914,-2.124 4.5,-3c0.464,-0.5944 0.631,-1.2611 0.5,-2c2.017,-1.0294 4.017,-2.0294 6,-3z" fill="#9595a7"/><path d="M103,179c1.765,-0.9614 3.765,-1.2947 6,-1c0,1 0,2 0,3c10.984,-0.371 21.65,0.962 32,4c4.831,1.164 9.497,2.997 14,5.5c4.321,0.499 8.654,0.666 13,0.5c-3.325,1.706 -6.992,3.039 -11,4c-3.084,-1.601 -6.417,-2.268 -10,-2c-0.683,-1.676 -2.017,-2.343 -4,-2c-0.304,-0.65 -0.637,-1.317 -1,-2c-3.764,-1.187 -7.098,-3.02 -10,-5.5c-8.345,-0.525 -16.678,-1.191 -25,-2c-0.971,-1.481 -2.304,-2.3146 -4,-2.5z" fill="#727894"/><path d="M241,169c1.333,0 2.667,0 4,0c-3.464,1.8173 -6.798,3.8173 -10,6c-2.427,0.023 -4.76,0.523 -7,1.5c-4.837,1.9199 -9.503,4.087 -14,6.5c-1.527,-0.073 -2.527,0.594 -3,2c-3.86,1.181 -7.527,2.848 -11,5c-0.321,-1.548 -1.321,-2.215 -3,-2c4.951,-3.42 10.285,-6.253 16,-8.5c9.489,-3.2515 18.823,-6.7515 28,-10.5z" fill="#828699"/><path d="M366,207c-2.487,2.964 -5.487,3.631 -9,2c0.086,-0.996 -0.248,-1.829 -1,-2.5c1.845,0.783 3.845,1.116 6,1c6.745,-6.964 7.745,-14.631 3,-23c-4.999,-0.552 -5.166,-0.052 -0.5,1.5c1.434,3.906 1.767,7.906 1,12c-0.333,-1 -0.667,-2 -1,-3c-0.376,2.51 -1.21,4.843 -2.5,7c-2.689,-1.291 -5.355,-1.291 -8,0c-0.208,-5.135 0.459,-10.135 2,-15c1.753,-2.918 4.253,-4.918 7.5,-6c1.92,0.588 3.587,1.588 5,3c2.551,8.117 1.718,15.784 -2.5,23z" fill="#1d1a18"/><path d="M100,181c2.808,1.429 5.808,2.095 9,2c3.142,2.073 6.476,3.907 10,5.5c-2.497,2.17 -4.33,1.67 -5.5,-1.5c-1.119,1.052 -1.619,2.219 -1.5,3.5c-2.31,0.497 -4.643,0.663 -7,0.5c-1.235,-1.517 -1.235,-3.184 0,-5c-0.525,-0.692 -1.192,-1.192 -2,-1.5c-3.027,0.942 -6.027,1.442 -9,1.5c-1,0 -2,0 -3,0c2.804,-1.905 5.804,-3.571 9,-5z" fill="#434f72"/><path d="M241,169c-9.177,3.7485 -18.511,7.2485 -28,10.5c-5.715,2.247 -11.049,5.08 -16,8.5c-7.985,2.996 -15.985,5.996 -24,9c0,-0.333 0,-0.667 0,-1c0.342,-0.838 1.008,-1.172 2,-1c12.337,-4.893 24.337,-10.56 36,-17c-0.876,-0.7508 -1.876,-1.2508 -3,-1.5c2.8,-1.2319 5.8,-1.8985 9,-2c-2.095,-0.5556 -2.262,-1.0556 -0.5,-1.5c2.094,1.1326 3.594,0.4659 4.5,-2c1.714,-1.2384 3.714,-1.905 6,-2c1.333,-0.3333 2.667,-0.6667 4,-1c3.612,-1.0114 7.279,-1.1781 11,-0.5c-0.556,0.3826 -0.889,0.8826 -1,1.5z" fill="#323952"/><path d="M109,183c6.26,1.206 12.593,2.039 19,2.5c2.416,0.661 4.082,2.161 5,4.5c3.268,0.987 6.602,1.32 10,1c1.983,-0.343 3.317,0.324 4,2c-3.228,0.201 -6.395,-0.133 -9.5,-1c-1.722,0.111 -1.888,0.611 -0.5,1.5c-1.973,0.495 -3.973,0.662 -6,0.5c-0.273,1.951 0.393,3.451 2,4.5c-1.675,0.985 -3.342,1.819 -5,2.5c-1.667,0 -3.333,0 -5,0c-2.587,-1.249 -5.254,-2.249 -8,-3c0.086,-0.996 -0.248,-1.829 -1,-2.5c-2.31,-0.497 -4.643,-0.663 -7,-0.5c-0.233,-1.562 -0.9,-2.895 -2,-4c2.357,0.163 4.69,-0.003 7,-0.5c-0.119,-1.281 0.381,-2.448 1.5,-3.5c1.17,3.17 3.003,3.67 5.5,1.5c-3.524,-1.593 -6.858,-3.427 -10,-5.5z" fill="#4a577e"/><path d="M248,191c0.215,1.679 -0.452,2.679 -2,3c-2.088,-1.439 -4.421,-2.106 -7,-2c0.611,-2.275 1.945,-3.941 4,-5c2.669,-1.335 5.169,-3.001 7.5,-5c-1.005,2.826 -1.839,5.826 -2.5,9z" fill="#a3a8be"/><path d="M221,171c-0.906,2.4659 -2.406,3.1326 -4.5,2c-1.762,0.4444 -1.595,0.9444 0.5,1.5c-3.2,0.1015 -6.2,0.7681 -9,2c1.124,0.2492 2.124,0.7492 3,1.5c-11.663,6.44 -23.663,12.107 -36,17c-0.311,-0.978 -0.978,-1.645 -2,-2c-1.268,0.928 -2.601,1.095 -4,0.5c4.952,-3.723 10.619,-5.89 17,-6.5c-0.067,-1.459 0.266,-2.792 1,-4c2.79,-1.665 5.456,-3.331 8,-5c2.421,-0.3782 4.754,-1.0448 7,-2c3,-0.6667 6,-1.3333 9,-2c3.127,-1.4973 6.46,-2.4973 10,-3z" fill="#455779"/><path d="M302,171c1.333,0 2.667,0 4,0c-1.031,0.7485 -2.198,1.4152 -3.5,2c-0.464,0.5944 -0.631,1.2611 -0.5,2c-1.493,2.9595 -3.493,5.626 -6,8c-5.243,2.451 -10.243,5.118 -15,8c-3.312,1.32 -6.645,2.654 -10,4c-0.886,0.825 -1.219,1.825 -1,3c-2.333,0 -4.667,0 -7,0c-0.883,-4.603 -1.217,-9.27 -1,-14c-2.609,0.33 -4.276,1.83 -5,4.5c-3.627,0.463 -6.293,2.297 -8,5.5c0.209,0.586 0.543,1.086 1,1.5c-1.64,0.348 -2.973,-0.152 -4,-1.5c1.548,-0.321 2.215,-1.321 2,-3c2.117,-2.33 4.617,-4.33 7.5,-6c0.615,-1.616 1.615,-2.949 3,-4c0.49,-1.293 0.657,-2.6266 0.5,-4c-7.58,-0.2124 -12.913,3.121 -16,10c-2.055,1.059 -3.389,2.725 -4,5c-1.109,0.057 -2.109,0.39 -3,1c-0.333,0 -0.667,0 -1,0c-0.418,-0.722 -1.084,-1.222 -2,-1.5c2.105,-1.193 3.772,-2.86 5,-5c1.4,-1.438 3.067,-2.271 5,-2.5c0.781,-4.276 3.448,-6.7761 8,-7.5c0.752,-0.6708 1.086,-1.5041 1,-2.5c1.784,1.2199 3.45,1.2199 5,0c0.667,-0.6667 1.333,-1.3333 2,-2c0,0.6667 0,1.3333 0,2c0,0.6667 0.333,1 1,1c0.375,2.1976 1.042,4.1976 2,6c-0.172,0.992 0.162,1.658 1,2c0,2.667 0,5.333 0,8c-0.262,1.478 0.071,2.811 1,4c5.644,-1.236 10.977,-3.069 16,-5.5c4.229,-3.233 8.895,-5.567 14,-7c3.689,-2.687 6.022,-6.1872 7,-10.5c0.667,0 1,-0.3333 1,-1z" fill="#6b7894"/><path d="M301,172c-0.978,4.3128 -3.311,7.813 -7,10.5c-5.105,1.433 -9.771,3.767 -14,7c-5.023,2.431 -10.356,4.264 -16,5.5c-0.929,-1.189 -1.262,-2.522 -1,-4c2.687,0.164 5.354,-0.003 8,-0.5c-0.333,-0.333 -0.667,-0.667 -1,-1c5.344,-0.563 10.344,-2.063 15,-4.5c0.748,-1.832 1.748,-3.499 3,-5c-0.333,-0.6667 -0.667,-1.3333 -1,-2c1.832,-0.5568 3.165,-1.5568 4,-3c3.142,-1.2903 6.475,-2.2903 10,-3z" fill="#76849e"/><path d="M291,175c-0.835,1.4432 -2.168,2.4432 -4,3c0.333,0.6667 0.667,1.3333 1,2c-1.252,1.501 -2.252,3.168 -3,5c-4.656,2.437 -9.656,3.937 -15,4.5c0.333,0.333 0.667,0.667 1,1c-2.646,0.497 -5.313,0.664 -8,0.5c0,-2.667 0,-5.333 0,-8c6.116,-1.261 12.116,-2.928 18,-5c3.371,-1.0757 6.704,-2.0757 10,-3z" fill="#8896af"/><path d="M248,191c0.661,-3.174 1.495,-6.174 2.5,-9c-2.331,1.999 -4.831,3.665 -7.5,5c3.087,-6.879 8.42,-10.2124 16,-10c0.157,1.3734 -0.01,2.707 -0.5,4c-1.385,1.051 -2.385,2.384 -3,4c-2.883,1.67 -5.383,3.67 -7.5,6z" fill="#8f98b4"/><path d="M281,178c-5.884,2.072 -11.884,3.739 -18,5c-0.838,-0.342 -1.172,-1.008 -1,-2c-0.14,-1.6238 0.527,-2.7904 2,-3.5c4.684,-0.3501 9.351,-0.8501 14,-1.5c1.53,0.1399 2.53,0.8065 3,2z" fill="#b3bdcf"/><path d="M105,191c1.1,1.105 1.767,2.438 2,4c-6.25,0.412 -11.916,-1.088 -17,-4.5c1.199,-1.694 2.532,-3.194 4,-4.5c2.973,-0.058 5.973,-0.558 9,-1.5c0.808,0.308 1.475,0.808 2,1.5c-1.235,1.816 -1.235,3.483 0,5z" fill="#38456e"/><path d="M103,179c1.696,0.1854 3.029,1.019 4,2.5c8.322,0.809 16.655,1.475 25,2c2.902,2.48 6.236,4.313 10,5.5c0.363,0.683 0.696,1.35 1,2c-3.398,0.32 -6.732,-0.013 -10,-1c-0.918,-2.339 -2.584,-3.839 -5,-4.5c-6.407,-0.461 -12.74,-1.294 -19,-2.5c-3.192,0.095 -6.192,-0.571 -9,-2c0.79,-0.901 1.79,-1.5679 3,-2z" fill="#5f6888"/><path d="M357,183c-0.838,0.342 -1.172,1.008 -1,2c-2.095,4.346 -3.595,9.013 -4.5,14c-0.671,0.752 -1.504,1.086 -2.5,1c0,-0.333 0,-0.667 0,-1c0.838,-0.342 1.172,-1.008 1,-2c1.982,-2.873 2.315,-5.873 1,-9c-0.067,-1.459 0.266,-2.792 1,-4c0.432,-1.21 1.099,-2.21 2,-3c3.425,-2.9066 4.425,-2.2399 3,2z" fill="#7a7778"/><path d="M348,185c-0.017,2.065 -0.35,4.065 -1,6c-2.667,0 -5.333,0 -8,0c-0.744,3.45 0.59,5.116 4,5c0.383,4.968 -1.284,5.968 -5,3c-1.932,1.02 -3.932,1.187 -6,0.5c0.667,-0.333 1.333,-0.667 2,-1c-1.833,-0.5 -3,-1.667 -3.5,-3.5c-0.333,0.333 -0.667,0.667 -1,1c-0.795,-2.401 -1.962,-4.568 -3.5,-6.5c-1.244,-0.456 -2.077,0.044 -2.5,1.5c-0.807,-3.949 -1.307,-3.949 -1.5,0c-1,0 -2,0 -3,0c0.457,6.295 1.79,12.295 4,18c0,0.667 -0.333,1 -1,1c-0.417,-0.624 -1.084,-0.957 -2,-1c-2.319,0.564 -4.653,1.064 -7,1.5c-6.564,2.637 -13.23,4.637 -20,6c3.861,-3.254 6.028,-7.421 6.5,-12.5c1.079,1.894 2.413,2.227 4,1c0.482,-3.613 1.648,-6.947 3.5,-10c-1.052,-1.723 -1.052,-3.39 0,-5c3.062,-1.902 6.228,-3.569 9.5,-5c5.803,0.301 11.637,0.634 17.5,1c0.929,-1.189 1.262,-2.522 1,-4c2.297,1.495 4.63,2.495 7,3c0.886,-0.825 1.219,-1.825 1,-3c1.89,0.203 3.39,-0.463 4.5,-2c-0.526,1.727 -0.359,3.394 0.5,5z" fill="#323954"/><path d="M352,175c0.333,0 0.667,0 1,0c-0.8,2.1073 -1.467,4.2739 -2,6.5c0.028,1.07 0.361,1.903 1,2.5c-0.734,1.208 -1.067,2.541 -1,4c-0.903,2.891 -1.236,5.891 -1,9c0.172,0.992 -0.162,1.658 -1,2c-0.177,-6.634 -0.677,-6.634 -1.5,0c-0.779,2.597 -1.279,2.597 -1.5,0c0.592,-2.627 0.925,-5.294 1,-8c0.65,-1.935 0.983,-3.935 1,-6c0.934,-1.068 1.268,-2.401 1,-4c0.703,-2.1287 1.703,-4.1287 3,-6z" fill="#606575"/><path d="M351,188c1.315,3.127 0.982,6.127 -1,9c-0.236,-3.109 0.097,-6.109 1,-9z" fill="#b3b1b6"/><path d="M91,186c1,0 2,0 3,0c-1.468,1.306 -2.801,2.806 -4,4.5c5.084,3.412 10.75,4.912 17,4.5c2.357,-0.163 4.69,0.003 7,0.5c0.752,0.671 1.086,1.504 1,2.5c-5.375,0.328 -10.708,-0.005 -16,-1c-5.69,-0.933 -11.023,-2.266 -16,-4c-0.172,-0.992 0.162,-1.658 1,-2c3.303,-0.235 5.637,-1.902 7,-5z" fill="#3b4360"/><path d="M197,188c1.679,-0.215 2.679,0.452 3,2c-3.088,1.369 -6.088,2.869 -9,4.5c-0.881,0.708 -1.547,1.542 -2,2.5c-3.181,0.849 -5.848,2.515 -8,5c-6.879,-0.022 -13.546,0.812 -20,2.5c2.798,-1.598 5.798,-2.765 9,-3.5c0.363,-0.683 0.696,-1.35 1,-2c0.667,-0.667 1.333,-1.333 2,-2c8.015,-3.004 16.015,-6.004 24,-9z" fill="#a2a2b1"/><path d="M185,183c0.667,0 1.333,0 2,0c-0.734,1.208 -1.067,2.541 -1,4c-6.381,0.61 -12.048,2.777 -17,6.5c1.399,0.595 2.732,0.428 4,-0.5c1.022,0.355 1.689,1.022 2,2c-0.992,-0.172 -1.658,0.162 -2,1c-4.483,1.498 -9.149,2.498 -14,3c-1.1,-1.105 -1.767,-2.438 -2,-4c4.008,-0.961 7.675,-2.294 11,-4c2.596,-0.555 4.929,-1.555 7,-3c1,-0.333 1.667,-1 2,-2c3.078,-0.12 5.745,-1.12 8,-3z" fill="#4d6584"/><path d="M211,185c0,0.333 0,0.667 0,1c0,0.667 0,1.333 0,2c-3.865,0.928 -7.198,2.594 -10,5c-3.402,2.028 -6.735,4.028 -10,6c-2.493,0.369 -3.16,-0.297 -2,-2c0.453,-0.958 1.119,-1.792 2,-2.5c2.912,-1.631 5.912,-3.131 9,-4.5c3.473,-2.152 7.14,-3.819 11,-5z" fill="#616885"/><path d="M357,209c-2.334,-1.676 -3.334,-4.009 -3,-7c2.645,-1.291 5.311,-1.291 8,0c1.29,-2.157 2.124,-4.49 2.5,-7c0.333,1 0.667,2 1,3c0.767,-4.094 0.434,-8.094 -1,-12c-4.666,-1.552 -4.499,-2.052 0.5,-1.5c4.745,8.369 3.745,16.036 -3,23c-2.155,0.116 -4.155,-0.217 -6,-1c0.752,0.671 1.086,1.504 1,2.5z" fill="#2c2928"/><path d="M221,194c-1.096,2.267 -2.763,4.1 -5,5.5c-4.048,2.069 -8.381,3.236 -13,3.5c-2.465,0.022 -4.798,-0.478 -7,-1.5c3.964,-3.893 3.464,-4.393 -1.5,-1.5c-0.167,-0.333 -0.333,-0.667 -0.5,-1c3.485,-1.575 6.818,-3.409 10,-5.5c-0.948,-0.483 -1.948,-0.649 -3,-0.5c2.802,-2.406 6.135,-4.072 10,-5c2.331,-0.544 4.664,-0.877 7,-1c0.854,1.022 1.854,1.855 3,2.5c-2.193,1.064 -4.193,2.398 -6,4c2.224,0.04 4.224,0.206 6,0.5z" fill="#4b6893"/><path d="M317,177c0,1 0,2 0,3c2.644,0.34 4.977,-0.327 7,-2c1.188,1.34 2.688,2.007 4.5,2c2.731,-1.1166 5.565,-1.7833 8.5,-2c-0.219,1.175 0.114,2.175 1,3c1.333,-0.667 2.667,-1.333 4,-2c2.535,1.003 4.702,0.3367 6.5,-2c0.49,1.2932 0.657,2.627 0.5,4c0.268,1.599 -0.066,2.932 -1,4c-0.859,-1.606 -1.026,-3.273 -0.5,-5c-1.11,1.537 -2.61,2.203 -4.5,2c0.219,1.175 -0.114,2.175 -1,3c-2.37,-0.505 -4.703,-1.505 -7,-3c0.262,1.478 -0.071,2.811 -1,4c-5.863,-0.366 -11.697,-0.699 -17.5,-1c-3.272,1.431 -6.438,3.098 -9.5,5c-1.052,1.61 -1.052,3.277 0,5c-1.852,3.053 -3.018,6.387 -3.5,10c-1.587,1.227 -2.921,0.894 -4,-1c-0.472,5.079 -2.639,9.246 -6.5,12.5c6.77,-1.363 13.436,-3.363 20,-6c2.347,-0.436 4.681,-0.936 7,-1.5c0.916,0.043 1.583,0.376 2,1c-13.04,4.014 -26.04,8.014 -39,12c-2.627,0.592 -5.294,0.925 -8,1c-2.027,0.162 -4.027,-0.005 -6,-0.5c2.025,-1.194 2.359,-2.694 1,-4.5c2.679,-2.187 5.679,-3.687 9,-4.5c0.612,-1.303 0.946,-2.47 1,-3.5c0.667,1 1.333,2 2,3c1.333,-0.667 2.667,-1.333 4,-2c2.081,-3.57 3.915,-7.237 5.5,-11c3.162,-1.818 5.828,-4.152 8,-7c-0.498,-2.027 -0.331,-4.027 0.5,-6c2.333,-1.167 4.667,-2.333 7,-3.5c-1.333,-0.667 -1.333,-1.333 0,-2c0.949,-0.617 1.782,-0.451 2.5,0.5c2.128,-2.307 4.628,-3.9738 7.5,-5z" fill="#3e4660"/><path d="M263,198c-2.597,-0.9 -4.931,-0.233 -7,2c-2.132,-1.617 -4.465,-2.117 -7,-1.5c2.297,1.263 3.13,3.097 2.5,5.5c-1.129,-1.641 -2.629,-2.641 -4.5,-3c-1.091,-2.034 -2.757,-3.368 -5,-4c-3.35,-0.165 -6.683,0.002 -10,0.5c-1.991,0.374 -3.658,1.207 -5,2.5c-2.912,1.566 -5.579,3.566 -8,6c-1.245,3.565 -3.245,6.565 -6,9c0.689,-2.853 2.022,-5.353 4,-7.5c-0.183,-1.684 -0.85,-1.85 -2,-0.5c1.243,-2.253 2.91,-4.253 5,-6c5.456,-2.728 10.79,-5.395 16,-8c0.891,-0.61 1.891,-0.943 3,-1c2.579,-0.106 4.912,0.561 7,2c1.027,1.348 2.36,1.848 4,1.5c-0.457,-0.414 -0.791,-0.914 -1,-1.5c1.707,-3.203 4.373,-5.037 8,-5.5c0.724,-2.67 2.391,-4.17 5,-4.5c-0.217,4.73 0.117,9.397 1,14z" fill="#596885"/><path d="M242,197c-2.131,-0.814 -4.464,-1.314 -7,-1.5c3.565,-2.035 6.898,-1.701 10,1c-0.948,0.483 -1.948,0.649 -3,0.5z" fill="#959fb7"/><path d="M83,193c4.977,1.734 10.31,3.067 16,4c5.292,0.995 10.625,1.328 16,1c2.746,0.751 5.413,1.751 8,3c0,0.667 0,1.333 0,2c-10.065,-2.15 -20.232,-3.816 -30.5,-5c-3.941,-2.943 -6.441,-1.943 -7.5,3c0.656,1.953 0.989,3.953 1,6c-1,0 -2,0 -3,0c-1.508,-1.681 -2.508,-3.681 -3,-6c0.629,-2.897 1.629,-5.564 3,-8z" fill="#3e3f4c"/><path d="M147,193c3.583,-0.268 6.916,0.399 10,2c0.233,1.562 0.9,2.895 2,4c-1.188,1.184 -2.355,1.184 -3.5,0c-0.595,1.399 -0.428,2.732 0.5,4c-2.64,2.153 -5.64,3.487 -9,4c0,-1 0,-2 0,-3c-1.667,0 -3.333,0 -5,0c-4.985,0.252 -9.652,-0.748 -14,-3c1.658,-0.681 3.325,-1.515 5,-2.5c-1.607,-1.049 -2.273,-2.549 -2,-4.5c2.027,0.162 4.027,-0.005 6,-0.5c-1.388,-0.889 -1.222,-1.389 0.5,-1.5c3.105,0.867 6.272,1.201 9.5,1z" fill="#55658b"/><path d="M242,197c2.243,0.632 3.909,1.966 5,4c-1.333,-0.333 -2.667,-0.667 -4,-1c-5.141,-0.438 -10.475,-0.438 -16,0c1.342,-1.293 3.009,-2.126 5,-2.5c3.317,-0.498 6.65,-0.665 10,-0.5z" fill="#272f40"/><path d="M235,193c0.333,0 0.667,0 1,0c-5.21,2.605 -10.544,5.272 -16,8c-2.09,1.747 -3.757,3.747 -5,6c-0.333,0 -0.667,0 -1,0c-0.596,-1.435 -0.596,-3.102 0,-5c1.052,0.149 2.052,-0.017 3,-0.5c4.828,-5.331 10.828,-8.164 18,-8.5z" fill="#465879"/><path d="M173,196c0,0.333 0,0.667 0,1c-0.667,0.667 -1.333,1.333 -2,2c-3.419,0.874 -6.752,2.04 -10,3.5c-2.694,2.347 -5.694,4.18 -9,5.5c-4.738,2.435 -9.738,4.102 -15,5c2.998,-2.502 6.332,-4.502 10,-6c3.36,-0.513 6.36,-1.847 9,-4c-0.928,-1.268 -1.095,-2.601 -0.5,-4c1.145,1.184 2.312,1.184 3.5,0c4.851,-0.502 9.517,-1.502 14,-3z" fill="#454d67"/><path d="M347,191c-0.075,2.706 -0.408,5.373 -1,8c-0.686,1.348 -1.686,2.515 -3,3.5c-6.643,2.27 -13.309,4.436 -20,6.5c-2.21,-5.705 -3.543,-11.705 -4,-18c1,0 2,0 3,0c0.193,-3.949 0.693,-3.949 1.5,0c0.423,-1.456 1.256,-1.956 2.5,-1.5c1.538,1.932 2.705,4.099 3.5,6.5c0.333,-0.333 0.667,-0.667 1,-1c0.5,1.833 1.667,3 3.5,3.5c-0.667,0.333 -1.333,0.667 -2,1c2.068,0.687 4.068,0.52 6,-0.5c3.716,2.968 5.383,1.968 5,-3c-3.41,0.116 -4.744,-1.55 -4,-5c2.667,0 5.333,0 8,0z" fill="#30384f"/><path d="M307,179c-3.628,4.199 -7.962,7.533 -13,10c1.027,2.554 0.194,4.554 -2.5,6c-0.333,-0.333 -0.667,-0.667 -1,-1c-4.513,1.68 -9.013,3.347 -13.5,5c0.14,1.624 -0.527,2.79 -2,3.5c-3.423,1.904 -7.09,2.737 -11,2.5c0.067,-1.459 -0.266,-2.792 -1,-4c0,-1 0,-2 0,-3c2.333,0 4.667,0 7,0c-0.219,-1.175 0.114,-2.175 1,-3c3.355,-1.346 6.688,-2.68 10,-4c3.018,0.165 6.018,-0.002 9,-0.5c2.709,-2.675 5.376,-5.342 8,-8c2.827,-1.664 5.827,-2.83 9,-3.5z" fill="#595f78"/><path d="M123,201c1.667,0 3.333,0 5,0c4.348,2.252 9.015,3.252 14,3c0.073,1.527 -0.594,2.527 -2,3c-0.652,-1.225 -1.819,-1.892 -3.5,-2c-4.502,-0.723 -9.002,-1.389 -13.5,-2c0,-0.667 0,-1.333 0,-2z" fill="#4e556a"/><path d="M250,174c0.667,0 1.333,0 2,0c0.086,0.9959 -0.248,1.8292 -1,2.5c-4.552,0.7239 -7.219,3.224 -8,7.5c-1.933,0.229 -3.6,1.062 -5,2.5c-1.228,2.14 -2.895,3.807 -5,5c0.916,0.278 1.582,0.778 2,1.5c-7.172,0.336 -13.172,3.169 -18,8.5c-0.948,0.483 -1.948,0.649 -3,0.5c-0.596,1.898 -0.596,3.565 0,5c-1.457,2.128 -2.457,4.462 -3,7c-7.008,0.166 -14.008,0 -21,-0.5c-5.04,-0.744 -5.207,-1.91 -0.5,-3.5c0.496,-1.535 0.33,-3.035 -0.5,-4.5c0.774,-2.154 1.441,-4.321 2,-6.5c3.265,-1.972 6.598,-3.972 10,-6c1.052,-0.149 2.052,0.017 3,0.5c-3.182,2.091 -6.515,3.925 -10,5.5c0.167,0.333 0.333,0.667 0.5,1c4.964,-2.893 5.464,-2.393 1.5,1.5c2.202,1.022 4.535,1.522 7,1.5c4.619,-0.264 8.952,-1.431 13,-3.5c2.237,-1.4 3.904,-3.233 5,-5.5c2.947,-1.473 5.947,-2.973 9,-4.5c5.364,-6.849 12.031,-12.0152 20,-15.5z" fill="#567197"/><path d="M243,200c-4.229,-0.265 -7.896,0.902 -11,3.5c3.027,0.545 5.36,2.045 7,4.5c-3.952,-0.772 -7.952,-1.105 -12,-1c0.108,2.014 -0.558,3.68 -2,5c-0.838,0.342 -1.172,1.008 -1,2c-2.701,1.715 -5.201,3.715 -7.5,6c-1.438,1.4 -2.271,3.067 -2.5,5c-1,0 -2,0 -3,0c1.433,-2.058 2.1,-4.392 2,-7c1,0 2,0 3,0c1.654,-3.978 3.321,-7.978 5,-12c2.354,-1.688 4.354,-3.688 6,-6c5.525,-0.438 10.859,-0.438 16,0z" fill="#121318"/><path d="M356,185c0,0.667 0,1.333 0,2c-1.541,4.865 -2.208,9.865 -2,15c-0.334,2.991 0.666,5.324 3,7c3.513,1.631 6.513,0.964 9,-2c0.863,-0.963 1.53,-0.963 2,0c-1.766,3.937 -4.599,6.603 -8.5,8c-2.239,-0.591 -4.406,-1.258 -6.5,-2c-0.342,-0.838 -1.008,-1.172 -2,-1c0,-0.667 -0.333,-1 -1,-1c-0.333,-1.333 -0.667,-2.667 -1,-4c0,-2.333 0,-4.667 0,-7c0.996,0.086 1.829,-0.248 2.5,-1c0.905,-4.987 2.405,-9.654 4.5,-14z" fill="#565251"/><path d="M123,203c4.498,0.611 8.998,1.277 13.5,2c1.681,0.108 2.848,0.775 3.5,2c-2,0.667 -4,1.333 -6,2c0.086,-0.996 -0.248,-1.829 -1,-2.5c-3.559,-0.852 -6.893,-2.019 -10,-3.5z" fill="#33383f"/><path d="M317,177c-2.872,1.0262 -5.372,2.693 -7.5,5c-0.718,-0.951 -1.551,-1.117 -2.5,-0.5c-1.333,0.667 -1.333,1.333 0,2c-2.333,1.167 -4.667,2.333 -7,3.5c-0.831,1.973 -0.998,3.973 -0.5,6c-2.172,2.848 -4.838,5.182 -8,7c-1.585,3.763 -3.419,7.43 -5.5,11c-1.333,0.667 -2.667,1.333 -4,2c-0.667,-1 -1.333,-2 -2,-3c-0.054,1.03 -0.388,2.197 -1,3.5c-3.321,0.813 -6.321,2.313 -9,4.5c1.359,1.806 1.025,3.306 -1,4.5c1.973,0.495 3.973,0.662 6,0.5c-2,1 -4,2 -6,3c-2.266,0.359 -4.099,-0.308 -5.5,-2c-0.689,0.857 -1.522,1.523 -2.5,2c-1.337,-2.739 -2.67,-5.406 -4,-8c-0.555,-2.596 -1.555,-4.929 -3,-7c-1.529,-3.868 -3.863,-7.201 -7,-10c1.871,0.359 3.371,1.359 4.5,3c0.63,-2.403 -0.203,-4.237 -2.5,-5.5c2.535,-0.617 4.868,-0.117 7,1.5c2.069,-2.233 4.403,-2.9 7,-2c0,1 0,2 0,3c-1.571,-0.697 -3.071,-1.03 -4.5,-1c-1.212,1.276 -2.045,2.776 -2.5,4.5c1.542,6.58 4.042,12.747 7.5,18.5c0.499,-5.991 0.666,-11.991 0.5,-18c3.91,0.237 7.577,-0.596 11,-2.5c1.473,-0.71 2.14,-1.876 2,-3.5c4.487,-1.653 8.987,-3.32 13.5,-5c0.333,0.333 0.667,0.667 1,1c2.694,-1.446 3.527,-3.446 2.5,-6c5.038,-2.467 9.372,-5.801 13,-10c2.264,-2.3117 5.097,-3.645 8.5,-4c1.03,0.3361 1.53,1.0028 1.5,2z" fill="#484f67"/><path d="M80,201c0.492,2.319 1.492,4.319 3,6c0,1 0,2 0,3c-2.249,-0.58 -3.915,-1.913 -5,-4c-0.423,-2.281 0.244,-3.948 2,-5z" fill="#a49ca1"/><path d="M171,199c-0.304,0.65 -0.637,1.317 -1,2c-3.202,0.735 -6.202,1.902 -9,3.5c6.454,-1.688 13.121,-2.522 20,-2.5c0,0.667 0,1.333 0,2c-7.82,-0.391 -15.153,1.275 -22,5c-2.346,-0.484 -4.679,-0.817 -7,-1c3.306,-1.32 6.306,-3.153 9,-5.5c3.248,-1.46 6.581,-2.626 10,-3.5z" fill="#777c87"/><path d="M243,200c1.333,0.333 2.667,0.667 4,1c3.137,2.799 5.471,6.132 7,10c0,1.667 0,3.333 0,5c-1.609,-0.406 -2.943,-0.406 -4,0c0.872,1.95 1.539,3.95 2,6c-2.333,-3.333 -4.667,-6.667 -7,-10c-1.372,-1.012 -2.705,-2.012 -4,-3c-0.342,-0.838 -1.008,-1.172 -2,-1c-1.64,-2.455 -3.973,-3.955 -7,-4.5c3.104,-2.598 6.771,-3.765 11,-3.5z" fill="#0b0c0d"/><path d="M181,204c0.333,0 0.667,0 1,0c0,3.333 0,6.667 0,10c-0.333,0 -0.667,0 -1,0c0,-2.333 0,-4.667 0,-7c-6.96,0.089 -13.627,1.089 -20,3c-4.014,1.011 -8.014,2.011 -12,3c2.89,-2.233 6.223,-3.566 10,-4c6.847,-3.725 14.18,-5.391 22,-5z" fill="#c4c3cb"/><path d="M263,201c0.734,1.208 1.067,2.541 1,4c0.166,6.009 -0.001,12.009 -0.5,18c-3.458,-5.753 -5.958,-11.92 -7.5,-18.5c0.455,-1.724 1.288,-3.224 2.5,-4.5c1.429,-0.03 2.929,0.303 4.5,1z" fill="#323b51"/><path d="M349,199c0,0.333 0,0.667 0,1c0,2.333 0,4.667 0,7c-0.802,-1.452 -1.302,-3.118 -1.5,-5c-0.995,1.661 -2.328,2.995 -4,4c-25.903,8.023 -51.736,16.356 -77.5,25c-1.196,-0.346 -1.196,-0.846 0,-1.5c6.731,-2.133 13.398,-4.466 20,-7c-0.948,-0.483 -1.948,-0.649 -3,-0.5c12.96,-3.986 25.96,-7.986 39,-12c0.667,0 1,-0.333 1,-1c6.691,-2.064 13.357,-4.23 20,-6.5c1.314,-0.985 2.314,-2.152 3,-3.5c0.221,2.597 0.721,2.597 1.5,0c0.823,-6.634 1.323,-6.634 1.5,0z" fill="#292e3c"/><path d="M181,214c0,0.667 0,1.333 0,2c-5.91,-1.32 -11.91,-1.987 -18,-2c0.343,-1.983 -0.324,-3.317 -2,-4c6.373,-1.911 13.04,-2.911 20,-3c0,2.333 0,4.667 0,7z" fill="#ced5d9"/><path d="M123,203c3.107,1.481 6.441,2.648 10,3.5c0.752,0.671 1.086,1.504 1,2.5c0,0.333 0,0.667 0,1c-2.437,1.933 -4.771,4.1 -7,6.5c-2.3,0.658 -4.633,1.158 -7,1.5c-6.97,-1.572 -13.97,-2.905 -21,-4c0.029,-3.273 -1.304,-3.94 -4,-2c-1.906,-1.742 -4.24,-2.742 -7,-3c-1.758,0.092 -3.424,0.425 -5,1c0,-1 0,-2 0,-3c1,0 2,0 3,0c-0.011,-2.047 -0.344,-4.047 -1,-6c1.059,-4.943 3.559,-5.943 7.5,-3c10.268,1.184 20.435,2.85 30.5,5z" fill="#2d2826"/><path d="M161,210c1.676,0.683 2.343,2.017 2,4c6.09,0.013 12.09,0.68 18,2c-11.304,1.508 -22.638,2.841 -34,4c-3.99,0.69 -7.99,0.857 -12,0.5c1.846,-1.03 3.513,-2.196 5,-3.5c2.434,-2.374 5.434,-3.708 9,-4c3.986,-0.989 7.986,-1.989 12,-3z" fill="#d6d4d1"/><path d="M239,208c0.992,-0.172 1.658,0.162 2,1c-3.35,-0.165 -6.683,0.002 -10,0.5c-1.787,1.319 -3.787,2.152 -6,2.5c1.442,-1.32 2.108,-2.986 2,-5c4.048,-0.105 8.048,0.228 12,1z" fill="#383739"/><path d="M78,206c1.085,2.087 2.751,3.42 5,4c1.576,-0.575 3.242,-0.908 5,-1c2.76,0.258 5.094,1.258 7,3c2.696,-1.94 4.029,-1.273 4,2c7.03,1.095 14.03,2.428 21,4c2.367,-0.342 4.7,-0.842 7,-1.5c2.229,-2.4 4.563,-4.567 7,-6.5c0,0.667 0,1.333 0,2c-2.227,0.901 -3.227,2.567 -3,5c2.505,-0.917 4.838,-0.917 7,0c-1.858,1.095 -3.525,2.429 -5,4c4.482,0.667 8.816,1.334 13,2c-4.963,0.996 -9.963,1.163 -15,0.5c-0.837,-1.011 -1.17,-2.178 -1,-3.5c-4.763,0.274 -9.43,-0.059 -14,-1c-8.665,-1.173 -17.332,-2.839 -26,-5c0.353,-2.135 -0.48,-3.468 -2.5,-4c-1.555,1.348 -3.389,2.014 -5.5,2c-2.035,-0.704 -4.035,-1.371 -6,-2c0,-1 0,-2 0,-3c0.342,-0.838 1.008,-1.172 2,-1z" fill="#383742"/><path d="M142,204c1.667,0 3.333,0 5,0c0,1 0,2 0,3c-3.668,1.498 -7.002,3.498 -10,6c-1.696,1.629 -2.696,1.296 -3,-1c0,-0.667 0,-1.333 0,-2c0,-0.333 0,-0.667 0,-1c2,-0.667 4,-1.333 6,-2c1.406,-0.473 2.073,-1.473 2,-3z" fill="#6d788a"/><path d="M369,178c0.667,1 1.333,2 2,3c-0.131,0.739 0.036,1.406 0.5,2c0.494,-1.634 0.66,-3.301 0.5,-5c1.477,3.855 1.143,7.688 -1,11.5c0.336,1.03 1.003,1.53 2,1.5c0,1.333 0.667,2 2,2c-0.709,0.904 -1.709,1.237 -3,1c0.216,7.291 -1.617,13.958 -5.5,20c-1.488,1.66 -3.321,2.66 -5.5,3c-3.028,-0.568 -5.695,-1.901 -8,-4c2.094,0.742 4.261,1.409 6.5,2c3.901,-1.397 6.734,-4.063 8.5,-8c-0.47,-0.963 -1.137,-0.963 -2,0c4.218,-7.216 5.051,-14.883 2.5,-23c-1.413,-1.412 -3.08,-2.412 -5,-3c-3.247,1.082 -5.747,3.082 -7.5,6c0,-0.667 0,-1.333 0,-2c-0.172,-0.992 0.162,-1.658 1,-2c2.062,-2.064 4.395,-3.7305 7,-5c1.883,0.3757 3.383,1.3757 4.5,3c0.483,-0.948 0.649,-1.948 0.5,-3z" fill="#393738"/><path d="M152,208c2.321,0.183 4.654,0.516 7,1c-3.777,0.434 -7.11,1.767 -10,4c-3.566,0.292 -6.566,1.626 -9,4c-0.667,0 -1.333,0 -2,0c-2.162,-0.917 -4.495,-0.917 -7,0c-0.227,-2.433 0.773,-4.099 3,-5c0.304,2.296 1.304,2.629 3,1c5.262,-0.898 10.262,-2.565 15,-5z" fill="#5c5b6a"/><path d="M241,209c1.295,0.988 2.628,1.988 4,3c0.587,1.267 0.587,2.267 0,3c-5.528,-2.559 -10.861,-2.226 -16,1c0.111,-0.617 0.444,-1.117 1,-1.5c-2.048,-1.241 -4.048,-1.408 -6,-0.5c-0.172,-0.992 0.162,-1.658 1,-2c2.213,-0.348 4.213,-1.181 6,-2.5c3.317,-0.498 6.65,-0.665 10,-0.5z" fill="#615f62"/><path d="M76,207c0,1 0,2 0,3c1.965,0.629 3.965,1.296 6,2c2.111,0.014 3.945,-0.652 5.5,-2c2.02,0.532 2.853,1.865 2.5,4c-0.473,1.406 -1.473,2.073 -3,2c-1.459,0.067 -2.792,-0.266 -4,-1c-2.717,-1.063 -5.551,-2.063 -8.5,-3c-0.495,1.973 -0.662,3.973 -0.5,6c-1.138,-2.804 -1.305,-5.804 -0.5,-9c0.417,-1.256 1.25,-1.923 2.5,-2z" fill="#45495b"/><path d="M189,197c-1.16,1.703 -0.493,2.369 2,2c-0.559,2.179 -1.226,4.346 -2,6.5c0.83,1.465 0.996,2.965 0.5,4.5c-4.707,1.59 -4.54,2.756 0.5,3.5c6.992,0.5 13.992,0.666 21,0.5c0.543,-2.538 1.543,-4.872 3,-7c0.333,0 0.667,0 1,0c1.15,-1.35 1.817,-1.184 2,0.5c-1.978,2.147 -3.311,4.647 -4,7.5c0.172,0.992 -0.162,1.658 -1,2c-4.872,-0.191 -9.705,0.142 -14.5,1c-4.772,-1.568 -9.605,-2.901 -14.5,-4c0.313,-3.542 -0.021,-6.875 -1,-10c-0.333,0 -0.667,0 -1,0c0,-0.667 0,-1.333 0,-2c2.152,-2.485 4.819,-4.151 8,-5z" fill="#677992"/><path d="M90,214c8.668,2.161 17.335,3.827 26,5c-2.249,0.58 -3.915,1.913 -5,4c-0.333,0 -0.667,0 -1,0c-0.333,0 -0.667,0 -1,0c0.086,-0.996 -0.248,-1.829 -1,-2.5c-5.619,-0.613 -11.119,-1.78 -16.5,-3.5c-1.07,0.028 -1.903,0.361 -2.5,1c-1,-0.333 -1.667,-1 -2,-2c1.527,0.073 2.527,-0.594 3,-2z" fill="#515259"/><path d="M183,214c4.895,1.099 9.728,2.432 14.5,4c4.795,-0.858 9.628,-1.191 14.5,-1c0.268,1.599 -0.066,2.932 -1,4c-3.946,-1.662 -7.946,-1.996 -12,-1c-1.644,0.214 -3.144,-0.12 -4.5,-1c-2.57,1.271 -5.07,2.604 -7.5,4c-0.667,0 -1.333,0 -2,0c-1.428,-2.803 -2.095,-5.803 -2,-9z" fill="#4c5467"/><path d="M350,211c0.667,0 1,0.333 1,1c0.617,1.729 1.617,3.229 3,4.5c-5.358,0.798 -10.692,1.632 -16,2.5c-4.177,-0.782 -8.01,0.218 -11.5,3c-0.873,-0.235 -1.707,-0.569 -2.5,-1c-6.505,3.001 -13.172,5.501 -20,7.5c0.333,0.333 0.667,0.667 1,1c-5.667,1.667 -11.333,3.333 -17,5c0.333,0.333 0.667,0.667 1,1c-9.813,2.994 -19.48,6.494 -29,10.5c-0.692,-0.525 -1.192,-1.192 -1.5,-2c-1.465,2.415 -3.632,3.415 -6.5,3c0,-1 0,-2 0,-3c-0.16,-1.699 0.006,-3.366 0.5,-5c1.743,2.128 3.909,2.961 6.5,2.5c23.145,-7.872 46.145,-16.205 69,-25c6.205,-2.301 12.538,-4.134 19,-5.5c1,-1.333 2,-1.333 3,0z" fill="#121215"/><path d="M181,214c0.333,0 0.667,0 1,0c0.308,2.424 -0.026,4.757 -1,7c-3.068,-1.957 -6.401,-2.457 -10,-1.5c3.307,1.195 3.473,2.028 0.5,2.5c-8.043,-1.837 -16.21,-2.504 -24.5,-2c11.362,-1.159 22.696,-2.492 34,-4c0,-0.667 0,-1.333 0,-2z" fill="#a39b9c"/><path d="M83,215c0,1.667 0,3.333 0,5c1,0 2,0 3,0c0,1 0,2 0,3c-1,0 -2,0 -3,0c-2.667,0 -5.333,0 -8,0c0,1.667 0,3.333 0,5c-0.979,-3.125 -1.313,-6.458 -1,-10c-0.162,-2.027 0.005,-4.027 0.5,-6c2.949,0.937 5.783,1.937 8.5,3z" fill="#323444"/><path d="M109,223c-0.333,0 -0.667,0 -1,0c-0.667,0 -1.333,0 -2,0c-2.015,-1.424 -4.348,-2.09 -7,-2c-2.671,-1.618 -5.671,-2.285 -9,-2c-0.333,0 -0.667,0 -1,0c0,-0.333 0,-0.667 0,-1c0.597,-0.639 1.43,-0.972 2.5,-1c5.381,1.72 10.881,2.887 16.5,3.5c0.752,0.671 1.086,1.504 1,2.5z" fill="#948869"/><path d="M199,220c1.788,-0.285 3.455,0.048 5,1c-0.893,2.584 -1.226,5.251 -1,8c-1.107,1.492 -2.607,2.492 -4.5,3c-3.395,-0.799 -6.895,-0.799 -10.5,0c-2.917,-0.917 -5.917,-1.584 -9,-2c0.46,-0.942 1.793,-1.609 4,-2c1.453,-1.685 2.786,-3.351 4,-5c2.43,-1.396 4.93,-2.729 7.5,-4c1.356,0.88 2.856,1.214 4.5,1z" fill="#64718f"/><path d="M224,215c1.073,0.751 1.24,1.751 0.5,3c-2.054,2.547 -3.887,5.214 -5.5,8c-0.838,-0.342 -1.172,-1.008 -1,-2c1.752,-3.172 3.752,-6.172 6,-9z" fill="#c2bcba"/><path d="M182,204c0.979,3.125 1.313,6.458 1,10c-0.095,3.197 0.572,6.197 2,9c-5.333,0 -10.667,0 -16,0c-7.636,-0.758 -15.302,-0.758 -23,0c-4.184,-0.666 -8.518,-1.333 -13,-2c1.475,-1.571 3.142,-2.905 5,-4c0.667,0 1.333,0 2,0c-1.487,1.304 -3.154,2.47 -5,3.5c4.01,0.357 8.01,0.19 12,-0.5c8.29,-0.504 16.457,0.163 24.5,2c2.973,-0.472 2.807,-1.305 -0.5,-2.5c3.599,-0.957 6.932,-0.457 10,1.5c0.974,-2.243 1.308,-4.576 1,-7c0,-3.333 0,-6.667 0,-10z" fill="#807d82"/><path d="M231,218c4.048,-0.105 8.048,0.228 12,1c0.958,0.453 1.792,1.119 2.5,2c0.236,2.311 1.069,4.311 2.5,6c0,4 0,8 0,12c-0.187,2.064 -0.687,4.064 -1.5,6c-1.802,1.289 -2.969,2.956 -3.5,5c-1.84,1.668 -3.84,3.168 -6,4.5c-2.402,0.814 -4.735,0.647 -7,-0.5c2.131,-0.669 4.131,-1.335 6,-2c7.361,-5.911 10.527,-13.578 9.5,-23c-2.822,-7.024 -7.655,-8.857 -14.5,-5.5c1.293,0.49 2.627,0.657 4,0.5c1.478,-0.262 2.811,0.071 4,1c-4.947,-0.086 -8.78,1.914 -11.5,6c-0.333,-1 -0.667,-2 -1,-3c-0.14,2.543 -0.806,4.877 -2,7c-0.044,-2.975 0.123,-5.975 0.5,-9c1.042,-3.43 3.042,-6.097 6,-8z" fill="#1a1614"/><path d="M349,207c0.333,1.333 0.667,2.667 1,4c-1,-1.333 -2,-1.333 -3,0c-0.47,-1.193 -1.47,-1.86 -3,-2c-1,0.167 -2,0.333 -3,0.5c-25.777,10.146 -51.777,19.48 -78,28c-1.444,0.781 -2.777,0.614 -4,-0.5c0.746,-1.236 1.079,-2.57 1,-4c3.279,-0.531 4.613,-2.531 4,-6c1.915,0.284 3.581,-0.049 5,-1c2,-1 4,-2 6,-3c2.706,-0.075 5.373,-0.408 8,-1c1.052,-0.149 2.052,0.017 3,0.5c-6.602,2.534 -13.269,4.867 -20,7c-1.196,0.654 -1.196,1.154 0,1.5c25.764,-8.644 51.597,-16.977 77.5,-25c1.672,-1.005 3.005,-2.339 4,-4c0.198,1.882 0.698,3.548 1.5,5z" fill="#181924"/><path d="M116,219c4.57,0.941 9.237,1.274 14,1c-0.17,1.322 0.163,2.489 1,3.5c5.037,0.663 10.037,0.496 15,-0.5c7.698,-0.758 15.364,-0.758 23,0c0,0.667 0,1.333 0,2c-10.006,-0.166 -20.006,0 -30,0.5c3.188,1.316 6.522,1.816 10,1.5c0.111,0.617 0.444,1.117 1,1.5c-3.45,2.949 -7.45,4.116 -12,3.5c2.698,-4.034 1.365,-6.034 -4,-6c-5.44,-0.512 -10.773,-1.512 -16,-3c-2,0 -4,0 -6,0c-0.333,0 -0.667,0 -1,0c1.085,-2.087 2.751,-3.42 5,-4z" fill="#5f5f72"/><path d="M199,220c4.054,-0.996 8.054,-0.662 12,1c-0.967,2.934 -2.3,5.6 -4,8c-1.333,0 -2.667,0 -4,0c-0.226,-2.749 0.107,-5.416 1,-8c-1.545,-0.952 -3.212,-1.285 -5,-1z" fill="#506281"/><path d="M254,211c1.445,2.071 2.445,4.404 3,7c0.152,3.762 0.819,7.428 2,11c-0.825,0.886 -1.825,1.219 -3,1c-0.71,-2.246 -1.21,-4.58 -1.5,-7c-0.383,-0.556 -0.883,-0.889 -1.5,-1c-0.333,0 -0.667,0 -1,0c-0.461,-2.05 -1.128,-4.05 -2,-6c1.057,-0.406 2.391,-0.406 4,0c0,-1.667 0,-3.333 0,-5z" fill="#1e212b"/><path d="M83,215c1.208,0.734 2.541,1.067 4,1c0.333,1 1,1.667 2,2c0,0.333 0,0.667 0,1c0,2.667 0,5.333 0,8c-0.667,0 -1.333,0 -2,0c-1.634,-1.081 -2.967,-2.415 -4,-4c1,0 2,0 3,0c0,-1 0,-2 0,-3c-1,0 -2,0 -3,0c0,-1.667 0,-3.333 0,-5z" fill="#3b373a"/><path d="M112,223c2,0 4,0 6,0c1.726,1.728 3.059,3.728 4,6c-0.876,-0.131 -1.543,0.202 -2,1c2.731,1.692 5.398,3.358 8,5c-2.85,-0.136 -5.683,-0.469 -8.5,-1c-1.681,0.108 -2.848,0.775 -3.5,2c-0.992,0.172 -1.658,-0.162 -2,-1c0.543,-0.06 0.876,-0.393 1,-1c-0.742,-0.787 -1.575,-1.453 -2.5,-2c-0.498,-2.982 -0.665,-5.982 -0.5,-9z" fill="#3c3c43"/><path d="M97,221c2.405,1.268 5.072,1.935 8,2c0,3 0,6 0,9c-3.976,-0.795 -7.976,-1.462 -12,-2c-0.977,-2.787 -1.31,-5.787 -1,-9c1.667,0 3.333,0 5,0z" fill="#a88737"/><path d="M118,223c5.227,1.488 10.56,2.488 16,3c-0.863,1.44 -0.863,2.774 0,4c-4.151,1.314 -8.151,0.981 -12,-1c-0.941,-2.272 -2.274,-4.272 -4,-6z" fill="#3b4257"/><path d="M169,223c5.333,0 10.667,0 16,0c0.667,0 1.333,0 2,0c-1.214,1.649 -2.547,3.315 -4,5c-2.207,0.391 -3.54,1.058 -4,2c-0.948,1.478 -2.281,2.478 -4,3c-3.228,0.914 -6.561,1.247 -10,1c0,-1.333 0,-2.667 0,-4c-2.065,0.017 -4.065,0.35 -6,1c-0.086,-0.996 0.248,-1.829 1,-2.5c6.475,-0.164 12.809,-1.164 19,-3c-3.317,-0.498 -6.65,-0.665 -10,-0.5c0,-0.667 0,-1.333 0,-2z" fill="#79829a"/><path d="M253,222c0.617,0.111 1.117,0.444 1.5,1c0.29,2.42 0.79,4.754 1.5,7c1.608,3.002 1.275,5.668 -1,8c-0.667,-2.333 -1.333,-4.667 -2,-7c-0.667,0.667 -1.333,1.333 -2,2c-0.795,-1.995 -1.461,-3.995 -2,-6c1.25,0.077 2.083,0.744 2.5,2c0.44,-2.366 0.94,-4.699 1.5,-7z" fill="#3b3c43"/><path d="M87,227c0.667,0 1.333,0 2,0c-1.105,2.213 -1.105,4.38 0,6.5c3.94,1.015 7.94,1.515 12,1.5c0.333,0 0.667,0 1,0c1.419,0.951 3.085,1.284 5,1c0.61,0.891 0.943,1.891 1,3c-2.836,-1.276 -5.836,-1.942 -9,-2c-1.617,-0.538 -3.284,-0.871 -5,-1c-4.303,0.704 -7.803,-0.63 -10.5,-4c-0.798,-1.759 -0.631,-3.426 0.5,-5c1.38,2.477 2.38,2.477 3,0z" fill="#302a1e"/><path d="M90,219c3.329,-0.285 6.329,0.382 9,2c-0.667,0 -1.333,0 -2,0c-1.667,0 -3.333,0 -5,0c-0.31,3.213 0.023,6.213 1,9c0.111,0.617 0.444,1.117 1,1.5c4.316,0.996 8.649,1.83 13,2.5c0.077,-3.715 -0.256,-7.381 -1,-11c0.667,0 1.333,0 2,0c0.005,4.034 0.338,8.034 1,12c-2.333,0 -4.667,0 -7,0c-0.333,0 -0.667,0 -1,0c-3.572,-1.022 -7.072,-2.355 -10.5,-4c-0.499,-3.986 -0.666,-7.986 -0.5,-12z" fill="#897541"/><path d="M169,225c3.35,-0.165 6.683,0.002 10,0.5c-6.191,1.836 -12.525,2.836 -19,3c-0.752,0.671 -1.086,1.504 -1,2.5c-12.878,1.699 -13.212,0.699 -1,-3c-2.928,-0.984 -5.928,-1.317 -9,-1c-3.478,0.316 -6.812,-0.184 -10,-1.5c9.994,-0.5 19.994,-0.666 30,-0.5z" fill="#868aa1"/><path d="M83,223c1.033,1.585 2.366,2.919 4,4c-0.62,2.477 -1.62,2.477 -3,0c-1.131,1.574 -1.298,3.241 -0.5,5c2.697,3.37 6.197,4.704 10.5,4c0,1 0,2 0,3c-1,0 -2,0 -3,0c-2,-0.667 -4,-1.333 -6,-2c-1.808,-0.825 -3.641,-1.825 -5.5,-3c-1.138,0.489 -2.305,0.822 -3.5,1c-0.493,-2.306 -0.826,-4.639 -1,-7c0,-1.667 0,-3.333 0,-5c2.667,0 5.333,0 8,0z" fill="#1e1a1b"/><path d="M89,219c0.333,0 0.667,0 1,0c-0.166,4.014 0.001,8.014 0.5,12c3.428,1.645 6.928,2.978 10.5,4c-4.06,0.015 -8.06,-0.485 -12,-1.5c-1.105,-2.12 -1.105,-4.287 0,-6.5c0,-2.667 0,-5.333 0,-8z" fill="#3d3119"/><path d="M134,226c5.365,-0.034 6.698,1.966 4,6c-1.699,-0.16 -3.366,0.006 -5,0.5c-1.184,1.145 -1.184,2.312 0,3.5c-1.617,-0.538 -3.284,-0.871 -5,-1c-2.602,-1.642 -5.269,-3.308 -8,-5c0.457,-0.798 1.124,-1.131 2,-1c3.849,1.981 7.849,2.314 12,1c-0.863,-1.226 -0.863,-2.56 0,-4z" fill="#4f4f60"/><path d="M361,218c-3.482,1.562 -7.148,2.895 -11,4c-2.027,-0.162 -4.027,0.005 -6,0.5c-17.523,5.447 -34.523,11.947 -51,19.5c-11.531,3.289 -22.865,6.956 -34,11c2.06,-1.648 4.393,-3.148 7,-4.5c14.774,-4.426 29.107,-9.593 43,-15.5c1.487,-1.304 3.154,-2.47 5,-3.5c6.382,-2.229 12.715,-4.562 19,-7c9.405,-1.701 18.739,-3.201 28,-4.5z" fill="#3e3e3e"/><path d="M97,221c0.667,0 1.333,0 2,0c2.652,-0.09 4.985,0.576 7,2c0.744,3.619 1.077,7.285 1,11c-4.351,-0.67 -8.684,-1.504 -13,-2.5c-0.556,-0.383 -0.889,-0.883 -1,-1.5c4.024,0.538 8.024,1.205 12,2c0,-3 0,-6 0,-9c-2.928,-0.065 -5.595,-0.732 -8,-2z" fill="#876c28"/><path d="M149,227c3.072,-0.317 6.072,0.016 9,1c-12.212,3.699 -11.878,4.699 1,3c1.935,-0.65 3.935,-0.983 6,-1c0,1.333 0,2.667 0,4c-0.992,-0.172 -1.658,0.162 -2,1c-4.722,-0.231 -9.389,-0.898 -14,-2c-4.306,0.546 -8.306,1.88 -12,4c-1.349,-0.346 -2.683,-0.679 -4,-1c-1.184,-1.188 -1.184,-2.355 0,-3.5c1.634,-0.494 3.301,-0.66 5,-0.5c4.55,0.616 8.55,-0.551 12,-3.5c-0.556,-0.383 -0.889,-0.883 -1,-1.5z" fill="#6f7386"/><path d="M108,223c0.333,0 0.667,0 1,0c0.333,0 0.667,0 1,0c0,4.333 0,8.667 0,13c-1,0 -2,0 -3,0c-1.915,0.284 -3.581,-0.049 -5,-1c2.333,0 4.667,0 7,0c-0.662,-3.966 -0.995,-7.966 -1,-12z" fill="#6d5b37"/><path d="M245,212c2.333,3.333 4.667,6.667 7,10c0.333,0 0.667,0 1,0c-0.56,2.301 -1.06,4.634 -1.5,7c-0.417,-1.256 -1.25,-1.923 -2.5,-2c-0.333,0 -0.667,0 -1,0c-1.431,-1.689 -2.264,-3.689 -2.5,-6c-0.708,-0.881 -1.542,-1.547 -2.5,-2c0,-1.333 0,-2.667 0,-4c-3.018,-0.165 -6.018,0.002 -9,0.5c-1.442,0.377 -2.442,1.21 -3,2.5c-2.958,1.903 -4.958,4.57 -6,8c-1.937,6.727 -2.937,13.727 -3,21c-2.371,-3.137 -3.371,-6.804 -3,-11c1.007,-2.822 1.84,-5.822 2.5,-9c2.087,-2.245 3.421,-4.912 4,-8c1.518,-0.663 2.685,-1.663 3.5,-3c5.139,-3.226 10.472,-3.559 16,-1c0.587,-0.733 0.587,-1.733 0,-3z" fill="#423d3a"/><path d="M243,219c-3.952,-0.772 -7.952,-1.105 -12,-1c0.558,-1.29 1.558,-2.123 3,-2.5c2.982,-0.498 5.982,-0.665 9,-0.5c0,1.333 0,2.667 0,4z" fill="#29251f"/><path d="M347,211c-6.462,1.366 -12.795,3.199 -19,5.5c-22.855,8.795 -45.855,17.128 -69,25c-2.591,0.461 -4.757,-0.372 -6.5,-2.5c-0.494,1.634 -0.66,3.301 -0.5,5c-0.333,0 -0.667,0 -1,0c0,-1.667 0,-3.333 0,-5c-1,0 -2,0 -3,0c0,-4 0,-8 0,-12c0.333,0 0.667,0 1,0c0.539,2.005 1.205,4.005 2,6c0.667,-0.667 1.333,-1.333 2,-2c0.667,2.333 1.333,4.667 2,7c2.275,-2.332 2.608,-4.998 1,-8c1.175,0.219 2.175,-0.114 3,-1c-1.181,-3.572 -1.848,-7.238 -2,-11c1.33,2.594 2.663,5.261 4,8c0.978,-0.477 1.811,-1.143 2.5,-2c1.401,1.692 3.234,2.359 5.5,2c-1.419,0.951 -3.085,1.284 -5,1c0.613,3.469 -0.721,5.469 -4,6c0.079,1.43 -0.254,2.764 -1,4c1.223,1.114 2.556,1.281 4,0.5c26.223,-8.52 52.223,-17.854 78,-28c1,-0.167 2,-0.333 3,-0.5c1.53,0.14 2.53,0.807 3,2z" fill="#2e2f39"/><path d="M224,214c0,0.333 0,0.667 0,1c-2.248,2.828 -4.248,5.828 -6,9c-0.845,1.171 -1.511,2.505 -2,4c-1.333,0 -2.667,0 -4,0c1.452,7.565 2.285,15.232 2.5,23c1.008,0.482 2.175,0.648 3.5,0.5c-1.017,1.049 -1.184,2.216 -0.5,3.5c2.164,-1.98 3.664,-4.313 4.5,-7c1.307,2.885 3.307,5.218 6,7c-2.027,-0.162 -4.027,0.005 -6,0.5c0.837,1.011 1.17,2.178 1,3.5c-2.608,0.1 -4.942,-0.567 -7,-2c-0.874,-2.19 -2.541,-3.19 -5,-3c0,-1.333 0,-2.667 0,-4c-1.172,-8.344 -1.172,-16.677 0,-25c1,0 2,0 3,0c0.229,-1.933 1.062,-3.6 2.5,-5c2.299,-2.285 4.799,-4.285 7.5,-6z" fill="#4e4c4d"/><path d="M218,224c-0.172,0.992 0.162,1.658 1,2c-1.742,4.803 -2.409,9.803 -2,15c-1.277,-1.194 -1.944,-2.86 -2,-5c0.203,-2.697 0.536,-5.364 1,-8c0.489,-1.495 1.155,-2.829 2,-4z" fill="#989294"/><path d="M229,216c-0.815,1.337 -1.982,2.337 -3.5,3c-0.579,3.088 -1.913,5.755 -4,8c-0.66,3.178 -1.493,6.178 -2.5,9c-0.667,1.667 -1.333,3.333 -2,5c-0.409,-5.197 0.258,-10.197 2,-15c1.613,-2.786 3.446,-5.453 5.5,-8c0.74,-1.249 0.573,-2.249 -0.5,-3c0,-0.333 0,-0.667 0,-1c1.952,-0.908 3.952,-0.741 6,0.5c-0.556,0.383 -0.889,0.883 -1,1.5z" fill="#766e6f"/><path d="M85,237c-1.679,-0.215 -2.679,0.452 -3,2c-2,0 -4,0 -6,0c0,-1.333 0,-2.667 0,-4c1.195,-0.178 2.362,-0.511 3.5,-1c1.859,1.175 3.692,2.175 5.5,3z" fill="#363334"/><path d="M110,223c0.333,0 0.667,0 1,0c0.333,0 0.667,0 1,0c-0.165,3.018 0.002,6.018 0.5,9c0.925,0.547 1.758,1.213 2.5,2c-0.124,0.607 -0.457,0.94 -1,1c-2.412,0.194 -3.412,1.527 -3,4c-1,0 -2,0 -3,0c-0.057,-1.109 -0.39,-2.109 -1,-3c1,0 2,0 3,0c0,-4.333 0,-8.667 0,-13z" fill="#473b2c"/><path d="M163,235c1.719,0.522 3.052,1.522 4,3c-2.559,-0.302 -4.893,0.032 -7,1c-4.978,-0.345 -9.311,0.988 -13,4c-0.617,-0.111 -1.117,-0.444 -1.5,-1c-0.906,2.112 -2.406,2.945 -4.5,2.5c-1.605,-1.685 -2.938,-3.518 -4,-5.5c-0.667,0 -1.333,0 -2,0c-0.667,-1 -1.333,-2 -2,-3c1.317,0.321 2.651,0.654 4,1c3.694,-2.12 7.694,-3.454 12,-4c4.611,1.102 9.278,1.769 14,2z" fill="#555661"/><path d="M240,234c-0.333,3.333 -0.667,6.667 -1,10c-1.599,-0.268 -2.932,0.066 -4,1c-4.828,0.66 -6.661,-1.34 -5.5,-6c1.188,1.063 1.688,2.397 1.5,4c2.211,-0.467 4.211,-1.467 6,-3c-1.657,-2.589 -1.991,-5.256 -1,-8c-1.189,-0.929 -2.522,-1.262 -4,-1c-0.085,2.429 -1.085,4.429 -3,6c-1.083,-0.865 -1.249,-1.865 -0.5,-3c1.043,-4.723 3.876,-6.556 8.5,-5.5c2.107,1.264 3.107,3.097 3,5.5z" fill="#191512"/><path d="M179,230c3.083,0.416 6.083,1.083 9,2c-0.304,0.65 -0.637,1.317 -1,2c2.667,1.134 5.333,2.134 8,3c-3.713,1.464 -7.38,3.131 -11,5c-1.025,-0.397 -1.192,-1.063 -0.5,-2c1.205,-0.571 2.372,-1.238 3.5,-2c-3.635,-2.825 -7.635,-4.492 -12,-5c1.719,-0.522 3.052,-1.522 4,-3z" fill="#676875"/><path d="M128,235c1.716,0.129 3.383,0.462 5,1c0.667,1 1.333,2 2,3c-5.21,0.201 -10.21,-0.466 -15,-2c0.174,2.361 0.507,4.694 1,7c0,0.667 0,1.333 0,2c-0.903,-3.707 -2.57,-7.04 -5,-10c0.652,-1.225 1.819,-1.892 3.5,-2c2.817,0.531 5.65,0.864 8.5,1z" fill="#362d2e"/><path d="M94,236c1.716,0.129 3.383,0.462 5,1c2.078,1.89 3.411,4.224 4,7c-0.739,-0.131 -1.406,0.036 -2,0.5c2.532,0.619 4.865,1.619 7,3c-2.42,0.687 -4.587,0.187 -6.5,-1.5c-4.875,0.921 -9.708,0.421 -14.5,-1.5c-1.619,-0.236 -2.619,-1.069 -3,-2.5c0,-0.667 0,-1.333 0,-2c3.426,1.774 7.093,2.774 11,3c0,-1 0,-2 0,-3c-1.599,0.268 -2.932,-0.066 -4,-1c1,0 2,0 3,0c0,-1 0,-2 0,-3z" fill="#36343a"/><path d="M175,233c4.365,0.508 8.365,2.175 12,5c-1.128,0.762 -2.295,1.429 -3.5,2c-0.692,0.937 -0.525,1.603 0.5,2c-1.265,0.979 -2.599,1.979 -4,3c-0.952,1.545 -1.285,3.212 -1,5c-0.184,2.425 -0.851,2.425 -2,0c-2.024,1.858 -4.191,3.525 -6.5,5c-1.302,-0.585 -2.469,-1.251 -3.5,-2c4.613,-3.275 8.946,-6.942 13,-11c-3.5,-0.407 -6,1.259 -7.5,5c-2.419,-2.338 -2.919,-5.005 -1.5,-8c-1.189,-0.929 -2.522,-1.262 -4,-1c-0.948,-1.478 -2.281,-2.478 -4,-3c0.342,-0.838 1.008,-1.172 2,-1c3.439,0.247 6.772,-0.086 10,-1z" fill="#7e7b81"/><path d="M351,212c0.992,-0.172 1.658,0.162 2,1c2.305,2.099 4.972,3.432 8,4c0,0.333 0,0.667 0,1c-9.261,1.299 -18.595,2.799 -28,4.5c-6.285,2.438 -12.618,4.771 -19,7c-1.846,1.03 -3.513,2.196 -5,3.5c-5.215,1.447 -10.548,2.781 -16,4c-12.811,5.963 -26.144,10.13 -40,12.5c-3.415,4.662 -4.749,4.496 -4,-0.5c1.002,-1.511 1.669,-3.178 2,-5c0.333,0 0.667,0 1,0c0,1 0,2 0,3c2.868,0.415 5.035,-0.585 6.5,-3c0.308,0.808 0.808,1.475 1.5,2c9.52,-4.006 19.187,-7.506 29,-10.5c-0.333,-0.333 -0.667,-0.667 -1,-1c5.667,-1.667 11.333,-3.333 17,-5c-0.333,-0.333 -0.667,-0.667 -1,-1c6.828,-1.999 13.495,-4.499 20,-7.5c0.793,0.431 1.627,0.765 2.5,1c3.49,-2.782 7.323,-3.782 11.5,-3c5.308,-0.868 10.642,-1.702 16,-2.5c-1.383,-1.271 -2.383,-2.771 -3,-4.5z" fill="#212121"/><path d="M85,237c2,0.667 4,1.333 6,2c1.068,0.934 2.401,1.268 4,1c0,1 0,2 0,3c-3.907,-0.226 -7.574,-1.226 -11,-3c-0.992,0.172 -1.658,-0.162 -2,-1c0.321,-1.548 1.321,-2.215 3,-2z" fill="#737178"/><path d="M99,237c3.164,0.058 6.164,0.724 9,2c-0.117,1.984 0.55,3.65 2,5c-0.124,0.607 -0.457,0.94 -1,1c-1.879,-0.841 -3.879,-1.175 -6,-1c-0.589,-2.776 -1.922,-5.11 -4,-7z" fill="#201c1a"/><path d="M135,239c0.667,0 1.333,0 2,0c0.362,3.759 1.695,7.093 4,10c-6.855,-1.055 -13.522,-2.722 -20,-5c-0.493,-2.306 -0.826,-4.639 -1,-7c4.79,1.534 9.79,2.201 15,2z" fill="#3b332a"/><path d="M227,200c-1.646,2.312 -3.646,4.312 -6,6c-1.679,4.022 -3.346,8.022 -5,12c-1,0 -2,0 -3,0c0.1,2.608 -0.567,4.942 -2,7c-1.172,8.323 -1.172,16.656 0,25c-1.423,2.045 -3.423,3.045 -6,3c-1.147,-8.025 -0.48,-16.025 2,-24c1.7,-2.4 3.033,-5.066 4,-8c0.934,-1.068 1.268,-2.401 1,-4c0.838,-0.342 1.172,-1.008 1,-2c2.755,-2.435 4.755,-5.435 6,-9c2.421,-2.434 5.088,-4.434 8,-6z" fill="#333b4c"/><path d="M350,222c-29.626,11.141 -59.293,22.308 -89,33.5c-2.135,1.381 -4.468,2.381 -7,3c-1.987,1.319 -3.154,3.152 -3.5,5.5c-1.388,-1.054 -2.888,-1.22 -4.5,-0.5c-4.46,2.645 -8.96,5.145 -13.5,7.5c-0.893,-0.581 -1.893,-0.915 -3,-1c-6.029,1.774 -12.195,2.441 -18.5,2c1.998,-0.648 3.998,-1.481 6,-2.5c7.144,-0.087 14.144,-1.087 21,-3c2.477,-3.465 5.81,-5.798 10,-7c2.108,-4.723 5.775,-6.89 11,-6.5c11.135,-4.044 22.469,-7.711 34,-11c16.477,-7.553 33.477,-14.053 51,-19.5c1.973,-0.495 3.973,-0.662 6,-0.5z" fill="#4b4b4b"/><path d="M192,241c-5.678,1.317 -10.012,4.317 -13,9c-0.285,-1.788 0.048,-3.455 1,-5c1.401,-1.021 2.735,-2.021 4,-3c3.62,-1.869 7.287,-3.536 11,-5c1.56,-0.019 3.06,-0.352 4.5,-1c1.257,0.35 1.591,1.017 1,2c-3.025,0.694 -5.858,1.694 -8.5,3z" fill="#7a7a89"/><path d="M236,252c-9.311,-0.512 -9.311,-1.345 0,-2.5c1,-1 2,-2 3,-3c-2.53,0.796 -5.196,1.129 -8,1c1.358,-0.934 2.692,-1.768 4,-2.5c1.068,-0.934 2.401,-1.268 4,-1c0.333,-3.333 0.667,-6.667 1,-10c1.545,0.73 2.378,2.063 2.5,4c0.167,-1.167 0.333,-2.333 0.5,-3.5c-0.47,-4.049 -1.47,-7.882 -3,-11.5c-1.915,-0.284 -3.581,0.049 -5,1c-1.373,0.157 -2.707,-0.01 -4,-0.5c6.845,-3.357 11.678,-1.524 14.5,5.5c1.027,9.422 -2.139,17.089 -9.5,23z" fill="#312c2a"/><path d="M114,235c0.342,0.838 1.008,1.172 2,1c0.176,3.932 1.176,7.599 3,11c-1.223,1.114 -2.556,1.281 -4,0.5c-1.062,-3.047 -2.395,-5.88 -4,-8.5c-0.412,-2.473 0.588,-3.806 3,-4z" fill="#666470"/><path d="M163,240c1,0 2,0 3,0c0.308,2.424 -0.026,4.757 -1,7c-2.098,0.457 -3.764,1.457 -5,3c-0.333,0 -0.667,0 -1,0c-2,0 -4,0 -6,0c-0.59,-1.597 -1.59,-2.931 -3,-4c1.408,-0.743 2.741,-1.577 4,-2.5c-0.333,-0.333 -0.667,-0.667 -1,-1c3.409,-0.996 6.742,-1.829 10,-2.5z" fill="#8a7867"/><path d="M163,240c1.788,-1.122 3.788,-1.289 6,-0.5c-0.227,2.369 -0.393,4.869 -0.5,7.5c-2.305,2.43 -5.138,3.43 -8.5,3c1.236,-1.543 2.902,-2.543 5,-3c0.974,-2.243 1.308,-4.576 1,-7c-1,0 -2,0 -3,0z" fill="#a89a93"/><path d="M195,256c-5.333,0.667 -10.667,1.333 -16,2c3.034,-1.518 6.367,-2.351 10,-2.5c-1.634,-0.494 -3.301,-0.66 -5,-0.5c-0.157,-1.373 0.01,-2.707 0.5,-4c2.309,-1.699 4.142,-3.699 5.5,-6c2.247,-0.457 4.247,-1.457 6,-3c1.45,1.155 2.45,2.655 3,4.5c-0.744,2.483 -0.744,5.149 0,8c-1.558,0.21 -2.891,0.71 -4,1.5z" fill="#5d616e"/><path d="M160,239c0.709,0.904 1.709,1.237 3,1c-3.258,0.671 -6.591,1.504 -10,2.5c0.333,0.333 0.667,0.667 1,1c-1.259,0.923 -2.592,1.757 -4,2.5c1.41,1.069 2.41,2.403 3,4c-1,0 -2,0 -3,0c-2.318,-1.685 -3.318,-4.019 -3,-7c3.689,-3.012 8.022,-4.345 13,-4z" fill="#716052"/><path d="M248,239c1,0 2,0 3,0c0,1.667 0,3.333 0,5c-0.331,1.822 -0.998,3.489 -2,5c-0.333,0 -0.667,0 -1,0c0.131,-0.876 -0.202,-1.543 -1,-2c-1.069,1.41 -2.403,2.41 -4,3c0.531,-2.044 1.698,-3.711 3.5,-5c0.813,-1.936 1.313,-3.936 1.5,-6z" fill="#3e3f41"/><path d="M76,239c2,0 4,0 6,0c0.342,0.838 1.008,1.172 2,1c0,0.667 0,1.333 0,2c-2.177,-0.086 -4.177,-0.753 -6,-2c-1.225,2.343 -0.559,4.177 2,5.5c6.392,1.681 12.725,3.514 19,5.5c7.91,2.583 15.91,4.917 24,7c2.064,1.368 4.398,2.368 7,3c-1.921,1.141 -3.921,1.308 -6,0.5c-14.78,-3.872 -29.446,-8.039 -44,-12.5c-4.621,-1.919 -5.954,-5.252 -4,-10z" fill="#23222a"/><path d="M121,244c6.478,2.278 13.145,3.945 20,5c0.543,0.06 0.876,0.393 1,1c-1.189,0.929 -2.522,1.262 -4,1c-2.306,-0.493 -4.639,-0.826 -7,-1c-2.405,-1.268 -5.072,-1.935 -8,-2c-1.333,0 -2,-0.667 -2,-2c0,-0.667 0,-1.333 0,-2z" fill="#25211f"/><path d="M216,228c-0.464,2.636 -0.797,5.303 -1,8c0.056,2.14 0.723,3.806 2,5c0.667,-1.667 1.333,-3.333 2,-5c-0.371,4.196 0.629,7.863 3,11c0,0.333 0,0.667 0,1c-0.836,2.687 -2.336,5.02 -4.5,7c-0.684,-1.284 -0.517,-2.451 0.5,-3.5c-1.325,0.148 -2.492,-0.018 -3.5,-0.5c-0.215,-7.768 -1.048,-15.435 -2.5,-23c1.333,0 2.667,0 4,0z" fill="#625b5a"/><path d="M84,242c0.381,1.431 1.381,2.264 3,2.5c4.792,1.921 9.625,2.421 14.5,1.5c1.913,1.687 4.08,2.187 6.5,1.5c-2.135,-1.381 -4.468,-2.381 -7,-3c0.594,-0.464 1.261,-0.631 2,-0.5c2.121,-0.175 4.121,0.159 6,1c0.801,1.542 1.134,3.208 1,5c2.053,-0.098 3.72,0.569 5,2c-4.431,-1.232 -8.931,-2.232 -13.5,-3c-1.167,0.167 -2.333,0.333 -3.5,0.5c0.556,0.383 0.889,0.883 1,1.5c-6.275,-1.986 -12.608,-3.819 -19,-5.5c-2.559,-1.323 -3.225,-3.157 -2,-5.5c1.823,1.247 3.823,1.914 6,2z" fill="#57565e"/><path d="M137,239c1.062,1.982 2.395,3.815 4,5.5c2.094,0.445 3.594,-0.388 4.5,-2.5c0.383,0.556 0.883,0.889 1.5,1c-0.318,2.981 0.682,5.315 3,7c0.111,0.617 0.444,1.117 1,1.5c-4.55,2.124 -8.884,1.958 -13,-0.5c1.478,0.262 2.811,-0.071 4,-1c-0.124,-0.607 -0.457,-0.94 -1,-1c-2.305,-2.907 -3.638,-6.241 -4,-10z" fill="#4c403f"/><path d="M235,224c1.419,-0.951 3.085,-1.284 5,-1c1.53,3.618 2.53,7.451 3,11.5c-0.167,1.167 -0.333,2.333 -0.5,3.5c-0.122,-1.937 -0.955,-3.27 -2.5,-4c0.107,-2.403 -0.893,-4.236 -3,-5.5c-4.624,-1.056 -7.457,0.777 -8.5,5.5c-0.749,1.135 -0.583,2.135 0.5,3c1.915,-1.571 2.915,-3.571 3,-6c1.478,-0.262 2.811,0.071 4,1c-0.991,2.744 -0.657,5.411 1,8c-1.789,1.533 -3.789,2.533 -6,3c0.188,-1.603 -0.312,-2.937 -1.5,-4c-1.161,4.66 0.672,6.66 5.5,6c-1.308,0.732 -2.642,1.566 -4,2.5c2.804,0.129 5.47,-0.204 8,-1c-1,1 -2,2 -3,3c-9.311,1.155 -9.311,1.988 0,2.5c-1.869,0.665 -3.869,1.331 -6,2c2.265,1.147 4.598,1.314 7,0.5c2.16,-1.332 4.16,-2.832 6,-4.5c-1.979,4.419 -5.479,6.753 -10.5,7c-1.787,-0.259 -3.287,-0.925 -4.5,-2c-2.693,-1.782 -4.693,-4.115 -6,-7c0,-0.333 0,-0.667 0,-1c0.063,-7.273 1.063,-14.273 3,-21c-0.377,3.025 -0.544,6.025 -0.5,9c1.194,-2.123 1.86,-4.457 2,-7c0.333,1 0.667,2 1,3c2.72,-4.086 6.553,-6.086 11.5,-6c-1.189,-0.929 -2.522,-1.262 -4,-1z" fill="#26211f"/><path d="M167,238c1.478,-0.262 2.811,0.071 4,1c-1.419,2.995 -0.919,5.662 1.5,8c1.5,-3.741 4,-5.407 7.5,-5c-4.054,4.058 -8.387,7.725 -13,11c-2.776,-0.912 -5.443,-1.912 -8,-3c0.333,0 0.667,0 1,0c3.362,0.43 6.195,-0.57 8.5,-3c0.107,-2.631 0.273,-5.131 0.5,-7.5c-2.212,-0.789 -4.212,-0.622 -6,0.5c-1.291,0.237 -2.291,-0.096 -3,-1c2.107,-0.968 4.441,-1.302 7,-1z" fill="#908787"/><path d="M309,233c-13.893,5.907 -28.226,11.074 -43,15.5c-2.607,1.352 -4.94,2.852 -7,4.5c-5.225,-0.39 -8.892,1.777 -11,6.5c-4.19,1.202 -7.523,3.535 -10,7c-6.856,1.913 -13.856,2.913 -21,3c-2.002,1.019 -4.002,1.852 -6,2.5c-7.333,0 -14.667,0 -22,0c3.522,-1.228 7.189,-2.395 11,-3.5c10.305,-1.059 20.639,-1.726 31,-2c3.215,-0.274 5.881,-1.607 8,-4c-1.574,-0.699 -2.907,-0.365 -4,1c-7.802,1.751 -14.135,-0.416 -19,-6.5c2.058,1.433 4.392,2.1 7,2c11.513,4.498 19.846,1.164 25,-10c0.333,0 0.667,0 1,0c-0.749,4.996 0.585,5.162 4,0.5c13.856,-2.37 27.189,-6.537 40,-12.5c5.452,-1.219 10.785,-2.553 16,-4z" fill="#2d2d2b"/><path d="M116,236c2.43,2.96 4.097,6.293 5,10c0,1.333 0.667,2 2,2c-1.403,2.8 -0.403,4.3 3,4.5c-3.67,0.279 -7.337,0.112 -11,-0.5c-1.28,-1.431 -2.947,-2.098 -5,-2c0.134,-1.792 -0.199,-3.458 -1,-5c0.543,-0.06 0.876,-0.393 1,-1c-1.45,-1.35 -2.117,-3.016 -2,-5c1,0 2,0 3,0c1.605,2.62 2.938,5.453 4,8.5c1.444,0.781 2.777,0.614 4,-0.5c-1.824,-3.401 -2.824,-7.068 -3,-11z" fill="#36343c"/><path d="M123,248c2.928,0.065 5.595,0.732 8,2c2.361,0.174 4.694,0.507 7,1c4.116,2.458 8.45,2.624 13,0.5c-0.556,-0.383 -0.889,-0.883 -1,-1.5c1,0 2,0 3,0c2.912,1.456 5.912,2.956 9,4.5c-2.363,0.589 -3.363,2.089 -3,4.5c-13.136,-1.129 -26.136,-2.629 -39,-4.5c-1.675,-0.985 -3.342,-1.819 -5,-2.5c3.663,0.612 7.33,0.779 11,0.5c-3.403,-0.2 -4.403,-1.7 -3,-4.5z" fill="#4d4c55"/><path d="M203,229c1.333,0 2.667,0 4,0c-2.48,7.975 -3.147,15.975 -2,24c2.577,0.045 4.577,-0.955 6,-3c0,1.333 0,2.667 0,4c-5.196,1.587 -10.53,2.254 -16,2c1.109,-0.79 2.442,-1.29 4,-1.5c-0.744,-2.851 -0.744,-5.517 0,-8c-0.55,-1.845 -1.55,-3.345 -3,-4.5c-1.753,1.543 -3.753,2.543 -6,3c0.233,-1.562 0.9,-2.895 2,-4c2.642,-1.306 5.475,-2.306 8.5,-3c0.591,-0.983 0.257,-1.65 -1,-2c-1.44,0.648 -2.94,0.981 -4.5,1c-2.667,-0.866 -5.333,-1.866 -8,-3c0.363,-0.683 0.696,-1.35 1,-2c3.605,-0.799 7.105,-0.799 10.5,0c1.893,-0.508 3.393,-1.508 4.5,-3z" fill="#505669"/><path d="M192,241c-1.1,1.105 -1.767,2.438 -2,4c-1.358,2.301 -3.191,4.301 -5.5,6c-0.49,1.293 -0.657,2.627 -0.5,4c1.699,-0.16 3.366,0.006 5,0.5c-3.633,0.149 -6.966,0.982 -10,2.5c-5.921,1.809 -12.087,2.809 -18.5,3c-7.169,-0.364 -14.336,-0.697 -21.5,-1c-5.423,-0.024 -10.757,-0.69 -16,-2c-8.09,-2.083 -16.09,-4.417 -24,-7c-0.111,-0.617 -0.444,-1.117 -1,-1.5c1.167,-0.167 2.333,-0.333 3.5,-0.5c4.569,0.768 9.069,1.768 13.5,3c1.658,0.681 3.325,1.515 5,2.5c12.864,1.871 25.864,3.371 39,4.5c-0.363,-2.411 0.637,-3.911 3,-4.5c-3.088,-1.544 -6.088,-3.044 -9,-4.5c2,0 4,0 6,0c2.557,1.088 5.224,2.088 8,3c1.031,0.749 2.198,1.415 3.5,2c2.309,-1.475 4.476,-3.142 6.5,-5c1.149,2.425 1.816,2.425 2,0c2.988,-4.683 7.322,-7.683 13,-9z" fill="#6c6e79"/><path d="M131,255c8.842,-1.322 17.842,-1.322 27,0c-9,1.143 -18,1.143 -27,0z" fill="#31313d"/><path d="M131,250c1.777,1.1 3.777,1.934 6,2.5c-2.982,0.498 -5.982,0.665 -9,0.5c0,-1 0,-2 0,-3c1,0 2,0 3,0z" fill="#77767e"/><path d="M80,249c14.554,4.461 29.22,8.628 44,12.5c2.079,0.808 4.079,0.641 6,-0.5c-2.602,-0.632 -4.936,-1.632 -7,-3c5.243,1.31 10.577,1.976 16,2c3.189,0.666 6.523,1.333 10,2c1.141,0.925 1.141,1.759 0,2.5c6.325,0.5 12.658,0.666 19,0.5c-12.155,0.995 -24.489,1.329 -37,1c-10.432,-3.275 -21.098,-5.941 -32,-8c-0.381,-1.431 -1.381,-2.264 -3,-2.5c-2.31,-0.497 -4.643,-0.663 -7,-0.5c-0.486,3.255 0.514,5.922 3,8c4.66,3.779 9.66,6.779 15,9c-6.609,-0.432 -12.609,-2.599 -18,-6.5c-3.37,-2.697 -4.704,-6.197 -4,-10.5c1.052,0.149 2.052,-0.017 3,-0.5c-3.215,-1.102 -5.882,-2.935 -8,-5.5z" fill="#3b3c41"/><path d="M248,249c-5.154,11.164 -13.487,14.498 -25,10c0.17,-1.322 -0.163,-2.489 -1,-3.5c1.973,-0.495 3.973,-0.662 6,-0.5c1.213,1.075 2.713,1.741 4.5,2c5.021,-0.247 8.521,-2.581 10.5,-7c1.597,-0.59 2.931,-1.59 4,-3c0.798,0.457 1.131,1.124 1,2z" fill="#585a5c"/><path d="M211,254c0,1.667 0,3.333 0,5c-14.24,2.54 -28.573,4.54 -43,6c-6.342,0.166 -12.675,0 -19,-0.5c1.141,-0.741 1.141,-1.575 0,-2.5c-3.477,-0.667 -6.811,-1.334 -10,-2c7.164,0.303 14.331,0.636 21.5,1c6.413,-0.191 12.579,-1.191 18.5,-3c5.333,-0.667 10.667,-1.333 16,-2c5.47,0.254 10.804,-0.413 16,-2z" fill="#454555"/><path d="M99,258c10.902,2.059 21.568,4.725 32,8c-5.333,0.333 -5.333,0.667 0,1c0,1.333 0,2.667 0,4c2.235,-0.295 4.235,0.039 6,1c-4.667,0 -9.333,0 -14,0c-6.678,-2.861 -13.345,-6.027 -20,-9.5c-1.293,-0.49 -2.627,-0.657 -4,-0.5c0,-1.333 0,-2.667 0,-4z" fill="#161518"/><path d="M99,258c0,1.333 0,2.667 0,4c1.373,-0.157 2.707,0.01 4,0.5c6.655,3.473 13.322,6.639 20,9.5c-5.333,0 -10.667,0 -16,0c-5.34,-2.221 -10.34,-5.221 -15,-9c-2.486,-2.078 -3.486,-4.745 -3,-8c2.357,-0.163 4.69,0.003 7,0.5c1.619,0.236 2.619,1.069 3,2.5z" fill="#2a2a2a"/><path d="M211,254c2.459,-0.19 4.126,0.81 5,3c4.865,6.084 11.198,8.251 19,6.5c1.093,-1.365 2.426,-1.699 4,-1c-2.119,2.393 -4.785,3.726 -8,4c-10.361,0.274 -20.695,0.941 -31,2c-3.811,1.105 -7.478,2.272 -11,3.5c-1.667,0 -3.333,0 -5,0c0.929,-0.815 1.929,-1.648 3,-2.5c-1,-0.333 -2,-0.667 -3,-1c5.983,-1.319 11.983,-2.653 18,-4c5.015,-0.219 10.015,-0.219 15,0c-1.939,-0.908 -2.939,-2.408 -3,-4.5c-1.291,0.237 -2.291,-0.096 -3,-1c0,-1.667 0,-3.333 0,-5z" fill="#171615"/><path d="M211,259c0.709,0.904 1.709,1.237 3,1c0.061,2.092 1.061,3.592 3,4.5c-4.985,-0.219 -9.985,-0.219 -15,0c-6.017,1.347 -12.017,2.681 -18,4c1,0.333 2,0.667 3,1c-1.071,0.852 -2.071,1.685 -3,2.5c-15.667,0 -31.333,0 -47,0c-1.765,-0.961 -3.765,-1.295 -6,-1c0,-1.333 0,-2.667 0,-4c-5.333,-0.333 -5.333,-0.667 0,-1c12.511,0.329 24.845,-0.005 37,-1c14.427,-1.46 28.76,-3.46 43,-6z" fill="#0c0c0f"/></g></g></svg>