<svg version="1.1" xmlns="http://www.w3.org/2000/svg" xmlns:xlink="http://www.w3.org/1999/xlink" width="114.7736" height="92.42244" viewBox="0,0,114.7736,92.42244"><defs><linearGradient x1="251.77378" y1="172.95159" x2="255.29273" y2="219.50234" gradientUnits="userSpaceOnUse" id="color-1"><stop offset="0" stop-color="#4f4b42"/><stop offset="1" stop-color="#ffd5ea"/></linearGradient></defs><g transform="translate(-182.55066,-133.78878)"><g data-paper-data="{&quot;isPaintingLayer&quot;:true}" stroke-miterlimit="10" stroke-dasharray="" stroke-dashoffset="0" style="mix-blend-mode: normal"><g fill-rule="evenodd"><path d="M212.72633,166.57319c-0.33856,0.82788 -1.10785,2.59088 -4.67909,0.454c-3.57124,-2.13688 -4.78936,-8.96449 -4.84966,-9.76221c-0.33339,-3.08364 -0.61983,-6.87283 0.4596,-11.16641c3.069,-12.46681 16.12419,-13.55399 18.51219,-9.82338c2.38047,3.63089 -5.56835,5.93663 -10.03982,11.79033c-2.01283,2.55901 -2.59196,5.51106 -2.90962,7.94192c-0.342,3.43555 3.93715,9.63062 3.50641,10.56575z" fill="#6690ff" stroke="#001026" stroke-width="1.2" stroke-linecap="round" stroke-linejoin="round"/><path d="M218.93389,141.23318c-2.57171,1.79897 -6.12723,5.17659 -6.12723,5.17659c0,0 0.61854,-3.75731 -1.23492,-5.7232c-1.42445,-1.59717 -3.58803,-1.03248 -4.27097,-0.78028c1.19831,-1.39429 2.87258,-3.12542 6.28725,-4.38641c3.41466,-1.26098 7.67809,-0.58042 8.42714,1.36867c0.54962,1.96416 -0.90842,2.5758 -3.08127,4.34462z" fill="#ffffff" stroke="none" stroke-width="1" stroke-linecap="butt" stroke-linejoin="miter"/></g><path d="M202.73281,172.3429c-1.33227,-1.70442 -6.1871,-7.55512 -9.27548,-15.24419l-0.12987,-0.39132c-0.12987,-0.39132 -0.64352,-0.55307 -1.02731,-0.32348c-2.26503,1.87607 -6.8177,5.32907 -8.92744,-0.02714c-2.09467,-5.15678 11.21896,-16.09145 15.22503,-12.1823c1.53924,1.78906 0.96937,3.53699 0.63835,4.46458c-0.16174,0.51365 -0.12405,1.01223 0.01335,1.50327c0.48932,1.16643 1.45287,3.29987 2.47846,4.92719c2.51787,4.12193 3.49069,5.05125 5.13718,6.93249c1.64649,1.88124 5.68271,6.18925 2.77071,10.11994c-2.45111,3.39442 -5.57825,1.82568 -6.90298,0.22097z" fill="#6690ff" fill-rule="evenodd" stroke="#001026" stroke-width="1.2" stroke-linecap="round" stroke-linejoin="round"/><path d="M224.67216,186.62979c-0.36117,0.52873 -7.08088,7.1541 -5.13524,9.01273c2.27493,2.23488 6.61202,5.21643 3.59277,9.05494c-3.01925,3.83851 -9.11589,-2.52002 -10.83022,-5.2987c-3.61129,-6.64669 1.8498,-12.6755 3.35479,-13.99269c1.50499,-1.31719 4.03902,-3.61474 6.63162,-3.81073c2.79957,-0.11135 3.75387,3.22622 2.38628,5.03445z" fill="#6690ff" fill-rule="evenodd" stroke="#001026" stroke-width="1.2" stroke-linecap="round" stroke-linejoin="round"/><g fill-rule="evenodd"><path d="M201.44598,188.48583c-1.7363,2.23725 -5.27846,7.11814 -5.27846,7.11814c0,0 3.57081,14.07087 -3.60871,14.6136c-4.28777,0.32413 -5.82765,-6.78001 -5.66139,-16.52025c0.05449,-0.60583 0.20869,-1.2192 0.56986,-1.74793c1.72876,-2.33696 6.83794,-9.04116 10.42533,-13.32376c5.33876,-6.32041 8.7586,-11.49291 8.7586,-11.49291c7.63567,-9.10146 11.64582,-2.48492 16.63569,-0.15442c4.27678,2.18383 3.56198,3.34101 2.81766,9.41439c-0.24229,3.42802 -0.39068,5.44494 -0.12513,7.63114c0.34847,3.28307 -4.48311,3.0466 -7.04383,2.33761c0,0 -3.795,-1.11712 -5.78759,-2.2702c-2.41406,-1.42208 -4.00025,-2.50559 -4.98814,-3.63434z" fill="#6690ff" stroke="#001026" stroke-width="1.2" stroke-linecap="round" stroke-linejoin="round"/><path d="M208.19175,179.55193c0,0 1.08352,-1.58619 2.45864,-3.2947c1.64412,-2.12999 2.9891,-4.23737 6.23103,-2.47673c2.52885,1.61397 5.84789,3.06792 3.29535,7.77372c-2.36819,4.49129 -5.0043,2.78514 -5.0043,2.78514c-4.65303,-1.85454 -6.98073,-4.78742 -6.98073,-4.78742z" fill="#ffffff" stroke="none" stroke-width="1" stroke-linecap="butt" stroke-linejoin="miter"/></g><path d="M215.2302,163.87678c-2.6262,2.4048 -5.85995,6.05895 -9.07583,1.98979c-3.73535,-5.63446 5.86685,-11.27431 9.28151,-12.53529c3.02334,-1.13111 5.21363,1.31073 7.07463,3.37633c3.41531,4.05409 6.47871,7.43279 5.28449,11.53448c-1.41798,5.12146 -5.67797,1.83321 -7.66129,-0.52399c-1.20994,-1.41282 -2.51959,-2.81809 -3.30052,-3.8622c-0.52119,-0.26146 -1.12702,-0.31595 -1.60299,0.02089z" fill="#6690ff" fill-rule="evenodd" stroke="#001026" stroke-width="1.2" stroke-linecap="round" stroke-linejoin="round"/><g fill-rule="evenodd"><path d="M284.81288,190.20662c0.22204,0.28407 0.16002,0.79019 -0.23131,0.92005l-10.47357,3.39916c0,0 -4.2042,6.73607 -7.35159,8.87942c-5.24314,3.60548 -9.7228,4.0444 -9.7228,4.0444c0,0 -1.55884,7.2381 -7.15216,8.86434c-5.59333,1.62625 -16.69427,-1.94714 -21.80087,-20.41476c-5.1066,-18.46761 -1.15933,-33.90908 9.67305,-41.8482c10.83238,-7.93912 25.23793,2.20386 24.39498,1.66587l17.69078,-3.44331c0.39132,-0.12987 0.72816,0.3461 0.55888,0.76003l-6.96544,12.66107c0,0 2.03437,4.35905 2.58808,9.03061c0.41049,2.77696 0.39197,5.18521 0.16648,7.50881z" fill="#6690ff" stroke="#001026" stroke-width="1.2" stroke-linecap="butt" stroke-linejoin="miter"/><path d="M256.61213,207.18066c0,0 -1.27476,7.01605 -6.86809,8.6423c-5.59333,1.62625 -16.22584,-2.3837 -21.21765,-20.65941c-6.80994,-23.75426 6.68223,-36.30699 17.75711,-30.42507c11.1746,5.87438 2.96734,18.02761 4.19882,26.35849c1.04131,7.14183 7.38368,7.46466 6.12981,16.0837z" fill="#ffffff" stroke="none" stroke-width="1" stroke-linecap="butt" stroke-linejoin="miter"/><path d="M243.56814,176.57683c0.39886,-0.03015 0.72816,0.3461 0.6586,0.7525c-0.55479,1.94736 -1.74319,7.4526 -1.68978,13.46568c0.1079,5.40725 0.64826,8.57553 1.06047,10.04865c0.1374,0.49104 -0.33102,0.92759 -0.84467,0.76585c-2.76016,-0.69392 -10.52526,-3.91776 -10.71845,-14.43312c0.31121,-9.14949 6.62516,-10.52935 11.53383,-10.59956z" fill="#ffffff" stroke="#001026" stroke-width="1.2" stroke-linecap="round" stroke-linejoin="round"/><path d="M256.90223,225.61122c-4.14347,-4.40019 -4.78591,-11.57217 -4.78591,-11.57217" fill="none" stroke="#001026" stroke-width="1.2" stroke-linecap="round" stroke-linejoin="round"/><path d="M245.6361,225.15917c-0.97346,-6.24439 0.62715,-10.27651 0.62715,-10.27651" fill="none" stroke="#001026" stroke-width="1.2" stroke-linecap="round" stroke-linejoin="round"/><path d="M253.04477,190.50211c0.1583,2.09403 0.1247,4.30284 -0.56577,4.45532c-1.38848,0.20525 -4.29358,-1.07943 -4.5139,-2.66734c-0.33511,-1.7798 1.84118,-6.1563 3.43663,-6.27691c1.18905,-0.19017 1.49229,2.49461 1.64304,4.48892z" fill="#001026" stroke="#001026" stroke-width="1.2" stroke-linecap="round" stroke-linejoin="round"/><path d="M251.14845,145.51707c0,0 -2.14378,8.78659 -4.97113,12.51031" fill="none" stroke="#001026" stroke-width="1.2" stroke-linecap="round" stroke-linejoin="round"/><path d="M242.70989,158.59035c-2.01929,-4.15962 -1.48023,-11.62149 -1.48023,-11.62149" fill="none" stroke="#001026" stroke-width="1.2" stroke-linecap="round" stroke-linejoin="round"/><g><path d="M265.60095,201.3866c-4.2686,3.23095 -9.34655,3.7151 -11.35249,1.05875c-2.00594,-2.65635 -0.25866,-7.40156 4.0024,-10.73223c4.2686,-3.23095 9.34655,-3.7151 11.35249,-1.05875c2.10566,2.64881 0.2662,7.50128 -4.0024,10.73223z" fill="#ffffff" stroke="#001026" stroke-width="1.2" stroke-linecap="round" stroke-linejoin="round"/><path d="M259.88702,201.4174c-1.09687,0.08292 -2.05461,-0.64697 -2.12999,-1.64412c-0.07538,-0.99715 0.76176,-1.86272 1.85863,-1.94564c1.09687,-0.08292 2.05461,0.64697 2.12999,1.64412c0.07538,0.99715 -0.76176,1.86272 -1.85863,1.94564" fill="#001026" stroke="none" stroke-width="1" stroke-linecap="butt" stroke-linejoin="miter"/></g><g><path d="M260.93951,176.86822c-4.16135,3.32313 -9.56106,3.53075 -11.65918,0.98165c-2.14334,-3.14739 -1.07899,-7.6404 3.08235,-10.96354c4.15381,-3.42285 9.82251,-4.05194 12.24993,-1.12659c2.52713,2.91781 0.48824,7.78535 -3.67311,11.10848z" fill="#ffffff" stroke="#001026" stroke-width="1.2" stroke-linecap="round" stroke-linejoin="round"/><path d="M255.1108,176.70713c-1.09687,0.08292 -2.05461,-0.64697 -2.12999,-1.64412c-0.07538,-0.99715 0.76176,-1.86272 1.85863,-1.94564c1.09687,-0.08292 2.05461,0.64697 2.12999,1.64412c-0.02434,1.00469 -0.76176,1.86272 -1.85863,1.94564" fill="#001026" stroke="none" stroke-width="1" stroke-linecap="butt" stroke-linejoin="miter"/></g></g><path d="M264.56088,212.32373c-3.23913,5.86485 -10.60992,9.76755 -15.23993,5.352c-4.63001,-4.41556 -6.48159,-15.69608 -4.15347,-27.24443c1.29538,-6.45551 4.14275,-12.49873 8.29637,-17.60747z" fill="url(#color-1)" fill-rule="nonzero" stroke="#149948" stroke-width="0.96" stroke-linecap="butt" stroke-linejoin="miter"/><path d="M286.83815,197.7029c-6.29753,5.20551 -13.47312,8.34734 -25.33496,10.62796c-1.67546,-2.5974 -3.04114,-5.38197 -4.06899,-8.29689c6.44644,-1.10908 12.79468,-2.72781 18.98512,-4.84085c10.43997,-3.73759 20.64305,-13.47438 20.31379,-17.82996c0.24364,2.94842 0.10384,5.916 -0.4157,8.82845c-2.45544,4.36661 -5.6648,8.26382 -9.47926,11.51129z" fill="#ff7bd0" fill-rule="nonzero" stroke="none" stroke-width="1" stroke-linecap="butt" stroke-linejoin="miter"/><path d="M264.62343,212.3551c-1.11185,-1.25747 -2.13363,-2.59164 -3.05768,-3.99288c11.9097,-2.28424 19.03742,-5.42245 25.33496,-10.62796c3.795,-3.26214 6.98301,-7.16987 9.41672,-11.54266c-4.12168,22.52678 -31.31533,26.55607 -31.694,26.16349z" fill="#ffa1e2" fill-rule="nonzero" stroke="none" stroke-width="1" stroke-linecap="butt" stroke-linejoin="miter"/><path d="M276.53899,195.18407c-6.19043,2.11304 -12.53868,3.73177 -18.98512,4.84085c-2.10454,-6.27702 -3.35524,-12.80853 -3.71836,-19.41896c-0.31689,-3.90542 -0.38829,-7.8269 -0.21365,-11.7413c6.54699,-0.37587 13.11359,-0.22844 19.63711,0.44103c10.42903,1.05287 23.30319,5.79592 23.47415,8.05747c0.33106,4.3795 -9.87382,14.09237 -20.19413,17.82091z" fill="#ffff4f" fill-rule="nonzero" stroke="none" stroke-width="1" stroke-linecap="butt" stroke-linejoin="miter"/><path d="M273.15128,169.31383c-6.50766,-0.65191 -13.05689,-0.78462 -19.58563,-0.39679c0.41467,-8.04615 2.19854,-15.17289 6.16779,-21.24938c0.35326,-0.58028 34.70484,-0.6619 36.99968,29.69549c-0.17096,-2.26155 -13.04511,-7.0046 -23.58184,-8.04933z" fill="#149948" fill-rule="nonzero" stroke="none" stroke-width="1" stroke-linecap="butt" stroke-linejoin="miter"/><path d="M264.62433,212.36707c-3.14838,-3.59681 -5.56879,-7.77064 -7.12666,-12.28976c-2.10454,-6.27702 -3.35524,-12.80853 -3.71836,-19.41896c-0.31689,-3.90542 -0.38829,-7.8269 -0.21365,-11.7413c0.41467,-8.04615 2.19854,-15.17289 6.16779,-21.24938c0.35326,-0.58028 34.70484,-0.6619 36.99968,29.69549c2.29393,30.34542 -31.67955,35.42877 -32.10879,35.00391z" fill="#726663" fill-rule="evenodd" stroke="#149948" stroke-width="0.96" stroke-linecap="butt" stroke-linejoin="miter"/><path d="M254.95437,217.05733c-1.66256,0.29416 -3.63499,-0.32693 -5.09805,-2.64725" fill="none" fill-rule="evenodd" stroke="#ffffff" stroke-width="1.272" stroke-linecap="round" stroke-linejoin="round"/><path d="M258.64463,215.25002c-0.42039,0.39802 -0.89266,0.73729 -1.40396,1.0087" fill="none" fill-rule="evenodd" stroke="#ffffff" stroke-width="1.272" stroke-linecap="round" stroke-linejoin="round"/><path d="M261.75684,151.51008c1.63077,0.08131 2.56752,0.21508 2.56752,0.21508" fill="none" fill-rule="evenodd" stroke="#726663" stroke-width="1.92" stroke-linecap="round" stroke-linejoin="round"/><path d="M267.63334,152.19707c3.38728,0.5365 6.67903,1.56048 9.77295,3.03997" fill="none" fill-rule="evenodd" stroke="#726663" stroke-width="1.92" stroke-linecap="round" stroke-linejoin="round"/></g></g></svg>