<svg version="1.1" xmlns="http://www.w3.org/2000/svg" xmlns:xlink="http://www.w3.org/1999/xlink" width="143.46465" height="89.99096" viewBox="0,0,143.46465,89.99096"><g transform="translate(-168.26767,-151.00452)"><g data-paper-data="{&quot;isPaintingLayer&quot;:true}" fill-rule="nonzero" stroke="#000000" stroke-width="0.5" stroke-linejoin="miter" stroke-miterlimit="10" stroke-dasharray="" stroke-dashoffset="0" style="mix-blend-mode: normal"><path d="M224.80617,189.3469c0,3.90604 2.65635,7.36722 1.51522,7.36722c-1.14113,0 -5.64764,-3.46116 -5.64764,-7.36722c0,-1.29423 0.08644,-2.28081 0.24354,-3.0215c0.31705,-1.49476 0.92189,-1.9882 1.68492,-1.9882c0.46547,0 2.70864,-1.73183 3.08123,-1.24927c0.29862,0.38676 -0.82646,1.84421 -1.15382,3.19743c-0.26551,1.09759 0.27654,2.0258 0.27654,3.06155z" fill="#d8d8d8" stroke-linecap="butt"/><path d="M173.96926,230.68502c0.31483,-0.76456 -0.17754,-7.12629 0.67487,-9.12746c3.62332,-8.50631 7.82998,-18.87559 8.81921,-26.82409c0.32156,-2.58375 -0.82536,-6.78821 -2.66439,-8.92807c-1.0598,-1.23316 -3.18433,-0.88762 -3.24655,-1.44407c-0.05591,-0.49995 -1.24782,-0.96155 -2.91596,-1.05495c-2.26245,-0.12666 -1.73425,-0.46718 -4.1027,-0.7345c-2.72623,-0.3077 -1.89763,-2.12712 -1.89763,-2.12712c0,0 2.50522,-1.5574 4.94054,-2.9038c2.4014,-1.32764 -1.27439,-0.11122 -0.19054,-0.11122c9.85394,0 81.5,0 81.5,0c0,0 -5.29372,1.7848 -8.96627,4.30283c-3.44518,2.36214 -5.28373,5.43371 -5.28373,6.39388c0,1.82929 -0.94214,6.64667 0.28887,11.29551c0.44639,1.68574 -7.24333,0.70368 -14.29837,0.92172c-3.65301,0.11291 -7.13585,-0.32395 -9.23098,0.13386c-1.25289,0.27377 -2.00953,1.55462 -2.00953,1.55462c0,0 -1.98975,6.56873 -2.90872,13.84668c-0.30892,2.44651 -0.56247,4.98721 -0.77657,7.42777c-0.65644,7.48296 -0.94195,14.02469 -1.31472,14.02469c-12.21245,0 -35.97596,0 -35.99998,0c-0.0015,-0.00844 -0.94751,-5.3576 -0.41686,-6.64627zM215.66175,188.57186l-0.00986,0.04435l0.01283,0.01925c0.00983,0.14472 0.04018,0.28381 0.08817,0.41438l-0.00806,0.03628l-0.0836,0.33436v0.0418l-0.00934,0.04206l0.0074,0.0111l-0.00328,0.01474l-0.08359,0.33437v0.04179l-0.00935,0.04206l0.00331,0.00496l-0.00331,0.00496l0.00935,0.04206v0.04179l0.08359,0.33437l0.06745,0.30352l0.01475,0.1917l0.08882,0.26644l0.05796,0.09109l0.02342,0.10539l0.17763,0.35525l0.15692,0.18308l0.12406,0.20676l0.10574,0.10574l0.03664,0.04275l0.12405,0.20677l0.46099,0.46098l0.03664,0.04275l0.12406,0.20677l0.0055,0.0055l0.12967,0.25935l0.15445,0.38614l0.03727,0.0516l0.01381,0.06213l0.08881,0.17763l0.06169,0.07197l0.03188,0.08926l0.03181,0.04772l0.05225,0.23512l0.01869,0.03739l0.00057,0.0023v2.39794l0.05848,0.23392l0.0185,0.24041l0.08881,0.26644l0.41505,0.65222l0.1713,0.03426l0.08667,0.15168l0.75,0.1875h1.421l0.23392,-0.05848l0.24042,-0.01849l0.26644,-0.08881l0.0186,-0.01184h2.49135l0.41042,0.06841l0.0674,-0.00539l0.06415,0.02138l1.15456,0.08882l0.05799,-0.00985l0.05706,0.01427h9.14508l0.02349,0.00522l0.33436,0.08359h0.0418l0.04206,0.00935l0.01402,-0.00935h1.67838l0.75,-0.1875l0.08667,-0.15168l0.17131,-0.03426l0.41504,-0.65222l0.08882,-0.26644l0.0185,-0.24041l0.05848,-0.23393v-0.44406l-0.05848,-0.23393l-0.0185,-0.24042l-0.01184,-0.03551v-0.37827l-0.01463,-0.05855l0.02273,-0.04546l-0.11364,-0.3182l-0.07208,-0.2883v-0.07975l0.00935,-0.01402l-0.00935,-0.04206v-0.04179l-0.08359,-0.33437l-0.07477,-0.33646l-0.0187,-0.03738l-0.01045,-0.04179l-0.01462,-0.00836l-0.20296,-0.40591l-0.17093,-0.39882l-0.04568,-0.31976v-0.15078l0.00934,-0.01402l-0.00934,-0.04206v-0.0418l-0.0836,-0.33436l-0.05,-0.22503v-0.15965l-0.04403,-0.17611v-0.25941l-0.03041,-0.12163l0.01,-0.12497l-0.17763,-1.06575l-0.0099,-0.02278l0.00118,-0.0248l-0.08407,-0.42034l-0.08483,-0.50902l-0.0684,-0.15733v-0.04014l-0.05848,-0.23392l-0.0185,-0.24041l-0.08881,-0.26644l-0.05797,-0.09109l-0.02342,-0.10539l-0.01517,-0.03035l-0.04888,-0.19551l-0.07774,-0.14576l-0.01159,-0.05219l0.00371,-0.01362l-0.01071,-0.01785l-0.01725,-0.0776l-0.08881,-0.17763l-0.14847,-0.17322l-0.01295,-0.02427l-0.005,-0.00141l-0.00543,-0.00904l-0.01322,-0.03965l-0.18504,-0.29077l-0.17732,-0.29555l-0.0055,-0.0055l-0.24639,-0.49278l-0.0797,-0.09298l-0.00415,-0.07472l-0.22575,-0.19351l-0.1935,-0.22576l-0.00281,-0.00016l-0.04149,-0.06915l-0.62169,-0.62169l-0.15834,-0.095l-0.13057,-0.13058l-0.17636,-0.10581l-0.0676,-0.11267l-0.17763,-0.17763l-0.20676,-0.12405l-0.18308,-0.15693l-0.31516,-0.15758l-0.0055,-0.0055l-0.20676,-0.12406l-0.18308,-0.15692l-0.7105,-0.35525l-0.10539,-0.02342l-0.09108,-0.05796l-0.16066,-0.05355l-0.00774,-0.01354l-0.0418,-0.01045l-0.03739,-0.01869l-0.33646,-0.07477l-0.33436,-0.08359h-0.0418l-0.04206,-0.00934l-0.01402,0.00934h-0.14613l-0.17585,-0.07034l-0.28148,-0.03839l-0.2756,-0.0689h-2.48675l-0.17915,0.04478h-0.18466l-0.35525,0.08882l-0.00621,0.00331l-0.14198,0.03549l-0.02349,0.00522h-0.69884l-0.01402,-0.00934l-0.04206,0.00934h-0.0418l-0.33437,0.08359l-0.33645,0.07477l-0.03739,0.01869l-0.0418,0.01045l-0.00836,0.01463l-0.26771,0.13386l-0.18308,0.15692l-0.20676,0.12406l-0.35525,0.35525l-0.12406,0.20677l-0.03664,0.04275l-0.10574,0.10574l-0.07687,0.12811l-0.11055,0.1005l-0.17762,0.26644l-0.03188,0.08926l-0.06169,0.07197l-0.0069,0.01381l-0.06737,0.04042l-0.0055,0.0055l-0.04218,0.02109l-0.16531,0.0551l-0.05023,0.03196l-0.15342,0.03835l-0.24042,0.0185l-0.17784,0.05928l-0.20685,0.04137h-2.42703l-0.23393,0.05848l-0.24042,0.0185l-0.03551,0.01184h-0.01397l-0.01402,-0.00935l-0.04206,0.00935h-0.0418l-0.33437,0.08359l-0.33645,0.07476l-0.03739,0.0187l-0.0418,0.01045l-0.00836,0.01463l-0.26771,0.13385l-0.09299,0.07971l-0.07472,0.00415l-0.1935,0.22576l-0.01181,0.01012l-0.07105,0.03553l-0.18308,0.15692l-0.01567,0.0094l-0.06105,-0.01665l-0.16527,0.09916l-0.18699,0.04675l-0.05691,0.09959l-0.25375,0.15225l-0.10574,0.10574l-0.04275,0.03664l-0.20676,0.12406l-0.28605,0.28605l-0.01652,0.0033l-0.02313,0.03635l-0.02955,0.02955l-0.17733,0.29554l-0.18504,0.29077l-0.01322,0.03965l-0.02217,0.03694l0.00443,0.01626l-0.02415,0.07246l-0.02764,0.05528c-0.10975,0.20845 -0.17186,0.44587 -0.17186,0.69781c0,0.01321 0.00017,0.02638 0.00051,0.03951z" fill="#d8d8d8" stroke-linecap="butt"/><path d="M174.3861,237.33132c0,0 0.00001,0 0.00002,0v0.00001z" fill="#d8d8d8" stroke-linecap="butt"/><path d="M239.96945,184.20431c0,1.01743 -0.79594,1.84221 -1.77778,1.84221c-0.98184,0 -1.77778,-0.82479 -1.77778,-1.84221c0,-1.01743 0.79594,-1.84221 1.77778,-1.84221c0.98184,0 1.77778,0.82479 1.77778,1.84221z" fill="none" stroke-linecap="butt"/><path d="M216.67315,196.53989c0,1.0172 -0.67838,1.8418 -1.51522,1.8418c-0.83684,0 -1.51522,-0.82459 -1.51522,-1.8418c0,-1.0172 0.67838,-1.8418 1.51522,-1.8418c0.83684,0 1.51522,0.8246 1.51522,1.8418z" fill="none" stroke-linecap="butt"/><path d="M174.52247,233.15496c0,0 -0.66443,-6.82015 0.63005,-11.06802c0.92055,-3.02082 3.15847,-9.25574 5.29598,-15.5466c1.13828,-3.35006 2.03235,-6.48522 3.19057,-9.70134c0.13215,-0.36695 2.41545,0.78444 3.04901,-0.77511c2.60585,-6.41444 4.08857,-16.24754 4.08857,-16.24754h6.33638c0,0 0.01447,2.61358 0.57807,5.21855c0.11766,0.54382 14.73421,0.06014 14.91718,0.8826c0.23172,1.04158 -0.55337,2.56247 -0.63999,3.93659c-0.29465,4.67432 -2.9246,18.71451 -3.06851,19.71602c-1.01768,7.08236 -2.55768,22.55347 -2.55768,22.55347z" fill="#5d5d5d" stroke-linecap="butt"/><path d="M200.14347,208.25378c0,2.35991 -1.7268,4.27298 -3.85692,4.27298c-2.13012,0 -3.85692,-1.91309 -3.85692,-4.27298c0,-2.35991 1.7268,-4.27299 3.85692,-4.27299c2.13012,0 3.85692,1.91309 3.85692,4.27299z" fill="#5d5d5d" stroke-linecap="butt"/><path d="M199.23951,184.384v-5.89377c0,0 3.16379,0 5.50989,0c0.38731,0 0.1637,1.47343 0.68874,1.47343c5.09721,0 16.52968,0.44204 16.52968,0.44204l-0.27549,3.83095z" fill="none" stroke-linecap="butt"/><path d="M221.83006,181.95286c0,0.93582 -0.80173,1.69446 -1.79072,1.69446c-0.98898,0 -1.79072,-0.75863 -1.79072,-1.69446c0,-0.93582 0.80173,-1.69446 1.79072,-1.69446c0.98898,0 1.79072,0.75863 1.79072,1.69446z" fill="none" stroke-linecap="butt"/><path d="M178.63819,177.74594c0,0 -1.30358,-6.45224 -2.49935,-9.50399c-0.46842,-1.19546 -1.33098,-2.84139 -2.17212,-4.34552c-1.15411,-2.06378 -1.04329,-2.46244 -1.04329,-2.46244c0,0 0.3234,-1.3329 1.97067,-1.12783c1.13539,0.14133 2.31795,0.34908 3.0733,0.6476c1.66716,0.65888 4.34459,2.8105 4.34459,2.8105c0,0 -1.28007,8.50734 -1.94706,11.04576c-0.52138,1.98426 -1.72674,2.93592 -1.72674,2.93592z" fill="#9e9e9e" stroke-linecap="round"/><path d="M225.27375,177.75354c0,0 0,-9.89045 0,-13.85037c0,-2.97344 0,-7.80924 0,-7.80924l85.66826,-1.02529c0,0 0.70074,11.4102 0.46954,12.82684c-0.15229,0.93311 -4.14386,9.68718 -4.14386,9.68718z" fill="#9e9e9e" stroke-linecap="butt"/><path d="M200.20374,180.84774h13.77473" fill="none" stroke-linecap="round"/><path d="M211.63676,182.17385l-11.15753,-0.14735" fill="none" stroke-linecap="round"/><path d="M200.61698,183.20528h10.33105" fill="none" stroke-linecap="round"/><path d="M175.96021,176.86949c0,0 2.89993,-7.63287 3.39698,-11.16129c0.51262,-3.63893 7.62281,-8.28815 7.62281,-8.28815c0,0 6.64737,-0.02296 14.18229,-0.17504c0.77498,-0.01564 1.51531,-1.65415 2.48632,-1.67374c4.84907,-0.09787 12.71119,-0.59101 20.94012,-0.51268c0.59039,0.00562 0.22198,9.29004 0.82277,9.28727c0.12298,-0.00056 0.84991,1.09528 1.76555,1.53303c0.70544,0.33725 1.63487,0.04435 1.79542,0.03672c1.69476,-0.08056 65.45043,-0.24428 65.45043,-0.24428l0.2755,11.19817z" fill="#b4b4b4" stroke-linecap="butt"/><path d="M246.8262,157.14081v-1.02529h59.2683v1.02529z" fill="none" stroke-linecap="butt"/><path d="M202.89417,162.69453c0,1.17741 -0.65688,3.55151 -2.02346,5.09507c-1.31714,1.48771 -3.30491,2.16746 -5.40505,2.16746c-2.84241,0 -6.10269,-0.93768 -7.97155,-2.4745c-0.94462,-0.77679 -1.53375,-1.96112 -1.53375,-2.73744c0,-0.97809 -0.02335,-2.39049 1.37971,-3.10316c1.91377,-0.97209 5.65659,-1.08347 8.12559,-1.08347c4.27911,0 7.42851,-0.17617 7.42851,2.13604z" fill="none" stroke-linecap="butt"/><path d="M202.00399,165.76545c-0.67174,1.79633 -3.18532,3.53789 -3.84067,3.25748c-0.65535,-0.28041 -0.00306,-3.50188 0.66867,-5.29821c0.67174,-1.79633 0.5831,-2.6616 1.28463,-2.74482c0.43775,-0.05194 2.01719,0.50398 2.22085,1.24186c0.27645,1.0016 0.0533,2.50935 -0.33348,3.54369z" fill="none" stroke-linecap="butt"/><path d="M294.34146,168.70259l-66.20231,0.50223l-3.75616,-4.26897" fill="none" stroke-linecap="round"/><path d="M249.73706,164.6847c0,0 -2.88981,-2.1963 -3.79372,-3.48549c-0.96956,-1.38281 -1.84051,-4.55022 -1.84051,-4.55022" fill="none" stroke-linecap="round"/><path d="M311.48233,168.52261l-16.65177,0.15036" fill="none" stroke-linecap="round"/><path d="M218.77222,176.9894l3.09884,-10.29576" fill="none" stroke-linecap="round"/><path d="M212.26898,176.81318l3.09884,-10.29575" fill="none" stroke-linecap="round"/><path d="M218.7245,166.34128l-3.09883,10.29575" fill="none" stroke-linecap="round"/><path d="M209.5219,176.63703l3.09884,-10.29575" fill="none" stroke-linecap="round"/><path d="M208.93462,166.16507l-3.09884,10.29575" fill="none" stroke-linecap="round"/><path d="M202.85394,176.78684l3.09884,-10.29575" fill="none" stroke-linecap="round"/><path d="M200.34162,176.35956l3.09884,-10.29576" fill="none" stroke-linecap="round"/><path d="M200.92814,166.64091l-3.09884,10.29575" fill="none" stroke-linecap="round"/><path d="M195.25959,177.34606l2.7441,-7.19791" fill="none" stroke-linecap="round"/><path d="M195.57839,170.64205l-2.44863,6.35998" fill="none" stroke-linecap="round"/><path d="M193.08483,169.74708l-2.48613,7.54639" fill="none" stroke-linecap="round"/><path d="M187.69042,177.29889l2.80853,-7.90962" fill="none" stroke-linecap="round"/><path d="M187.89702,168.52225l-3.09884,8.53794" fill="none" stroke-linecap="round"/><path d="M182.28587,176.63284l3.09883,-10.29575" fill="none" stroke-linecap="round"/><path d="M188.26168,157.48939v-4.59414c0,0 1.7092,0 2.76102,0c1.40242,0 4.90847,4.59414 4.90847,4.59414z" fill="#9e9e9e" stroke-linecap="butt"/><path d="M301.77011,154.86421c0,0 1.72378,-3.60968 2.76101,-3.60968c1.33907,0 4.60169,0 4.60169,0v3.60968z" fill="#9e9e9e" stroke-linecap="butt"/><path d="M193.25802,164.91607c0,1.54049 -1.23615,2.7893 -2.76102,2.7893c-1.52487,0 -2.76101,-1.24881 -2.76101,-2.7893c0,-1.54049 1.23615,-2.7893 2.76101,-2.7893c1.52487,0 2.76102,1.24881 2.76102,2.7893z" fill="none" stroke-linecap="butt"/><path d="M181.93747,240.74549v-3.28153h28.5305v3.28153z" fill="#000000" stroke-linecap="butt"/></g></g></svg>